STARTFONT 2.1
FONT -benis-uushi-medium-R-Normal--11-90-75-75-P-58-ISO10646-1
SIZE 9 75 75
FONTBOUNDINGBOX 10 15 -2 -3
STARTPROPERTIES 18
CHARSET_COLLECTIONS "ISO8859-2 ISO8859-5 ISO8859-9 ISO8859-4 ISO10646-1"
FOUNDRY "benis"
FAMILY_NAME "uushi"
WEIGHT_NAME "medium"
SLANT "R"
SETWIDTH_NAME "Normal"
ADD_STYLE_NAME ""
PIXEL_SIZE 11
POINT_SIZE 90
RESOLUTION_X 75
RESOLUTION_Y 75
SPACING "P"
AVERAGE_WIDTH 58
CHARSET_REGISTRY "ISO10646"
CHARSET_ENCODING "1"
FONT_ASCENT 9
FONT_DESCENT 2
_GBDFED_INFO "Edited with gbdfed 1.6."
ENDPROPERTIES
CHARS 1074
STARTCHAR <control>
ENCODING 0
SWIDTH 0 0
DWIDTH 0 0
BBX 0 0 0 0
BITMAP
ENDCHAR
STARTCHAR <control>
ENCODING 8
SWIDTH 0 0
DWIDTH 0 0
BBX 0 0 0 0
BITMAP
ENDCHAR
STARTCHAR <control>
ENCODING 9
SWIDTH 640 0
DWIDTH 6 0
BBX 0 0 0 0
BITMAP
ENDCHAR
STARTCHAR <control>
ENCODING 10
SWIDTH 640 0
DWIDTH 6 0
BBX 0 0 0 0
BITMAP
ENDCHAR
STARTCHAR <control>
ENCODING 13
SWIDTH 640 0
DWIDTH 6 0
BBX 0 0 0 0
BITMAP
ENDCHAR
STARTCHAR <control>
ENCODING 29
SWIDTH 0 0
DWIDTH 0 0
BBX 0 0 0 0
BITMAP
ENDCHAR
STARTCHAR SPACE
ENCODING 32
SWIDTH 640 0
DWIDTH 6 0
BBX 0 0 0 0
BITMAP
ENDCHAR
STARTCHAR EXCLAMATION MARK
ENCODING 33
SWIDTH 640 0
DWIDTH 6 0
BBX 1 7 2 0
BITMAP
80
80
80
80
80
00
80
ENDCHAR
STARTCHAR QUOTATION MARK
ENCODING 34
SWIDTH 640 0
DWIDTH 6 0
BBX 3 3 1 4
BITMAP
A0
A0
A0
ENDCHAR
STARTCHAR NUMBER SIGN
ENCODING 35
SWIDTH 640 0
DWIDTH 6 0
BBX 5 7 0 0
BITMAP
50
50
D8
50
D8
50
50
ENDCHAR
STARTCHAR DOLLAR SIGN
ENCODING 36
SWIDTH 640 0
DWIDTH 6 0
BBX 5 9 0 -1
BITMAP
20
78
A0
A0
70
28
28
F0
20
ENDCHAR
STARTCHAR PERCENT SIGN
ENCODING 37
SWIDTH 640 0
DWIDTH 6 0
BBX 5 7 0 0
BITMAP
C8
C8
10
20
40
98
98
ENDCHAR
STARTCHAR AMPERSAND
ENCODING 38
SWIDTH 533 0
DWIDTH 5 0
BBX 5 7 0 0
BITMAP
40
A0
A0
40
A8
90
68
ENDCHAR
STARTCHAR APOSTROPHE
ENCODING 39
SWIDTH 640 0
DWIDTH 6 0
BBX 1 3 2 5
BITMAP
80
80
80
ENDCHAR
STARTCHAR LEFT PARENTHESIS
ENCODING 40
SWIDTH 640 0
DWIDTH 6 0
BBX 3 9 1 -1
BITMAP
20
40
80
80
80
80
80
40
20
ENDCHAR
STARTCHAR RIGHT PARENTHESIS
ENCODING 41
SWIDTH 640 0
DWIDTH 6 0
BBX 3 9 2 -1
BITMAP
80
40
20
20
20
20
20
40
80
ENDCHAR
STARTCHAR ASTERISK
ENCODING 42
SWIDTH 640 0
DWIDTH 6 0
BBX 5 5 0 1
BITMAP
20
A8
70
A8
20
ENDCHAR
STARTCHAR PLUS SIGN
ENCODING 43
SWIDTH 640 0
DWIDTH 6 0
BBX 5 5 0 1
BITMAP
20
20
F8
20
20
ENDCHAR
STARTCHAR COMMA
ENCODING 44
SWIDTH 640 0
DWIDTH 6 0
BBX 2 4 1 -2
BITMAP
40
40
40
80
ENDCHAR
STARTCHAR HYPHEN-MINUS
ENCODING 45
SWIDTH 640 0
DWIDTH 6 0
BBX 5 1 0 3
BITMAP
F8
ENDCHAR
STARTCHAR FULL STOP
ENCODING 46
SWIDTH 426 0
DWIDTH 4 0
BBX 1 2 2 0
BITMAP
80
80
ENDCHAR
STARTCHAR SOLIDUS
ENCODING 47
SWIDTH 640 0
DWIDTH 6 0
BBX 5 10 0 -2
BITMAP
08
08
10
10
20
20
40
40
80
80
ENDCHAR
STARTCHAR DIGIT ZERO
ENCODING 48
SWIDTH 640 0
DWIDTH 6 0
BBX 5 7 0 0
BITMAP
70
88
98
A8
C8
88
70
ENDCHAR
STARTCHAR DIGIT ONE
ENCODING 49
SWIDTH 426 0
DWIDTH 4 0
BBX 3 7 1 0
BITMAP
40
C0
40
40
40
40
E0
ENDCHAR
STARTCHAR DIGIT TWO
ENCODING 50
SWIDTH 640 0
DWIDTH 6 0
BBX 5 7 0 0
BITMAP
F0
08
08
70
80
80
F8
ENDCHAR
STARTCHAR DIGIT THREE
ENCODING 51
SWIDTH 640 0
DWIDTH 6 0
BBX 5 7 0 0
BITMAP
F0
08
08
70
08
08
F0
ENDCHAR
STARTCHAR DIGIT FOUR
ENCODING 52
SWIDTH 533 0
DWIDTH 5 0
BBX 5 7 0 0
BITMAP
30
50
90
90
F8
10
10
ENDCHAR
STARTCHAR DIGIT FIVE
ENCODING 53
SWIDTH 533 0
DWIDTH 5 0
BBX 5 7 0 0
BITMAP
F8
80
80
F0
08
08
F0
ENDCHAR
STARTCHAR DIGIT SIX
ENCODING 54
SWIDTH 640 0
DWIDTH 6 0
BBX 5 7 0 0
BITMAP
70
80
80
F0
88
88
70
ENDCHAR
STARTCHAR DIGIT SEVEN
ENCODING 55
SWIDTH 640 0
DWIDTH 6 0
BBX 5 7 0 0
BITMAP
F8
08
08
10
20
20
20
ENDCHAR
STARTCHAR DIGIT EIGHT
ENCODING 56
SWIDTH 640 0
DWIDTH 6 0
BBX 5 7 0 0
BITMAP
70
88
88
70
88
88
70
ENDCHAR
STARTCHAR DIGIT NINE
ENCODING 57
SWIDTH 640 0
DWIDTH 6 0
BBX 5 7 0 0
BITMAP
70
88
88
88
78
08
70
ENDCHAR
STARTCHAR COLON
ENCODING 58
SWIDTH 320 0
DWIDTH 3 0
BBX 1 5 2 0
BITMAP
80
80
00
80
80
ENDCHAR
STARTCHAR SEMICOLON
ENCODING 59
SWIDTH 320 0
DWIDTH 3 0
BBX 2 6 1 -1
BITMAP
40
40
00
40
40
80
ENDCHAR
STARTCHAR LESS-THAN SIGN
ENCODING 60
SWIDTH 426 0
DWIDTH 4 0
BBX 3 5 1 1
BITMAP
20
40
80
40
20
ENDCHAR
STARTCHAR EQUALS SIGN
ENCODING 61
SWIDTH 640 0
DWIDTH 6 0
BBX 5 3 0 2
BITMAP
F8
00
F8
ENDCHAR
STARTCHAR GREATER-THAN SIGN
ENCODING 62
SWIDTH 533 0
DWIDTH 5 0
BBX 3 5 2 1
BITMAP
80
40
20
40
80
ENDCHAR
STARTCHAR QUESTION MARK
ENCODING 63
SWIDTH 640 0
DWIDTH 6 0
BBX 5 7 0 0
BITMAP
70
88
08
10
20
00
20
ENDCHAR
STARTCHAR COMMERCIAL AT
ENCODING 64
SWIDTH 640 0
DWIDTH 6 0
BBX 5 7 0 0
BITMAP
70
88
B8
A8
B8
80
78
ENDCHAR
STARTCHAR LATIN CAPITAL LETTER A
ENCODING 65
SWIDTH 640 0
DWIDTH 6 0
BBX 5 7 0 0
BITMAP
70
88
88
F8
88
88
88
ENDCHAR
STARTCHAR LATIN CAPITAL LETTER B
ENCODING 66
SWIDTH 533 0
DWIDTH 5 0
BBX 5 7 0 0
BITMAP
F0
88
88
F0
88
88
F0
ENDCHAR
STARTCHAR LATIN CAPITAL LETTER C
ENCODING 67
SWIDTH 640 0
DWIDTH 6 0
BBX 5 7 0 0
BITMAP
78
80
80
80
80
80
78
ENDCHAR
STARTCHAR LATIN CAPITAL LETTER D
ENCODING 68
SWIDTH 640 0
DWIDTH 6 0
BBX 5 7 0 0
BITMAP
F0
88
88
88
88
88
F0
ENDCHAR
STARTCHAR LATIN CAPITAL LETTER E
ENCODING 69
SWIDTH 640 0
DWIDTH 6 0
BBX 5 7 0 0
BITMAP
F8
80
80
E0
80
80
F8
ENDCHAR
STARTCHAR LATIN CAPITAL LETTER F
ENCODING 70
SWIDTH 640 0
DWIDTH 6 0
BBX 5 7 0 0
BITMAP
F8
80
80
E0
80
80
80
ENDCHAR
STARTCHAR LATIN CAPITAL LETTER G
ENCODING 71
SWIDTH 640 0
DWIDTH 6 0
BBX 5 7 0 0
BITMAP
78
80
80
B8
88
88
78
ENDCHAR
STARTCHAR LATIN CAPITAL LETTER H
ENCODING 72
SWIDTH 640 0
DWIDTH 6 0
BBX 5 7 0 0
BITMAP
88
88
88
F8
88
88
88
ENDCHAR
STARTCHAR LATIN CAPITAL LETTER I
ENCODING 73
SWIDTH 640 0
DWIDTH 6 0
BBX 3 7 1 0
BITMAP
E0
40
40
40
40
40
E0
ENDCHAR
STARTCHAR LATIN CAPITAL LETTER J
ENCODING 74
SWIDTH 426 0
DWIDTH 4 0
BBX 4 7 0 0
BITMAP
70
10
10
10
10
10
E0
ENDCHAR
STARTCHAR LATIN CAPITAL LETTER K
ENCODING 75
SWIDTH 426 0
DWIDTH 4 0
BBX 4 7 0 0
BITMAP
90
90
A0
C0
A0
90
90
ENDCHAR
STARTCHAR LATIN CAPITAL LETTER L
ENCODING 76
SWIDTH 640 0
DWIDTH 6 0
BBX 5 7 0 0
BITMAP
80
80
80
80
80
80
F8
ENDCHAR
STARTCHAR LATIN CAPITAL LETTER M
ENCODING 77
SWIDTH 640 0
DWIDTH 6 0
BBX 5 7 0 0
BITMAP
88
D8
A8
A8
88
88
88
ENDCHAR
STARTCHAR LATIN CAPITAL LETTER N
ENCODING 78
SWIDTH 640 0
DWIDTH 6 0
BBX 5 7 0 0
BITMAP
C8
C8
A8
A8
A8
98
98
ENDCHAR
STARTCHAR LATIN CAPITAL LETTER O
ENCODING 79
SWIDTH 640 0
DWIDTH 6 0
BBX 5 7 0 0
BITMAP
70
88
88
88
88
88
70
ENDCHAR
STARTCHAR LATIN CAPITAL LETTER P
ENCODING 80
SWIDTH 640 0
DWIDTH 6 0
BBX 5 7 0 0
BITMAP
F0
88
88
F0
80
80
80
ENDCHAR
STARTCHAR LATIN CAPITAL LETTER Q
ENCODING 81
SWIDTH 640 0
DWIDTH 6 0
BBX 5 7 0 0
BITMAP
70
88
88
88
A8
90
68
ENDCHAR
STARTCHAR LATIN CAPITAL LETTER R
ENCODING 82
SWIDTH 640 0
DWIDTH 6 0
BBX 5 7 0 0
BITMAP
F0
88
88
F0
88
88
88
ENDCHAR
STARTCHAR LATIN CAPITAL LETTER S
ENCODING 83
SWIDTH 640 0
DWIDTH 6 0
BBX 5 7 0 0
BITMAP
78
80
80
70
08
08
F0
ENDCHAR
STARTCHAR LATIN CAPITAL LETTER T
ENCODING 84
SWIDTH 640 0
DWIDTH 6 0
BBX 5 7 0 0
BITMAP
F8
20
20
20
20
20
20
ENDCHAR
STARTCHAR LATIN CAPITAL LETTER U
ENCODING 85
SWIDTH 640 0
DWIDTH 6 0
BBX 5 7 0 0
BITMAP
88
88
88
88
88
88
70
ENDCHAR
STARTCHAR LATIN CAPITAL LETTER V
ENCODING 86
SWIDTH 640 0
DWIDTH 6 0
BBX 5 7 0 0
BITMAP
88
88
88
50
50
20
20
ENDCHAR
STARTCHAR LATIN CAPITAL LETTER W
ENCODING 87
SWIDTH 640 0
DWIDTH 6 0
BBX 5 7 0 0
BITMAP
88
88
88
A8
A8
D8
88
ENDCHAR
STARTCHAR LATIN CAPITAL LETTER X
ENCODING 88
SWIDTH 640 0
DWIDTH 6 0
BBX 5 7 0 0
BITMAP
88
88
50
20
50
88
88
ENDCHAR
STARTCHAR LATIN CAPITAL LETTER Y
ENCODING 89
SWIDTH 640 0
DWIDTH 6 0
BBX 5 7 0 0
BITMAP
88
88
50
20
20
20
20
ENDCHAR
STARTCHAR LATIN CAPITAL LETTER Z
ENCODING 90
SWIDTH 640 0
DWIDTH 6 0
BBX 5 7 0 0
BITMAP
F8
08
10
20
40
80
F8
ENDCHAR
STARTCHAR LEFT SQUARE BRACKET
ENCODING 91
SWIDTH 533 0
DWIDTH 5 0
BBX 3 9 1 -1
BITMAP
E0
80
80
80
80
80
80
80
E0
ENDCHAR
STARTCHAR REVERSE SOLIDUS
ENCODING 92
SWIDTH 640 0
DWIDTH 6 0
BBX 5 10 0 -2
BITMAP
80
80
40
40
20
20
10
10
08
08
ENDCHAR
STARTCHAR RIGHT SQUARE BRACKET
ENCODING 93
SWIDTH 426 0
DWIDTH 4 0
BBX 3 9 1 -1
BITMAP
E0
20
20
20
20
20
20
20
E0
ENDCHAR
STARTCHAR CIRCUMFLEX ACCENT
ENCODING 94
SWIDTH 640 0
DWIDTH 6 0
BBX 5 3 1 5
BITMAP
20
50
88
ENDCHAR
STARTCHAR LOW LINE
ENCODING 95
SWIDTH 640 0
DWIDTH 6 0
BBX 6 1 0 0
BITMAP
FC
ENDCHAR
STARTCHAR GRAVE ACCENT
ENCODING 96
SWIDTH 640 0
DWIDTH 6 0
BBX 3 3 1 5
BITMAP
80
40
20
ENDCHAR
STARTCHAR LATIN SMALL LETTER A
ENCODING 97
SWIDTH 533 0
DWIDTH 5 0
BBX 5 5 0 0
BITMAP
78
88
88
88
78
ENDCHAR
STARTCHAR LATIN SMALL LETTER B
ENCODING 98
SWIDTH 640 0
DWIDTH 6 0
BBX 5 7 0 0
BITMAP
80
80
F0
88
88
88
F0
ENDCHAR
STARTCHAR LATIN SMALL LETTER C
ENCODING 99
SWIDTH 640 0
DWIDTH 6 0
BBX 5 5 0 0
BITMAP
78
80
80
80
78
ENDCHAR
STARTCHAR LATIN SMALL LETTER D
ENCODING 100
SWIDTH 640 0
DWIDTH 6 0
BBX 5 7 0 0
BITMAP
08
08
78
88
88
88
78
ENDCHAR
STARTCHAR LATIN SMALL LETTER E
ENCODING 101
SWIDTH 640 0
DWIDTH 6 0
BBX 5 5 0 0
BITMAP
70
88
F8
80
70
ENDCHAR
STARTCHAR LATIN SMALL LETTER F
ENCODING 102
SWIDTH 426 0
DWIDTH 4 0
BBX 4 7 0 0
BITMAP
70
80
E0
80
80
80
80
ENDCHAR
STARTCHAR LATIN SMALL LETTER G
ENCODING 103
SWIDTH 640 0
DWIDTH 6 0
BBX 5 7 0 -2
BITMAP
78
88
88
98
68
08
70
ENDCHAR
STARTCHAR LATIN SMALL LETTER H
ENCODING 104
SWIDTH 640 0
DWIDTH 6 0
BBX 5 7 0 0
BITMAP
80
80
F0
88
88
88
88
ENDCHAR
STARTCHAR LATIN SMALL LETTER I
ENCODING 105
SWIDTH 320 0
DWIDTH 3 0
BBX 3 7 0 0
BITMAP
40
00
C0
40
40
40
60
ENDCHAR
STARTCHAR LATIN SMALL LETTER J
ENCODING 106
SWIDTH 426 0
DWIDTH 4 0
BBX 3 9 0 -2
BITMAP
20
00
20
20
20
20
20
20
C0
ENDCHAR
STARTCHAR LATIN SMALL LETTER K
ENCODING 107
SWIDTH 426 0
DWIDTH 4 0
BBX 4 7 0 0
BITMAP
80
80
90
A0
C0
A0
90
ENDCHAR
STARTCHAR LATIN SMALL LETTER L
ENCODING 108
SWIDTH 320 0
DWIDTH 3 0
BBX 3 7 0 0
BITMAP
C0
40
40
40
40
40
60
ENDCHAR
STARTCHAR LATIN SMALL LETTER M
ENCODING 109
SWIDTH 640 0
DWIDTH 6 0
BBX 5 5 0 0
BITMAP
F0
A8
A8
A8
A8
ENDCHAR
STARTCHAR LATIN SMALL LETTER N
ENCODING 110
SWIDTH 640 0
DWIDTH 6 0
BBX 5 5 0 0
BITMAP
F0
88
88
88
88
ENDCHAR
STARTCHAR LATIN SMALL LETTER O
ENCODING 111
SWIDTH 640 0
DWIDTH 6 0
BBX 5 5 0 0
BITMAP
70
88
88
88
70
ENDCHAR
STARTCHAR LATIN SMALL LETTER P
ENCODING 112
SWIDTH 640 0
DWIDTH 6 0
BBX 5 7 0 -2
BITMAP
F0
88
88
88
F0
80
80
ENDCHAR
STARTCHAR LATIN SMALL LETTER Q
ENCODING 113
SWIDTH 640 0
DWIDTH 6 0
BBX 5 7 0 -2
BITMAP
78
88
88
88
78
08
08
ENDCHAR
STARTCHAR LATIN SMALL LETTER R
ENCODING 114
SWIDTH 533 0
DWIDTH 5 0
BBX 5 5 0 0
BITMAP
78
80
80
80
80
ENDCHAR
STARTCHAR LATIN SMALL LETTER S
ENCODING 115
SWIDTH 640 0
DWIDTH 6 0
BBX 5 5 0 0
BITMAP
78
80
70
08
F0
ENDCHAR
STARTCHAR LATIN SMALL LETTER T
ENCODING 116
SWIDTH 426 0
DWIDTH 4 0
BBX 4 6 0 0
BITMAP
40
F0
40
40
40
30
ENDCHAR
STARTCHAR LATIN SMALL LETTER U
ENCODING 117
SWIDTH 640 0
DWIDTH 6 0
BBX 5 5 0 0
BITMAP
88
88
88
88
78
ENDCHAR
STARTCHAR LATIN SMALL LETTER V
ENCODING 118
SWIDTH 640 0
DWIDTH 6 0
BBX 5 5 0 0
BITMAP
88
88
50
50
20
ENDCHAR
STARTCHAR LATIN SMALL LETTER W
ENCODING 119
SWIDTH 640 0
DWIDTH 6 0
BBX 5 5 0 0
BITMAP
88
88
88
F8
88
ENDCHAR
STARTCHAR LATIN SMALL LETTER X
ENCODING 120
SWIDTH 640 0
DWIDTH 6 0
BBX 5 5 0 0
BITMAP
88
50
20
50
88
ENDCHAR
STARTCHAR LATIN SMALL LETTER Y
ENCODING 121
SWIDTH 640 0
DWIDTH 6 0
BBX 5 7 0 -2
BITMAP
88
88
50
50
20
20
C0
ENDCHAR
STARTCHAR LATIN SMALL LETTER Z
ENCODING 122
SWIDTH 640 0
DWIDTH 6 0
BBX 5 5 0 0
BITMAP
F8
10
20
40
F8
ENDCHAR
STARTCHAR LEFT CURLY BRACKET
ENCODING 123
SWIDTH 640 0
DWIDTH 6 0
BBX 5 9 0 -1
BITMAP
18
20
20
20
C0
20
20
20
18
ENDCHAR
STARTCHAR VERTICAL LINE
ENCODING 124
SWIDTH 640 0
DWIDTH 6 0
BBX 1 12 2 -2
BITMAP
80
80
80
80
80
80
80
80
80
80
80
80
ENDCHAR
STARTCHAR RIGHT CURLY BRACKET
ENCODING 125
SWIDTH 640 0
DWIDTH 6 0
BBX 5 9 0 -1
BITMAP
C0
20
20
20
18
20
20
20
C0
ENDCHAR
STARTCHAR TILDE
ENCODING 126
SWIDTH 640 0
DWIDTH 6 0
BBX 5 4 0 1
BITMAP
40
A8
A8
10
ENDCHAR
STARTCHAR <control>
ENCODING 149
SWIDTH 640 0
DWIDTH 6 0
BBX 5 5 0 1
BITMAP
70
F8
F8
F8
70
ENDCHAR
STARTCHAR <control>
ENCODING 153
SWIDTH 640 0
DWIDTH 6 0
BBX 6 3 0 4
BITMAP
F4
5C
5C
ENDCHAR
STARTCHAR NO-BREAK SPACE
ENCODING 160
SWIDTH 640 0
DWIDTH 6 0
BBX 0 0 0 0
BITMAP
ENDCHAR
STARTCHAR INVERTED EXCLAMATION MARK
ENCODING 161
SWIDTH 640 0
DWIDTH 6 0
BBX 1 7 3 0
BITMAP
80
00
80
80
80
80
80
ENDCHAR
STARTCHAR CENT SIGN
ENCODING 162
SWIDTH 640 0
DWIDTH 6 0
BBX 5 7 0 -1
BITMAP
20
70
A8
A0
A8
70
20
ENDCHAR
STARTCHAR POUND SIGN
ENCODING 163
SWIDTH 640 0
DWIDTH 6 0
BBX 5 8 0 0
BITMAP
30
40
40
E0
40
40
48
B0
ENDCHAR
STARTCHAR CURRENCY SIGN
ENCODING 164
SWIDTH 640 0
DWIDTH 6 0
BBX 5 5 0 1
BITMAP
88
70
50
70
88
ENDCHAR
STARTCHAR YEN SIGN
ENCODING 165
SWIDTH 640 0
DWIDTH 6 0
BBX 5 8 0 -1
BITMAP
88
88
50
F8
20
F8
20
20
ENDCHAR
STARTCHAR BROKEN BAR
ENCODING 166
SWIDTH 640 0
DWIDTH 6 0
BBX 1 10 2 -2
BITMAP
80
80
80
80
00
00
80
80
80
80
ENDCHAR
STARTCHAR SECTION SIGN
ENCODING 167
SWIDTH 640 0
DWIDTH 6 0
BBX 5 10 0 -1
BITMAP
70
88
48
A0
90
48
28
90
88
70
ENDCHAR
STARTCHAR DIAERESIS
ENCODING 168
SWIDTH 640 0
DWIDTH 6 0
BBX 3 1 1 6
BITMAP
A0
ENDCHAR
STARTCHAR COPYRIGHT SIGN
ENCODING 169
SWIDTH 746 0
DWIDTH 7 0
BBX 7 8 0 -1
BITMAP
38
44
9A
A2
A2
9A
44
38
ENDCHAR
STARTCHAR FEMININE ORDINAL INDICATOR
ENCODING 170
SWIDTH 640 0
DWIDTH 6 0
BBX 4 6 1 1
BITMAP
70
90
B0
50
00
F0
ENDCHAR
STARTCHAR LEFT-POINTING DOUBLE ANGLE QUOTATION MARK
ENCODING 171
SWIDTH 640 0
DWIDTH 6 0
BBX 5 4 0 1
BITMAP
48
90
90
48
ENDCHAR
STARTCHAR NOT SIGN
ENCODING 172
SWIDTH 640 0
DWIDTH 6 0
BBX 5 3 0 1
BITMAP
F8
08
08
ENDCHAR
STARTCHAR SOFT HYPHEN
ENCODING 173
SWIDTH 533 0
DWIDTH 5 0
BBX 3 1 1 2
BITMAP
E0
ENDCHAR
STARTCHAR REGISTERED SIGN
ENCODING 174
SWIDTH 640 0
DWIDTH 6 0
BBX 7 8 0 -1
BITMAP
38
44
B2
AA
B2
AA
44
38
ENDCHAR
STARTCHAR MACRON
ENCODING 175
SWIDTH 640 0
DWIDTH 6 0
BBX 4 1 1 7
BITMAP
F0
ENDCHAR
STARTCHAR DEGREE SIGN
ENCODING 176
SWIDTH 640 0
DWIDTH 6 0
BBX 4 4 1 4
BITMAP
60
90
90
60
ENDCHAR
STARTCHAR PLUS-MINUS SIGN
ENCODING 177
SWIDTH 640 0
DWIDTH 6 0
BBX 5 7 0 0
BITMAP
20
20
F8
20
20
00
F8
ENDCHAR
STARTCHAR SUPERSCRIPT TWO
ENCODING 178
SWIDTH 533 0
DWIDTH 5 0
BBX 3 4 1 3
BITMAP
C0
20
40
E0
ENDCHAR
STARTCHAR SUPERSCRIPT THREE
ENCODING 179
SWIDTH 533 0
DWIDTH 5 0
BBX 3 5 2 2
BITMAP
C0
20
60
20
C0
ENDCHAR
STARTCHAR ACUTE ACCENT
ENCODING 180
SWIDTH 640 0
DWIDTH 6 0
BBX 3 3 2 5
BITMAP
20
40
80
ENDCHAR
STARTCHAR MICRO SIGN
ENCODING 181
SWIDTH 640 0
DWIDTH 6 0
BBX 5 7 0 -2
BITMAP
90
90
90
90
E8
80
80
ENDCHAR
STARTCHAR PILCROW SIGN
ENCODING 182
SWIDTH 640 0
DWIDTH 6 0
BBX 6 8 0 0
BITMAP
7C
E8
E8
E8
78
28
28
2C
ENDCHAR
STARTCHAR MIDDLE DOT
ENCODING 183
SWIDTH 640 0
DWIDTH 6 0
BBX 2 2 2 2
BITMAP
C0
C0
ENDCHAR
STARTCHAR CEDILLA
ENCODING 184
SWIDTH 640 0
DWIDTH 6 0
BBX 2 3 2 -3
BITMAP
80
40
80
ENDCHAR
STARTCHAR SUPERSCRIPT ONE
ENCODING 185
SWIDTH 533 0
DWIDTH 5 0
BBX 3 4 1 3
BITMAP
C0
40
40
E0
ENDCHAR
STARTCHAR MASCULINE ORDINAL INDICATOR
ENCODING 186
SWIDTH 640 0
DWIDTH 6 0
BBX 4 6 1 1
BITMAP
60
90
90
60
00
F0
ENDCHAR
STARTCHAR RIGHT-POINTING DOUBLE ANGLE QUOTATION MARK
ENCODING 187
SWIDTH 640 0
DWIDTH 6 0
BBX 5 4 0 1
BITMAP
90
48
48
90
ENDCHAR
STARTCHAR VULGAR FRACTION ONE QUARTER
ENCODING 188
SWIDTH 533 0
DWIDTH 5 0
BBX 5 7 0 0
BITMAP
C0
48
50
28
58
B8
08
ENDCHAR
STARTCHAR VULGAR FRACTION ONE HALF
ENCODING 189
SWIDTH 533 0
DWIDTH 5 0
BBX 5 7 0 0
BITMAP
C0
48
50
30
48
90
38
ENDCHAR
STARTCHAR VULGAR FRACTION THREE QUARTERS
ENCODING 190
SWIDTH 533 0
DWIDTH 5 0
BBX 5 8 0 0
BITMAP
80
40
C8
50
A8
58
B8
08
ENDCHAR
STARTCHAR INVERTED QUESTION MARK
ENCODING 191
SWIDTH 640 0
DWIDTH 6 0
BBX 5 7 0 0
BITMAP
20
00
20
40
80
88
70
ENDCHAR
STARTCHAR LATIN CAPITAL LETTER A WITH GRAVE
ENCODING 192
SWIDTH 640 0
DWIDTH 6 0
BBX 5 9 0 0
BITMAP
40
20
70
88
88
F8
88
88
88
ENDCHAR
STARTCHAR LATIN CAPITAL LETTER A WITH ACUTE
ENCODING 193
SWIDTH 640 0
DWIDTH 6 0
BBX 5 9 0 0
BITMAP
10
20
70
88
88
F8
88
88
88
ENDCHAR
STARTCHAR LATIN CAPITAL LETTER A WITH CIRCUMFLEX
ENCODING 194
SWIDTH 640 0
DWIDTH 6 0
BBX 5 9 0 0
BITMAP
20
50
70
88
88
F8
88
88
88
ENDCHAR
STARTCHAR LATIN CAPITAL LETTER A WITH TILDE
ENCODING 195
SWIDTH 640 0
DWIDTH 6 0
BBX 5 9 0 0
BITMAP
68
B0
70
88
88
F8
88
88
88
ENDCHAR
STARTCHAR LATIN CAPITAL LETTER A WITH DIAERESIS
ENCODING 196
SWIDTH 640 0
DWIDTH 6 0
BBX 5 9 0 0
BITMAP
50
00
70
88
88
F8
88
88
88
ENDCHAR
STARTCHAR LATIN CAPITAL LETTER A WITH RING ABOVE
ENCODING 197
SWIDTH 640 0
DWIDTH 6 0
BBX 5 9 0 0
BITMAP
20
50
20
70
88
88
F8
88
88
ENDCHAR
STARTCHAR LATIN CAPITAL LETTER AE
ENCODING 198
SWIDTH 640 0
DWIDTH 6 0
BBX 5 7 0 0
BITMAP
78
A0
A0
F0
A0
A0
B8
ENDCHAR
STARTCHAR LATIN CAPITAL LETTER C WITH CEDILLA
ENCODING 199
SWIDTH 640 0
DWIDTH 6 0
BBX 5 9 0 -2
BITMAP
70
88
80
80
80
88
70
20
40
ENDCHAR
STARTCHAR LATIN CAPITAL LETTER E WITH GRAVE
ENCODING 200
SWIDTH 640 0
DWIDTH 6 0
BBX 5 9 0 0
BITMAP
40
20
F8
80
80
E0
80
80
F8
ENDCHAR
STARTCHAR LATIN CAPITAL LETTER E WITH ACUTE
ENCODING 201
SWIDTH 640 0
DWIDTH 6 0
BBX 5 9 0 0
BITMAP
10
20
F8
80
80
E0
80
80
F8
ENDCHAR
STARTCHAR LATIN CAPITAL LETTER E WITH CIRCUMFLEX
ENCODING 202
SWIDTH 640 0
DWIDTH 6 0
BBX 5 9 0 0
BITMAP
20
50
F8
80
80
E0
80
80
F8
ENDCHAR
STARTCHAR LATIN CAPITAL LETTER E WITH DIAERESIS
ENCODING 203
SWIDTH 640 0
DWIDTH 6 0
BBX 5 9 0 0
BITMAP
50
00
F8
80
80
E0
80
80
F8
ENDCHAR
STARTCHAR LATIN CAPITAL LETTER I WITH GRAVE
ENCODING 204
SWIDTH 640 0
DWIDTH 6 0
BBX 3 9 1 0
BITMAP
40
20
E0
40
40
40
40
40
E0
ENDCHAR
STARTCHAR LATIN CAPITAL LETTER I WITH ACUTE
ENCODING 205
SWIDTH 640 0
DWIDTH 6 0
BBX 3 9 1 0
BITMAP
40
80
E0
40
40
40
40
40
E0
ENDCHAR
STARTCHAR LATIN CAPITAL LETTER I WITH CIRCUMFLEX
ENCODING 206
SWIDTH 640 0
DWIDTH 6 0
BBX 3 9 1 0
BITMAP
40
A0
E0
40
40
40
40
40
E0
ENDCHAR
STARTCHAR LATIN CAPITAL LETTER I WITH DIAERESIS
ENCODING 207
SWIDTH 640 0
DWIDTH 6 0
BBX 3 9 1 0
BITMAP
A0
00
E0
40
40
40
40
40
E0
ENDCHAR
STARTCHAR LATIN CAPITAL LETTER ETH
ENCODING 208
SWIDTH 640 0
DWIDTH 6 0
BBX 6 7 -1 0
BITMAP
78
44
44
F4
44
44
78
ENDCHAR
STARTCHAR LATIN CAPITAL LETTER N WITH TILDE
ENCODING 209
SWIDTH 640 0
DWIDTH 6 0
BBX 5 9 0 0
BITMAP
68
B0
88
C8
A8
98
88
88
88
ENDCHAR
STARTCHAR LATIN CAPITAL LETTER O WITH GRAVE
ENCODING 210
SWIDTH 640 0
DWIDTH 6 0
BBX 5 9 0 0
BITMAP
40
20
70
88
88
88
88
88
70
ENDCHAR
STARTCHAR LATIN CAPITAL LETTER O WITH ACUTE
ENCODING 211
SWIDTH 640 0
DWIDTH 6 0
BBX 5 9 0 0
BITMAP
10
20
70
88
88
88
88
88
70
ENDCHAR
STARTCHAR LATIN CAPITAL LETTER O WITH CIRCUMFLEX
ENCODING 212
SWIDTH 640 0
DWIDTH 6 0
BBX 5 9 0 0
BITMAP
20
50
70
88
88
88
88
88
70
ENDCHAR
STARTCHAR LATIN CAPITAL LETTER O WITH TILDE
ENCODING 213
SWIDTH 640 0
DWIDTH 6 0
BBX 5 9 0 0
BITMAP
68
B0
70
88
88
88
88
88
70
ENDCHAR
STARTCHAR LATIN CAPITAL LETTER O WITH DIAERESIS
ENCODING 214
SWIDTH 640 0
DWIDTH 6 0
BBX 5 9 0 0
BITMAP
50
00
70
88
88
88
88
88
70
ENDCHAR
STARTCHAR MULTIPLICATION SIGN
ENCODING 215
SWIDTH 640 0
DWIDTH 6 0
BBX 5 5 0 1
BITMAP
88
50
20
50
88
ENDCHAR
STARTCHAR LATIN CAPITAL LETTER O WITH STROKE
ENCODING 216
SWIDTH 640 0
DWIDTH 6 0
BBX 7 7 -1 0
BITMAP
3A
44
4C
54
64
44
B8
ENDCHAR
STARTCHAR LATIN CAPITAL LETTER U WITH GRAVE
ENCODING 217
SWIDTH 640 0
DWIDTH 6 0
BBX 5 9 0 0
BITMAP
40
20
88
88
88
88
88
88
78
ENDCHAR
STARTCHAR LATIN CAPITAL LETTER U WITH ACUTE
ENCODING 218
SWIDTH 640 0
DWIDTH 6 0
BBX 5 9 0 0
BITMAP
10
20
88
88
88
88
88
88
78
ENDCHAR
STARTCHAR LATIN CAPITAL LETTER U WITH CIRCUMFLEX
ENCODING 219
SWIDTH 640 0
DWIDTH 6 0
BBX 5 9 0 0
BITMAP
20
50
00
88
88
88
88
88
78
ENDCHAR
STARTCHAR LATIN CAPITAL LETTER U WITH DIAERESIS
ENCODING 220
SWIDTH 640 0
DWIDTH 6 0
BBX 5 9 0 0
BITMAP
50
00
88
88
88
88
88
88
78
ENDCHAR
STARTCHAR LATIN CAPITAL LETTER Y WITH ACUTE
ENCODING 221
SWIDTH 640 0
DWIDTH 6 0
BBX 5 9 0 0
BITMAP
10
20
88
88
88
50
20
20
20
ENDCHAR
STARTCHAR LATIN CAPITAL LETTER THORN
ENCODING 222
SWIDTH 640 0
DWIDTH 6 0
BBX 6 9 -1 -2
BITMAP
E0
40
78
44
44
44
78
40
E0
ENDCHAR
STARTCHAR LATIN SMALL LETTER SHARP S
ENCODING 223
SWIDTH 640 0
DWIDTH 6 0
BBX 5 8 0 -1
BITMAP
70
88
90
90
88
88
B0
80
ENDCHAR
STARTCHAR LATIN SMALL LETTER A WITH GRAVE
ENCODING 224
SWIDTH 640 0
DWIDTH 6 0
BBX 5 8 0 0
BITMAP
20
10
00
78
88
88
88
78
ENDCHAR
STARTCHAR LATIN SMALL LETTER A WITH ACUTE
ENCODING 225
SWIDTH 640 0
DWIDTH 6 0
BBX 5 8 0 0
BITMAP
10
20
00
78
88
88
88
78
ENDCHAR
STARTCHAR LATIN SMALL LETTER A WITH CIRCUMFLEX
ENCODING 226
SWIDTH 640 0
DWIDTH 6 0
BBX 5 8 0 0
BITMAP
20
50
00
78
88
88
88
78
ENDCHAR
STARTCHAR LATIN SMALL LETTER A WITH TILDE
ENCODING 227
SWIDTH 640 0
DWIDTH 6 0
BBX 5 8 0 0
BITMAP
68
B0
00
78
88
88
88
78
ENDCHAR
STARTCHAR LATIN SMALL LETTER A WITH DIAERESIS
ENCODING 228
SWIDTH 640 0
DWIDTH 6 0
BBX 5 7 0 0
BITMAP
50
00
78
88
88
88
78
ENDCHAR
STARTCHAR LATIN SMALL LETTER A WITH RING ABOVE
ENCODING 229
SWIDTH 640 0
DWIDTH 6 0
BBX 5 9 0 0
BITMAP
20
50
20
00
78
88
88
88
78
ENDCHAR
STARTCHAR LATIN SMALL LETTER AE
ENCODING 230
SWIDTH 640 0
DWIDTH 6 0
BBX 5 5 0 0
BITMAP
70
A8
B8
A0
78
ENDCHAR
STARTCHAR LATIN SMALL LETTER C WITH CEDILLA
ENCODING 231
SWIDTH 640 0
DWIDTH 6 0
BBX 5 7 0 -2
BITMAP
78
80
80
80
78
20
40
ENDCHAR
STARTCHAR LATIN SMALL LETTER E WITH GRAVE
ENCODING 232
SWIDTH 640 0
DWIDTH 6 0
BBX 5 8 0 0
BITMAP
40
20
00
70
88
F8
80
70
ENDCHAR
STARTCHAR LATIN SMALL LETTER E WITH ACUTE
ENCODING 233
SWIDTH 640 0
DWIDTH 6 0
BBX 5 8 0 0
BITMAP
10
20
00
70
88
F8
80
70
ENDCHAR
STARTCHAR LATIN SMALL LETTER E WITH CIRCUMFLEX
ENCODING 234
SWIDTH 640 0
DWIDTH 6 0
BBX 5 8 0 0
BITMAP
20
50
00
70
88
F8
80
70
ENDCHAR
STARTCHAR LATIN SMALL LETTER E WITH DIAERESIS
ENCODING 235
SWIDTH 640 0
DWIDTH 6 0
BBX 5 7 0 0
BITMAP
50
00
70
88
F8
80
70
ENDCHAR
STARTCHAR LATIN SMALL LETTER I WITH GRAVE
ENCODING 236
SWIDTH 320 0
DWIDTH 3 0
BBX 3 8 1 0
BITMAP
80
40
00
C0
40
40
40
60
ENDCHAR
STARTCHAR LATIN SMALL LETTER I WITH ACUTE
ENCODING 237
SWIDTH 640 0
DWIDTH 6 0
BBX 3 8 1 0
BITMAP
20
40
00
C0
40
40
40
60
ENDCHAR
STARTCHAR LATIN SMALL LETTER I WITH CIRCUMFLEX
ENCODING 238
SWIDTH 640 0
DWIDTH 6 0
BBX 3 8 1 0
BITMAP
40
A0
00
C0
40
40
40
60
ENDCHAR
STARTCHAR LATIN SMALL LETTER I WITH DIAERESIS
ENCODING 239
SWIDTH 640 0
DWIDTH 6 0
BBX 3 7 1 0
BITMAP
A0
00
C0
40
40
40
60
ENDCHAR
STARTCHAR LATIN SMALL LETTER ETH
ENCODING 240
SWIDTH 640 0
DWIDTH 6 0
BBX 5 9 0 0
BITMAP
50
20
50
10
78
88
88
88
70
ENDCHAR
STARTCHAR LATIN SMALL LETTER N WITH TILDE
ENCODING 241
SWIDTH 640 0
DWIDTH 6 0
BBX 5 8 0 0
BITMAP
68
B0
00
F0
88
88
88
88
ENDCHAR
STARTCHAR LATIN SMALL LETTER O WITH GRAVE
ENCODING 242
SWIDTH 640 0
DWIDTH 6 0
BBX 5 8 0 0
BITMAP
40
20
00
70
88
88
88
70
ENDCHAR
STARTCHAR LATIN SMALL LETTER O WITH ACUTE
ENCODING 243
SWIDTH 640 0
DWIDTH 6 0
BBX 5 8 0 0
BITMAP
10
20
00
70
88
88
88
70
ENDCHAR
STARTCHAR LATIN SMALL LETTER O WITH CIRCUMFLEX
ENCODING 244
SWIDTH 640 0
DWIDTH 6 0
BBX 5 8 0 0
BITMAP
20
50
00
70
88
88
88
70
ENDCHAR
STARTCHAR LATIN SMALL LETTER O WITH TILDE
ENCODING 245
SWIDTH 640 0
DWIDTH 6 0
BBX 5 8 0 0
BITMAP
68
B0
00
70
88
88
88
70
ENDCHAR
STARTCHAR LATIN SMALL LETTER O WITH DIAERESIS
ENCODING 246
SWIDTH 640 0
DWIDTH 6 0
BBX 5 7 0 0
BITMAP
50
00
70
88
88
88
70
ENDCHAR
STARTCHAR DIVISION SIGN
ENCODING 247
SWIDTH 640 0
DWIDTH 6 0
BBX 5 5 0 1
BITMAP
20
00
F8
00
20
ENDCHAR
STARTCHAR LATIN SMALL LETTER O WITH STROKE
ENCODING 248
SWIDTH 640 0
DWIDTH 6 0
BBX 5 5 0 0
BITMAP
78
98
A8
C8
F0
ENDCHAR
STARTCHAR LATIN SMALL LETTER U WITH GRAVE
ENCODING 249
SWIDTH 640 0
DWIDTH 6 0
BBX 5 8 0 0
BITMAP
40
20
00
88
88
88
88
78
ENDCHAR
STARTCHAR LATIN SMALL LETTER U WITH ACUTE
ENCODING 250
SWIDTH 640 0
DWIDTH 6 0
BBX 5 8 0 0
BITMAP
10
20
00
88
88
88
88
78
ENDCHAR
STARTCHAR LATIN SMALL LETTER U WITH CIRCUMFLEX
ENCODING 251
SWIDTH 640 0
DWIDTH 6 0
BBX 5 8 0 0
BITMAP
20
50
00
88
88
88
88
78
ENDCHAR
STARTCHAR LATIN SMALL LETTER U WITH DIAERESIS
ENCODING 252
SWIDTH 640 0
DWIDTH 6 0
BBX 5 7 0 0
BITMAP
50
00
88
88
88
88
78
ENDCHAR
STARTCHAR LATIN SMALL LETTER Y WITH ACUTE
ENCODING 253
SWIDTH 640 0
DWIDTH 6 0
BBX 5 10 0 -2
BITMAP
10
20
00
88
88
50
50
20
20
C0
ENDCHAR
STARTCHAR LATIN SMALL LETTER THORN
ENCODING 254
SWIDTH 640 0
DWIDTH 6 0
BBX 5 9 0 -2
BITMAP
80
80
F0
88
88
88
F0
80
80
ENDCHAR
STARTCHAR LATIN SMALL LETTER Y WITH DIAERESIS
ENCODING 255
SWIDTH 640 0
DWIDTH 6 0
BBX 5 9 0 -2
BITMAP
50
00
88
88
50
50
20
20
C0
ENDCHAR
STARTCHAR LATIN CAPITAL LETTER A WITH MACRON
ENCODING 256
SWIDTH 640 0
DWIDTH 6 0
BBX 5 9 0 0
BITMAP
F8
00
70
88
88
F8
88
88
88
ENDCHAR
STARTCHAR LATIN SMALL LETTER A WITH MACRON
ENCODING 257
SWIDTH 640 0
DWIDTH 6 0
BBX 5 7 0 0
BITMAP
F8
00
78
88
88
88
78
ENDCHAR
STARTCHAR LATIN CAPITAL LETTER A WITH BREVE
ENCODING 258
SWIDTH 640 0
DWIDTH 6 0
BBX 5 10 0 0
BITMAP
88
70
00
70
88
88
F8
88
88
88
ENDCHAR
STARTCHAR LATIN SMALL LETTER A WITH BREVE
ENCODING 259
SWIDTH 640 0
DWIDTH 6 0
BBX 5 8 0 0
BITMAP
88
70
00
78
88
88
88
78
ENDCHAR
STARTCHAR LATIN CAPITAL LETTER A WITH OGONEK
ENCODING 260
SWIDTH 640 0
DWIDTH 6 0
BBX 6 8 0 -1
BITMAP
70
88
88
F8
88
88
88
04
ENDCHAR
STARTCHAR LATIN SMALL LETTER A WITH OGONEK
ENCODING 261
SWIDTH 640 0
DWIDTH 6 0
BBX 6 6 0 -1
BITMAP
78
88
88
88
78
04
ENDCHAR
STARTCHAR LATIN CAPITAL LETTER C WITH ACUTE
ENCODING 262
SWIDTH 533 0
DWIDTH 5 0
BBX 5 9 0 0
BITMAP
10
20
78
80
80
80
80
80
78
ENDCHAR
STARTCHAR LATIN SMALL LETTER C WITH ACUTE
ENCODING 263
SWIDTH 640 0
DWIDTH 6 0
BBX 5 8 0 0
BITMAP
10
20
00
78
80
80
80
78
ENDCHAR
STARTCHAR LATIN CAPITAL LETTER C WITH CIRCUMFLEX
ENCODING 264
SWIDTH 640 0
DWIDTH 6 0
BBX 5 9 0 0
BITMAP
20
50
78
80
80
80
80
80
78
ENDCHAR
STARTCHAR LATIN SMALL LETTER C WITH CIRCUMFLEX
ENCODING 265
SWIDTH 640 0
DWIDTH 6 0
BBX 5 8 0 0
BITMAP
20
50
00
78
80
80
80
78
ENDCHAR
STARTCHAR LATIN CAPITAL LETTER C WITH DOT ABOVE
ENCODING 266
SWIDTH 640 0
DWIDTH 6 0
BBX 5 9 0 0
BITMAP
20
00
78
80
80
80
80
80
78
ENDCHAR
STARTCHAR LATIN SMALL LETTER C WITH DOT ABOVE
ENCODING 267
SWIDTH 640 0
DWIDTH 6 0
BBX 5 7 0 0
BITMAP
20
00
78
80
80
80
78
ENDCHAR
STARTCHAR LATIN CAPITAL LETTER C WITH CARON
ENCODING 268
SWIDTH 640 0
DWIDTH 6 0
BBX 5 9 0 0
BITMAP
50
20
78
80
80
80
80
80
78
ENDCHAR
STARTCHAR LATIN SMALL LETTER C WITH CARON
ENCODING 269
SWIDTH 640 0
DWIDTH 6 0
BBX 5 8 0 0
BITMAP
50
20
00
78
80
80
80
78
ENDCHAR
STARTCHAR LATIN CAPITAL LETTER D WITH CARON
ENCODING 270
SWIDTH 640 0
DWIDTH 6 0
BBX 5 9 0 0
BITMAP
50
20
F0
88
88
88
88
88
F0
ENDCHAR
STARTCHAR LATIN SMALL LETTER D WITH CARON
ENCODING 271
SWIDTH 640 0
DWIDTH 6 0
BBX 6 8 0 0
BITMAP
04
14
18
70
90
90
90
70
ENDCHAR
STARTCHAR LATIN CAPITAL LETTER D WITH STROKE
ENCODING 272
SWIDTH 640 0
DWIDTH 6 0
BBX 6 7 -1 0
BITMAP
78
44
44
F4
44
44
78
ENDCHAR
STARTCHAR LATIN SMALL LETTER D WITH STROKE
ENCODING 273
SWIDTH 640 0
DWIDTH 6 0
BBX 6 7 0 0
BITMAP
1C
08
78
88
88
88
78
ENDCHAR
STARTCHAR LATIN CAPITAL LETTER E WITH MACRON
ENCODING 274
SWIDTH 640 0
DWIDTH 6 0
BBX 5 9 0 0
BITMAP
70
00
F8
80
80
E0
80
80
F8
ENDCHAR
STARTCHAR LATIN SMALL LETTER E WITH MACRON
ENCODING 275
SWIDTH 640 0
DWIDTH 6 0
BBX 5 7 0 0
BITMAP
F8
00
70
88
F8
80
70
ENDCHAR
STARTCHAR LATIN CAPITAL LETTER E WITH BREVE
ENCODING 276
SWIDTH 640 0
DWIDTH 6 0
BBX 5 10 0 0
BITMAP
88
70
00
F8
80
80
E0
80
80
F8
ENDCHAR
STARTCHAR LATIN SMALL LETTER E WITH BREVE
ENCODING 277
SWIDTH 640 0
DWIDTH 6 0
BBX 5 8 0 0
BITMAP
88
70
00
70
88
F8
80
70
ENDCHAR
STARTCHAR LATIN CAPITAL LETTER E WITH DOT ABOVE
ENCODING 278
SWIDTH 640 0
DWIDTH 6 0
BBX 5 9 0 0
BITMAP
20
00
F8
80
80
E0
80
80
F8
ENDCHAR
STARTCHAR LATIN SMALL LETTER E WITH DOT ABOVE
ENCODING 279
SWIDTH 640 0
DWIDTH 6 0
BBX 5 7 0 0
BITMAP
20
00
70
88
F8
80
70
ENDCHAR
STARTCHAR LATIN CAPITAL LETTER E WITH OGONEK
ENCODING 280
SWIDTH 640 0
DWIDTH 6 0
BBX 6 8 0 -1
BITMAP
F8
80
80
E0
80
80
F8
04
ENDCHAR
STARTCHAR LATIN SMALL LETTER E WITH OGONEK
ENCODING 281
SWIDTH 640 0
DWIDTH 6 0
BBX 5 7 0 -2
BITMAP
70
88
F8
80
70
10
08
ENDCHAR
STARTCHAR LATIN CAPITAL LETTER E WITH CARON
ENCODING 282
SWIDTH 640 0
DWIDTH 6 0
BBX 5 9 0 0
BITMAP
50
20
F8
80
80
E0
80
80
F8
ENDCHAR
STARTCHAR LATIN SMALL LETTER E WITH CARON
ENCODING 283
SWIDTH 640 0
DWIDTH 6 0
BBX 5 8 0 0
BITMAP
50
20
00
70
88
F8
80
70
ENDCHAR
STARTCHAR LATIN CAPITAL LETTER G WITH CIRCUMFLEX
ENCODING 284
SWIDTH 640 0
DWIDTH 6 0
BBX 5 9 0 0
BITMAP
20
50
70
88
80
98
88
88
70
ENDCHAR
STARTCHAR LATIN SMALL LETTER G WITH CIRCUMFLEX
ENCODING 285
SWIDTH 640 0
DWIDTH 6 0
BBX 5 10 0 -2
BITMAP
20
50
00
78
88
88
88
78
08
70
ENDCHAR
STARTCHAR LATIN CAPITAL LETTER G WITH BREVE
ENCODING 286
SWIDTH 640 0
DWIDTH 6 0
BBX 5 10 0 0
BITMAP
88
70
00
70
88
80
98
88
88
70
ENDCHAR
STARTCHAR LATIN SMALL LETTER G WITH BREVE
ENCODING 287
SWIDTH 640 0
DWIDTH 6 0
BBX 5 10 0 -2
BITMAP
88
70
00
78
88
88
88
78
08
70
ENDCHAR
STARTCHAR LATIN CAPITAL LETTER G WITH DOT ABOVE
ENCODING 288
SWIDTH 640 0
DWIDTH 6 0
BBX 5 9 0 0
BITMAP
20
00
70
88
80
98
88
88
70
ENDCHAR
STARTCHAR LATIN SMALL LETTER G WITH DOT ABOVE
ENCODING 289
SWIDTH 640 0
DWIDTH 6 0
BBX 5 9 0 -2
BITMAP
20
00
78
88
88
88
78
08
70
ENDCHAR
STARTCHAR LATIN CAPITAL LETTER G WITH CEDILLA
ENCODING 290
SWIDTH 640 0
DWIDTH 6 0
BBX 5 9 0 -2
BITMAP
70
88
80
98
88
88
70
20
40
ENDCHAR
STARTCHAR LATIN SMALL LETTER G WITH CEDILLA
ENCODING 291
SWIDTH 640 0
DWIDTH 6 0
BBX 5 10 0 -2
BITMAP
10
20
00
78
88
88
88
78
08
70
ENDCHAR
STARTCHAR LATIN CAPITAL LETTER H WITH CIRCUMFLEX
ENCODING 292
SWIDTH 640 0
DWIDTH 6 0
BBX 5 9 0 0
BITMAP
20
50
88
88
88
F8
88
88
88
ENDCHAR
STARTCHAR LATIN SMALL LETTER H WITH CIRCUMFLEX
ENCODING 293
SWIDTH 640 0
DWIDTH 6 0
BBX 5 9 0 0
BITMAP
20
50
80
80
F0
88
88
88
88
ENDCHAR
STARTCHAR LATIN CAPITAL LETTER H WITH STROKE
ENCODING 294
SWIDTH 640 0
DWIDTH 6 0
BBX 7 7 -1 0
BITMAP
44
FE
44
7C
44
44
44
ENDCHAR
STARTCHAR LATIN SMALL LETTER H WITH STROKE
ENCODING 295
SWIDTH 640 0
DWIDTH 6 0
BBX 6 7 -1 0
BITMAP
F0
40
78
44
44
44
44
ENDCHAR
STARTCHAR LATIN CAPITAL LETTER I WITH TILDE
ENCODING 296
SWIDTH 640 0
DWIDTH 6 0
BBX 5 10 0 0
BITMAP
68
B0
00
70
20
20
20
20
20
70
ENDCHAR
STARTCHAR LATIN SMALL LETTER I WITH TILDE
ENCODING 297
SWIDTH 426 0
DWIDTH 4 0
BBX 4 8 1 0
BITMAP
50
A0
00
C0
40
40
40
60
ENDCHAR
STARTCHAR LATIN CAPITAL LETTER I WITH MACRON
ENCODING 298
SWIDTH 640 0
DWIDTH 6 0
BBX 3 9 1 0
BITMAP
E0
00
E0
40
40
40
40
40
E0
ENDCHAR
STARTCHAR LATIN SMALL LETTER I WITH MACRON
ENCODING 299
SWIDTH 640 0
DWIDTH 6 0
BBX 3 7 1 0
BITMAP
E0
00
C0
40
40
40
60
ENDCHAR
STARTCHAR LATIN CAPITAL LETTER I WITH BREVE
ENCODING 300
SWIDTH 640 0
DWIDTH 6 0
BBX 5 10 0 0
BITMAP
88
70
00
70
20
20
20
20
20
70
ENDCHAR
STARTCHAR LATIN SMALL LETTER I WITH BREVE
ENCODING 301
SWIDTH 320 0
DWIDTH 3 0
BBX 4 8 0 0
BITMAP
90
60
00
60
20
20
20
30
ENDCHAR
STARTCHAR LATIN CAPITAL LETTER I WITH OGONEK
ENCODING 302
SWIDTH 640 0
DWIDTH 6 0
BBX 3 9 1 -2
BITMAP
E0
40
40
40
40
40
E0
80
40
ENDCHAR
STARTCHAR LATIN SMALL LETTER I WITH OGONEK
ENCODING 303
SWIDTH 320 0
DWIDTH 3 0
BBX 3 9 1 -2
BITMAP
40
00
C0
40
40
40
60
80
40
ENDCHAR
STARTCHAR LATIN CAPITAL LETTER I WITH DOT ABOVE
ENCODING 304
SWIDTH 640 0
DWIDTH 6 0
BBX 3 9 1 0
BITMAP
40
00
E0
40
40
40
40
40
E0
ENDCHAR
STARTCHAR LATIN SMALL LETTER DOTLESS I
ENCODING 305
SWIDTH 320 0
DWIDTH 3 0
BBX 3 5 1 0
BITMAP
C0
40
40
40
60
ENDCHAR
STARTCHAR LATIN CAPITAL LIGATURE IJ
ENCODING 306
SWIDTH 640 0
DWIDTH 6 0
BBX 6 7 0 0
BITMAP
FC
44
44
44
44
54
E8
ENDCHAR
STARTCHAR LATIN SMALL LIGATURE IJ
ENCODING 307
SWIDTH 640 0
DWIDTH 6 0
BBX 5 9 1 -2
BITMAP
48
00
C8
48
48
48
48
08
30
ENDCHAR
STARTCHAR LATIN CAPITAL LETTER J WITH CIRCUMFLEX
ENCODING 308
SWIDTH 426 0
DWIDTH 4 0
BBX 4 9 0 0
BITMAP
20
50
70
10
10
10
10
10
E0
ENDCHAR
STARTCHAR LATIN SMALL LETTER J WITH CIRCUMFLEX
ENCODING 309
SWIDTH 533 0
DWIDTH 5 0
BBX 4 10 0 -2
BITMAP
20
50
00
20
20
20
20
20
20
C0
ENDCHAR
STARTCHAR LATIN CAPITAL LETTER K WITH CEDILLA
ENCODING 310
SWIDTH 640 0
DWIDTH 6 0
BBX 5 9 0 -2
BITMAP
88
90
A0
C0
A0
90
88
20
40
ENDCHAR
STARTCHAR LATIN SMALL LETTER K WITH CEDILLA
ENCODING 311
SWIDTH 640 0
DWIDTH 6 0
BBX 5 9 0 -2
BITMAP
80
80
90
A0
E0
90
88
20
40
ENDCHAR
STARTCHAR LATIN SMALL LETTER KRA
ENCODING 312
SWIDTH 640 0
DWIDTH 6 0
BBX 4 5 0 0
BITMAP
90
A0
C0
A0
90
ENDCHAR
STARTCHAR LATIN CAPITAL LETTER L WITH ACUTE
ENCODING 313
SWIDTH 640 0
DWIDTH 6 0
BBX 5 9 0 0
BITMAP
10
20
80
80
80
80
80
80
F8
ENDCHAR
STARTCHAR LATIN SMALL LETTER L WITH ACUTE
ENCODING 314
SWIDTH 426 0
DWIDTH 4 0
BBX 3 9 2 0
BITMAP
20
40
80
80
80
80
80
80
C0
ENDCHAR
STARTCHAR LATIN CAPITAL LETTER L WITH CEDILLA
ENCODING 315
SWIDTH 640 0
DWIDTH 6 0
BBX 5 9 0 -2
BITMAP
80
80
80
80
80
80
F8
20
40
ENDCHAR
STARTCHAR LATIN SMALL LETTER L WITH CEDILLA
ENCODING 316
SWIDTH 320 0
DWIDTH 3 0
BBX 2 9 2 -2
BITMAP
80
80
80
80
80
80
C0
40
80
ENDCHAR
STARTCHAR LATIN CAPITAL LETTER L WITH CARON
ENCODING 317
SWIDTH 640 0
DWIDTH 6 0
BBX 5 8 0 0
BITMAP
30
90
80
80
80
80
80
F8
ENDCHAR
STARTCHAR LATIN SMALL LETTER L WITH CARON
ENCODING 318
SWIDTH 426 0
DWIDTH 4 0
BBX 3 9 2 0
BITMAP
60
20
80
80
80
80
80
80
40
ENDCHAR
STARTCHAR LATIN CAPITAL LETTER L WITH MIDDLE DOT
ENCODING 319
SWIDTH 640 0
DWIDTH 6 0
BBX 5 7 0 0
BITMAP
80
80
80
A0
80
80
F8
ENDCHAR
STARTCHAR LATIN SMALL LETTER L WITH MIDDLE DOT
ENCODING 320
SWIDTH 426 0
DWIDTH 4 0
BBX 3 7 2 0
BITMAP
80
80
80
A0
80
80
C0
ENDCHAR
STARTCHAR LATIN CAPITAL LETTER L WITH STROKE
ENCODING 321
SWIDTH 640 0
DWIDTH 6 0
BBX 5 7 0 0
BITMAP
80
80
A0
C0
80
80
F8
ENDCHAR
STARTCHAR LATIN SMALL LETTER L WITH STROKE
ENCODING 322
SWIDTH 640 0
DWIDTH 6 0
BBX 3 7 1 0
BITMAP
40
40
60
40
C0
40
60
ENDCHAR
STARTCHAR LATIN CAPITAL LETTER N WITH ACUTE
ENCODING 323
SWIDTH 640 0
DWIDTH 6 0
BBX 5 9 0 0
BITMAP
10
20
88
C8
C8
A8
98
98
88
ENDCHAR
STARTCHAR LATIN SMALL LETTER N WITH ACUTE
ENCODING 324
SWIDTH 640 0
DWIDTH 6 0
BBX 5 8 0 0
BITMAP
10
20
00
F0
88
88
88
88
ENDCHAR
STARTCHAR LATIN CAPITAL LETTER N WITH CEDILLA
ENCODING 325
SWIDTH 640 0
DWIDTH 6 0
BBX 5 9 0 -2
BITMAP
88
C8
C8
A8
98
98
A8
20
40
ENDCHAR
STARTCHAR LATIN SMALL LETTER N WITH CEDILLA
ENCODING 326
SWIDTH 640 0
DWIDTH 6 0
BBX 5 7 0 -2
BITMAP
F0
88
88
88
A8
20
40
ENDCHAR
STARTCHAR LATIN CAPITAL LETTER N WITH CARON
ENCODING 327
SWIDTH 640 0
DWIDTH 6 0
BBX 5 9 0 0
BITMAP
50
20
88
C8
C8
A8
98
98
88
ENDCHAR
STARTCHAR LATIN SMALL LETTER N WITH CARON
ENCODING 328
SWIDTH 640 0
DWIDTH 6 0
BBX 5 8 0 0
BITMAP
50
20
00
F0
88
88
88
88
ENDCHAR
STARTCHAR LATIN SMALL LETTER N PRECEDED BY APOSTROPHE
ENCODING 329
SWIDTH 640 0
DWIDTH 6 0
BBX 5 8 0 0
BITMAP
80
80
00
F0
88
88
88
88
ENDCHAR
STARTCHAR LATIN CAPITAL LETTER ENG
ENCODING 330
SWIDTH 640 0
DWIDTH 6 0
BBX 5 9 0 -2
BITMAP
88
C8
C8
A8
98
98
88
08
30
ENDCHAR
STARTCHAR LATIN SMALL LETTER ENG
ENCODING 331
SWIDTH 640 0
DWIDTH 6 0
BBX 5 7 0 -2
BITMAP
F0
88
88
88
88
08
30
ENDCHAR
STARTCHAR LATIN CAPITAL LETTER O WITH MACRON
ENCODING 332
SWIDTH 640 0
DWIDTH 6 0
BBX 5 9 0 0
BITMAP
F8
00
70
88
88
88
88
88
70
ENDCHAR
STARTCHAR LATIN SMALL LETTER O WITH MACRON
ENCODING 333
SWIDTH 640 0
DWIDTH 6 0
BBX 5 7 0 0
BITMAP
F8
00
70
88
88
88
70
ENDCHAR
STARTCHAR LATIN CAPITAL LETTER O WITH BREVE
ENCODING 334
SWIDTH 640 0
DWIDTH 6 0
BBX 5 10 0 0
BITMAP
88
70
00
70
88
88
88
88
88
70
ENDCHAR
STARTCHAR LATIN SMALL LETTER O WITH BREVE
ENCODING 335
SWIDTH 640 0
DWIDTH 6 0
BBX 5 8 0 0
BITMAP
88
70
00
70
88
88
88
70
ENDCHAR
STARTCHAR LATIN CAPITAL LETTER O WITH DOUBLE ACUTE
ENCODING 336
SWIDTH 640 0
DWIDTH 6 0
BBX 5 9 0 0
BITMAP
28
50
70
88
88
88
88
88
70
ENDCHAR
STARTCHAR LATIN SMALL LETTER O WITH DOUBLE ACUTE
ENCODING 337
SWIDTH 640 0
DWIDTH 6 0
BBX 5 8 0 0
BITMAP
28
50
00
70
88
88
88
70
ENDCHAR
STARTCHAR LATIN CAPITAL LIGATURE OE
ENCODING 338
SWIDTH 640 0
DWIDTH 6 0
BBX 5 7 0 0
BITMAP
78
A0
A0
B0
A0
A0
78
ENDCHAR
STARTCHAR LATIN SMALL LIGATURE OE
ENCODING 339
SWIDTH 640 0
DWIDTH 6 0
BBX 5 5 0 0
BITMAP
70
A8
B8
A0
58
ENDCHAR
STARTCHAR LATIN CAPITAL LETTER R WITH ACUTE
ENCODING 340
SWIDTH 640 0
DWIDTH 6 0
BBX 5 9 0 0
BITMAP
10
20
F0
88
88
F0
88
88
88
ENDCHAR
STARTCHAR LATIN SMALL LETTER R WITH ACUTE
ENCODING 341
SWIDTH 533 0
DWIDTH 5 0
BBX 5 8 0 0
BITMAP
10
20
00
78
80
80
80
80
ENDCHAR
STARTCHAR LATIN CAPITAL LETTER R WITH CEDILLA
ENCODING 342
SWIDTH 640 0
DWIDTH 6 0
BBX 5 9 0 -2
BITMAP
F0
88
88
F0
88
88
A8
20
40
ENDCHAR
STARTCHAR LATIN SMALL LETTER R WITH CEDILLA
ENCODING 343
SWIDTH 533 0
DWIDTH 5 0
BBX 5 7 0 -2
BITMAP
78
80
80
80
A0
20
40
ENDCHAR
STARTCHAR LATIN CAPITAL LETTER R WITH CARON
ENCODING 344
SWIDTH 640 0
DWIDTH 6 0
BBX 5 9 0 0
BITMAP
50
20
F0
88
88
F0
88
88
88
ENDCHAR
STARTCHAR LATIN SMALL LETTER R WITH CARON
ENCODING 345
SWIDTH 533 0
DWIDTH 5 0
BBX 5 8 0 0
BITMAP
50
20
00
78
80
80
80
80
ENDCHAR
STARTCHAR LATIN CAPITAL LETTER S WITH ACUTE
ENCODING 346
SWIDTH 640 0
DWIDTH 6 0
BBX 5 9 0 0
BITMAP
10
20
78
80
80
70
08
08
F0
ENDCHAR
STARTCHAR LATIN SMALL LETTER S WITH ACUTE
ENCODING 347
SWIDTH 640 0
DWIDTH 6 0
BBX 5 8 0 0
BITMAP
10
20
00
78
80
70
08
F0
ENDCHAR
STARTCHAR LATIN CAPITAL LETTER S WITH CIRCUMFLEX
ENCODING 348
SWIDTH 640 0
DWIDTH 6 0
BBX 5 9 0 0
BITMAP
20
50
78
80
80
70
08
08
F0
ENDCHAR
STARTCHAR LATIN SMALL LETTER S WITH CIRCUMFLEX
ENCODING 349
SWIDTH 640 0
DWIDTH 6 0
BBX 5 8 0 0
BITMAP
20
50
00
78
80
70
08
F0
ENDCHAR
STARTCHAR LATIN CAPITAL LETTER S WITH CEDILLA
ENCODING 350
SWIDTH 640 0
DWIDTH 6 0
BBX 5 9 0 -2
BITMAP
78
80
80
70
08
08
F0
20
20
ENDCHAR
STARTCHAR LATIN SMALL LETTER S WITH CEDILLA
ENCODING 351
SWIDTH 640 0
DWIDTH 6 0
BBX 5 7 0 -2
BITMAP
78
80
70
08
F0
20
20
ENDCHAR
STARTCHAR LATIN CAPITAL LETTER S WITH CARON
ENCODING 352
SWIDTH 640 0
DWIDTH 6 0
BBX 5 9 0 0
BITMAP
50
20
78
80
80
70
08
08
F0
ENDCHAR
STARTCHAR LATIN SMALL LETTER S WITH CARON
ENCODING 353
SWIDTH 640 0
DWIDTH 6 0
BBX 5 8 0 0
BITMAP
50
20
00
78
80
70
08
F0
ENDCHAR
STARTCHAR LATIN CAPITAL LETTER T WITH CEDILLA
ENCODING 354
SWIDTH 640 0
DWIDTH 6 0
BBX 5 9 0 -2
BITMAP
F8
20
20
20
20
20
20
20
40
ENDCHAR
STARTCHAR LATIN SMALL LETTER T WITH CEDILLA
ENCODING 355
SWIDTH 640 0
DWIDTH 6 0
BBX 4 8 1 -2
BITMAP
40
F0
40
40
40
30
20
20
ENDCHAR
STARTCHAR LATIN CAPITAL LETTER T WITH CARON
ENCODING 356
SWIDTH 640 0
DWIDTH 6 0
BBX 5 9 0 0
BITMAP
50
20
F8
20
20
20
20
20
20
ENDCHAR
STARTCHAR LATIN SMALL LETTER T WITH CARON
ENCODING 357
SWIDTH 640 0
DWIDTH 6 0
BBX 5 9 0 0
BITMAP
18
08
00
40
F0
40
40
40
30
ENDCHAR
STARTCHAR LATIN CAPITAL LETTER T WITH STROKE
ENCODING 358
SWIDTH 640 0
DWIDTH 6 0
BBX 5 7 0 0
BITMAP
F8
20
20
F8
20
20
20
ENDCHAR
STARTCHAR LATIN SMALL LETTER T WITH STROKE
ENCODING 359
SWIDTH 640 0
DWIDTH 6 0
BBX 4 6 0 0
BITMAP
40
F0
40
E0
40
30
ENDCHAR
STARTCHAR LATIN CAPITAL LETTER U WITH TILDE
ENCODING 360
SWIDTH 640 0
DWIDTH 6 0
BBX 5 10 0 0
BITMAP
68
B0
00
88
88
88
88
88
88
78
ENDCHAR
STARTCHAR LATIN SMALL LETTER U WITH TILDE
ENCODING 361
SWIDTH 640 0
DWIDTH 6 0
BBX 5 8 0 0
BITMAP
68
B0
00
88
88
88
88
78
ENDCHAR
STARTCHAR LATIN CAPITAL LETTER U WITH MACRON
ENCODING 362
SWIDTH 640 0
DWIDTH 6 0
BBX 5 9 0 0
BITMAP
F8
00
88
88
88
88
88
88
78
ENDCHAR
STARTCHAR LATIN SMALL LETTER U WITH MACRON
ENCODING 363
SWIDTH 640 0
DWIDTH 6 0
BBX 5 7 0 0
BITMAP
F8
00
88
88
88
88
78
ENDCHAR
STARTCHAR LATIN CAPITAL LETTER U WITH BREVE
ENCODING 364
SWIDTH 640 0
DWIDTH 6 0
BBX 5 10 0 0
BITMAP
88
70
00
88
88
88
88
88
88
78
ENDCHAR
STARTCHAR LATIN SMALL LETTER U WITH BREVE
ENCODING 365
SWIDTH 640 0
DWIDTH 6 0
BBX 5 8 0 0
BITMAP
88
70
00
88
88
88
88
78
ENDCHAR
STARTCHAR LATIN CAPITAL LETTER U WITH RING ABOVE
ENCODING 366
SWIDTH 640 0
DWIDTH 6 0
BBX 5 9 0 0
BITMAP
20
50
A8
88
88
88
88
88
78
ENDCHAR
STARTCHAR LATIN SMALL LETTER U WITH RING ABOVE
ENCODING 367
SWIDTH 640 0
DWIDTH 6 0
BBX 5 8 0 0
BITMAP
20
50
20
88
88
88
88
78
ENDCHAR
STARTCHAR LATIN CAPITAL LETTER U WITH DOUBLE ACUTE
ENCODING 368
SWIDTH 640 0
DWIDTH 6 0
BBX 5 9 0 0
BITMAP
28
50
88
88
88
88
88
88
78
ENDCHAR
STARTCHAR LATIN SMALL LETTER U WITH DOUBLE ACUTE
ENCODING 369
SWIDTH 640 0
DWIDTH 6 0
BBX 5 8 0 0
BITMAP
28
50
00
88
88
88
88
78
ENDCHAR
STARTCHAR LATIN CAPITAL LETTER U WITH OGONEK
ENCODING 370
SWIDTH 640 0
DWIDTH 6 0
BBX 5 9 0 -2
BITMAP
88
88
88
88
88
88
78
20
10
ENDCHAR
STARTCHAR LATIN SMALL LETTER U WITH OGONEK
ENCODING 371
SWIDTH 640 0
DWIDTH 6 0
BBX 5 7 0 -2
BITMAP
88
88
88
88
78
20
10
ENDCHAR
STARTCHAR LATIN CAPITAL LETTER W WITH CIRCUMFLEX
ENCODING 372
SWIDTH 640 0
DWIDTH 6 0
BBX 5 9 0 0
BITMAP
20
50
00
88
88
A8
A8
D8
88
ENDCHAR
STARTCHAR LATIN SMALL LETTER W WITH CIRCUMFLEX
ENCODING 373
SWIDTH 640 0
DWIDTH 6 0
BBX 5 8 0 0
BITMAP
20
50
00
88
88
88
F8
88
ENDCHAR
STARTCHAR LATIN CAPITAL LETTER Y WITH CIRCUMFLEX
ENCODING 374
SWIDTH 640 0
DWIDTH 6 0
BBX 5 9 0 0
BITMAP
20
50
88
88
88
50
20
20
20
ENDCHAR
STARTCHAR LATIN SMALL LETTER Y WITH CIRCUMFLEX
ENCODING 375
SWIDTH 640 0
DWIDTH 6 0
BBX 5 10 0 -2
BITMAP
20
50
00
88
88
50
50
20
20
C0
ENDCHAR
STARTCHAR LATIN CAPITAL LETTER Y WITH DIAERESIS
ENCODING 376
SWIDTH 640 0
DWIDTH 6 0
BBX 5 9 0 0
BITMAP
50
00
88
88
88
50
20
20
20
ENDCHAR
STARTCHAR LATIN CAPITAL LETTER Z WITH ACUTE
ENCODING 377
SWIDTH 640 0
DWIDTH 6 0
BBX 5 9 0 0
BITMAP
10
20
F8
08
10
20
40
80
F8
ENDCHAR
STARTCHAR LATIN SMALL LETTER Z WITH ACUTE
ENCODING 378
SWIDTH 640 0
DWIDTH 6 0
BBX 5 8 0 0
BITMAP
10
20
00
F8
10
20
40
F8
ENDCHAR
STARTCHAR LATIN CAPITAL LETTER Z WITH DOT ABOVE
ENCODING 379
SWIDTH 640 0
DWIDTH 6 0
BBX 5 9 0 0
BITMAP
20
00
F8
08
10
20
40
80
F8
ENDCHAR
STARTCHAR LATIN SMALL LETTER Z WITH DOT ABOVE
ENCODING 380
SWIDTH 640 0
DWIDTH 6 0
BBX 5 7 0 0
BITMAP
20
00
F8
10
20
40
F8
ENDCHAR
STARTCHAR LATIN CAPITAL LETTER Z WITH CARON
ENCODING 381
SWIDTH 640 0
DWIDTH 6 0
BBX 5 9 0 0
BITMAP
50
20
F8
08
10
20
40
80
F8
ENDCHAR
STARTCHAR LATIN SMALL LETTER Z WITH CARON
ENCODING 382
SWIDTH 640 0
DWIDTH 6 0
BBX 5 8 0 0
BITMAP
50
20
00
F8
10
20
40
F8
ENDCHAR
STARTCHAR LATIN SMALL LETTER LONG S
ENCODING 383
SWIDTH 640 0
DWIDTH 6 0
BBX 4 7 1 0
BITMAP
30
40
C0
40
40
40
40
ENDCHAR
STARTCHAR LATIN SMALL LETTER B WITH STROKE
ENCODING 384
SWIDTH 640 0
DWIDTH 6 0
BBX 6 7 -1 0
BITMAP
F0
40
78
44
44
44
78
ENDCHAR
STARTCHAR LATIN CAPITAL LETTER B WITH HOOK
ENCODING 385
SWIDTH 640 0
DWIDTH 6 0
BBX 6 7 -1 0
BITMAP
F8
44
44
78
44
44
78
ENDCHAR
STARTCHAR LATIN CAPITAL LETTER B WITH TOPBAR
ENCODING 386
SWIDTH 640 0
DWIDTH 6 0
BBX 6 8 0 0
BITMAP
F8
88
80
F8
84
84
84
F8
ENDCHAR
STARTCHAR LATIN SMALL LETTER B WITH TOPBAR
ENCODING 387
SWIDTH 640 0
DWIDTH 6 0
BBX 5 8 0 0
BITMAP
F0
90
80
F0
88
88
88
F0
ENDCHAR
STARTCHAR LATIN CAPITAL LETTER TONE SIX
ENCODING 388
SWIDTH 640 0
DWIDTH 6 0
BBX 8 8 -2 0
BITMAP
60
E0
60
3E
21
21
21
3E
ENDCHAR
STARTCHAR LATIN SMALL LETTER TONE SIX
ENCODING 389
SWIDTH 640 0
DWIDTH 6 0
BBX 7 8 -2 0
BITMAP
60
E0
60
3C
22
22
22
3C
ENDCHAR
STARTCHAR LATIN CAPITAL LETTER OPEN O
ENCODING 390
SWIDTH 640 0
DWIDTH 6 0
BBX 5 7 0 0
BITMAP
F0
08
08
08
08
08
F0
ENDCHAR
STARTCHAR LATIN CAPITAL LETTER C WITH HOOK
ENCODING 391
SWIDTH 640 0
DWIDTH 6 0
BBX 6 8 0 0
BITMAP
04
78
80
80
80
80
80
78
ENDCHAR
STARTCHAR LATIN SMALL LETTER C WITH HOOK
ENCODING 392
SWIDTH 640 0
DWIDTH 6 0
BBX 6 9 0 0
BITMAP
0C
0C
04
08
78
80
80
80
78
ENDCHAR
STARTCHAR LATIN CAPITAL LETTER AFRICAN D
ENCODING 393
SWIDTH 640 0
DWIDTH 6 0
BBX 6 7 -1 0
BITMAP
78
44
44
F4
44
44
78
ENDCHAR
STARTCHAR LATIN CAPITAL LETTER D WITH HOOK
ENCODING 394
SWIDTH 640 0
DWIDTH 6 0
BBX 7 7 -2 0
BITMAP
7C
A2
22
22
22
22
3C
ENDCHAR
STARTCHAR LATIN CAPITAL LETTER D WITH TOPBAR
ENCODING 395
SWIDTH 640 0
DWIDTH 6 0
BBX 6 8 0 0
BITMAP
7C
44
04
7C
84
84
84
7C
ENDCHAR
STARTCHAR LATIN SMALL LETTER D WITH TOPBAR
ENCODING 396
SWIDTH 640 0
DWIDTH 6 0
BBX 5 8 0 0
BITMAP
78
48
08
78
88
88
88
78
ENDCHAR
STARTCHAR LATIN CAPITAL LETTER REVERSED E
ENCODING 398
SWIDTH 640 0
DWIDTH 6 0
BBX 6 7 -1 0
BITMAP
7C
44
84
3C
04
04
7C
ENDCHAR
STARTCHAR LATIN CAPITAL LETTER SCHWA
ENCODING 399
SWIDTH 640 0
DWIDTH 6 0
BBX 5 6 0 0
BITMAP
70
08
F8
88
88
70
ENDCHAR
STARTCHAR LATIN CAPITAL LETTER OPEN E
ENCODING 400
SWIDTH 640 0
DWIDTH 6 0
BBX 5 7 0 0
BITMAP
70
88
80
70
80
88
70
ENDCHAR
STARTCHAR LATIN SMALL LETTER F WITH HOOK
ENCODING 402
SWIDTH 640 0
DWIDTH 6 0
BBX 5 10 0 -1
BITMAP
18
20
20
20
70
20
20
20
20
C0
ENDCHAR
STARTCHAR LATIN CAPITAL LETTER G WITH HOOK
ENCODING 403
SWIDTH 640 0
DWIDTH 6 0
BBX 7 7 0 0
BITMAP
76
8A
80
98
88
88
70
ENDCHAR
STARTCHAR LATIN CAPITAL LETTER I WITH STROKE
ENCODING 407
SWIDTH 640 0
DWIDTH 6 0
BBX 3 7 1 0
BITMAP
E0
40
40
E0
40
40
E0
ENDCHAR
STARTCHAR LATIN SMALL LETTER L WITH BAR
ENCODING 410
SWIDTH 640 0
DWIDTH 6 0
BBX 3 7 1 0
BITMAP
C0
40
40
E0
40
40
60
ENDCHAR
STARTCHAR LATIN SMALL LETTER N WITH LONG RIGHT LEG
ENCODING 414
SWIDTH 640 0
DWIDTH 6 0
BBX 5 8 0 -3
BITMAP
B0
C8
88
88
88
08
08
10
ENDCHAR
STARTCHAR LATIN CAPITAL LETTER O WITH MIDDLE TILDE
ENCODING 415
SWIDTH 640 0
DWIDTH 6 0
BBX 5 5 0 1
BITMAP
70
88
F8
88
70
ENDCHAR
STARTCHAR LATIN CAPITAL LETTER O WITH HORN
ENCODING 416
SWIDTH 640 0
DWIDTH 6 0
BBX 6 10 0 0
BITMAP
0C
0C
04
78
88
88
88
88
88
70
ENDCHAR
STARTCHAR LATIN SMALL LETTER O WITH HORN
ENCODING 417
SWIDTH 640 0
DWIDTH 6 0
BBX 6 9 0 0
BITMAP
0C
0C
04
08
70
88
88
88
70
ENDCHAR
STARTCHAR LATIN CAPITAL LETTER OI
ENCODING 418
SWIDTH 640 0
DWIDTH 6 0
BBX 7 7 0 0
BITMAP
74
8A
8A
8A
8A
8A
72
ENDCHAR
STARTCHAR LATIN SMALL LETTER OI
ENCODING 419
SWIDTH 640 0
DWIDTH 6 0
BBX 7 5 0 0
BITMAP
74
8A
8A
8A
72
ENDCHAR
STARTCHAR LATIN CAPITAL LETTER P WITH HOOK
ENCODING 420
SWIDTH 640 0
DWIDTH 6 0
BBX 7 7 -2 0
BITMAP
FC
A2
22
3C
20
20
20
ENDCHAR
STARTCHAR LATIN SMALL LETTER P WITH HOOK
ENCODING 421
SWIDTH 640 0
DWIDTH 6 0
BBX 7 9 0 -2
BITMAP
06
0A
F0
88
88
88
F0
80
80
ENDCHAR
STARTCHAR LATIN CAPITAL LETTER TONE TWO
ENCODING 423
SWIDTH 640 0
DWIDTH 6 0
BBX 5 7 0 0
BITMAP
F0
08
08
70
80
80
78
ENDCHAR
STARTCHAR LATIN SMALL LETTER TONE TWO
ENCODING 424
SWIDTH 640 0
DWIDTH 6 0
BBX 5 5 0 0
BITMAP
F0
08
70
80
78
ENDCHAR
STARTCHAR LATIN CAPITAL LETTER ESH
ENCODING 425
SWIDTH 640 0
DWIDTH 6 0
BBX 5 7 0 0
BITMAP
F8
88
40
20
40
88
F8
ENDCHAR
STARTCHAR LATIN SMALL LETTER T WITH PALATAL HOOK
ENCODING 427
SWIDTH 640 0
DWIDTH 6 0
BBX 5 9 1 -2
BITMAP
40
40
F0
40
40
40
30
08
10
ENDCHAR
STARTCHAR LATIN CAPITAL LETTER T WITH HOOK
ENCODING 428
SWIDTH 640 0
DWIDTH 6 0
BBX 5 7 0 0
BITMAP
F8
28
20
20
20
20
20
ENDCHAR
STARTCHAR LATIN CAPITAL LETTER T WITH RETROFLEX HOOK
ENCODING 430
SWIDTH 640 0
DWIDTH 6 0
BBX 5 7 0 0
BITMAP
F8
A8
20
20
20
20
20
ENDCHAR
STARTCHAR LATIN CAPITAL LETTER U WITH DIAERESIS AND ACUTE
ENCODING 471
SWIDTH 640 0
DWIDTH 6 0
BBX 5 9 0 0
BITMAP
50
00
88
88
88
88
88
88
78
ENDCHAR
STARTCHAR LATIN CAPITAL LETTER U WITH DIAERESIS AND CARON
ENCODING 473
SWIDTH 640 0
DWIDTH 6 0
BBX 5 12 0 0
BITMAP
50
20
00
50
00
88
88
88
88
88
88
78
ENDCHAR
STARTCHAR LATIN CAPITAL LETTER U WITH DIAERESIS AND GRAVE
ENCODING 475
SWIDTH 640 0
DWIDTH 6 0
BBX 5 12 0 0
BITMAP
20
10
00
50
00
88
88
88
88
88
88
78
ENDCHAR
STARTCHAR LATIN CAPITAL LETTER A WITH DIAERESIS AND MACRON
ENCODING 478
SWIDTH 640 0
DWIDTH 6 0
BBX 5 11 0 0
BITMAP
70
00
50
00
70
88
88
F8
88
88
88
ENDCHAR
STARTCHAR LATIN CAPITAL LETTER A WITH DOT ABOVE AND MACRON
ENCODING 480
SWIDTH 640 0
DWIDTH 6 0
BBX 5 11 0 0
BITMAP
70
00
40
00
70
88
88
F8
88
88
88
ENDCHAR
STARTCHAR LATIN SMALL LETTER TURNED A
ENCODING 592
SWIDTH 533 0
DWIDTH 5 0
BBX 5 5 0 0
BITMAP
B0
C8
88
88
F0
ENDCHAR
STARTCHAR LATIN SMALL LETTER ALPHA
ENCODING 593
SWIDTH 533 0
DWIDTH 5 0
BBX 5 5 0 0
BITMAP
68
98
88
98
68
ENDCHAR
STARTCHAR LATIN SMALL LETTER TURNED ALPHA
ENCODING 594
SWIDTH 533 0
DWIDTH 5 0
BBX 5 5 0 0
BITMAP
B0
C8
88
C8
B0
ENDCHAR
STARTCHAR LATIN SMALL LETTER B WITH HOOK
ENCODING 595
SWIDTH 533 0
DWIDTH 5 0
BBX 5 8 0 0
BITMAP
60
80
80
F0
88
88
88
F0
ENDCHAR
STARTCHAR LATIN SMALL LETTER OPEN O
ENCODING 596
SWIDTH 533 0
DWIDTH 5 0
BBX 5 5 0 0
BITMAP
70
88
08
88
70
ENDCHAR
STARTCHAR LATIN SMALL LETTER C WITH CURL
ENCODING 597
SWIDTH 533 0
DWIDTH 5 0
BBX 5 5 0 0
BITMAP
70
88
90
A8
70
ENDCHAR
STARTCHAR LATIN SMALL LETTER D WITH TAIL
ENCODING 598
SWIDTH 640 0
DWIDTH 6 0
BBX 6 9 0 -2
BITMAP
08
08
78
88
88
88
78
08
04
ENDCHAR
STARTCHAR LATIN SMALL LETTER D WITH HOOK
ENCODING 599
SWIDTH 640 0
DWIDTH 6 0
BBX 6 8 0 0
BITMAP
04
08
08
78
88
88
88
78
ENDCHAR
STARTCHAR LATIN SMALL LETTER REVERSED E
ENCODING 600
SWIDTH 533 0
DWIDTH 5 0
BBX 5 5 0 0
BITMAP
70
88
F8
08
70
ENDCHAR
STARTCHAR LATIN SMALL LETTER SCHWA
ENCODING 601
SWIDTH 533 0
DWIDTH 5 0
BBX 5 5 0 0
BITMAP
70
08
F8
88
70
ENDCHAR
STARTCHAR LATIN SMALL LETTER SCHWA WITH HOOK
ENCODING 602
SWIDTH 640 0
DWIDTH 6 0
BBX 6 5 0 0
BITMAP
74
08
F8
88
70
ENDCHAR
STARTCHAR LATIN SMALL LETTER OPEN E
ENCODING 603
SWIDTH 533 0
DWIDTH 5 0
BBX 5 7 0 0
BITMAP
78
80
80
60
80
80
78
ENDCHAR
STARTCHAR LATIN SMALL LETTER REVERSED OPEN E
ENCODING 604
SWIDTH 533 0
DWIDTH 5 0
BBX 5 7 0 0
BITMAP
F0
08
08
30
08
08
F0
ENDCHAR
STARTCHAR LATIN SMALL LETTER REVERSED OPEN E WITH HOOK
ENCODING 605
SWIDTH 640 0
DWIDTH 6 0
BBX 6 7 0 0
BITMAP
F4
08
08
30
08
08
F0
ENDCHAR
STARTCHAR LATIN SMALL LETTER CLOSED REVERSED OPEN E
ENCODING 606
SWIDTH 533 0
DWIDTH 5 0
BBX 5 7 0 0
BITMAP
70
88
88
B0
88
88
70
ENDCHAR
STARTCHAR LATIN SMALL LETTER DOTLESS J WITH STROKE
ENCODING 607
SWIDTH 426 0
DWIDTH 4 0
BBX 4 7 0 -2
BITMAP
60
20
20
70
20
20
C0
ENDCHAR
STARTCHAR LATIN SMALL LETTER G WITH HOOK
ENCODING 608
SWIDTH 640 0
DWIDTH 6 0
BBX 6 8 0 -2
BITMAP
04
78
88
88
88
78
08
70
ENDCHAR
STARTCHAR LATIN SMALL LETTER SCRIPT G
ENCODING 609
SWIDTH 640 0
DWIDTH 6 0
BBX 5 7 0 -2
BITMAP
78
88
88
88
78
08
70
ENDCHAR
STARTCHAR LATIN LETTER SMALL CAPITAL G
ENCODING 610
SWIDTH 533 0
DWIDTH 5 0
BBX 5 5 0 0
BITMAP
78
80
98
88
78
ENDCHAR
STARTCHAR LATIN SMALL LETTER GAMMA
ENCODING 611
SWIDTH 533 0
DWIDTH 5 0
BBX 5 7 0 -2
BITMAP
88
88
50
50
20
50
20
ENDCHAR
STARTCHAR LATIN SMALL LETTER RAMS HORN
ENCODING 612
SWIDTH 533 0
DWIDTH 5 0
BBX 5 6 0 -1
BITMAP
88
50
50
20
50
20
ENDCHAR
STARTCHAR LATIN SMALL LETTER TURNED H
ENCODING 613
SWIDTH 533 0
DWIDTH 5 0
BBX 5 7 0 0
BITMAP
88
88
88
88
78
08
08
ENDCHAR
STARTCHAR LATIN SMALL LETTER H WITH HOOK
ENCODING 614
SWIDTH 533 0
DWIDTH 5 0
BBX 5 8 0 0
BITMAP
60
80
80
F0
88
88
88
88
ENDCHAR
STARTCHAR LATIN SMALL LETTER HENG WITH HOOK
ENCODING 615
SWIDTH 533 0
DWIDTH 5 0
BBX 5 10 0 -2
BITMAP
60
80
80
F0
88
88
88
88
08
10
ENDCHAR
STARTCHAR LATIN SMALL LETTER I WITH STROKE
ENCODING 616
SWIDTH 426 0
DWIDTH 4 0
BBX 3 7 1 0
BITMAP
40
00
40
40
E0
40
40
ENDCHAR
STARTCHAR LATIN SMALL LETTER IOTA
ENCODING 617
SWIDTH 426 0
DWIDTH 4 0
BBX 2 5 2 0
BITMAP
80
80
80
80
40
ENDCHAR
STARTCHAR LATIN LETTER SMALL CAPITAL I
ENCODING 618
SWIDTH 426 0
DWIDTH 4 0
BBX 4 5 0 0
BITMAP
70
20
20
20
70
ENDCHAR
STARTCHAR LATIN SMALL LETTER L WITH MIDDLE TILDE
ENCODING 619
SWIDTH 533 0
DWIDTH 5 0
BBX 5 7 0 0
BITMAP
20
20
20
68
B0
20
20
ENDCHAR
STARTCHAR LATIN SMALL LETTER L WITH BELT
ENCODING 620
SWIDTH 426 0
DWIDTH 4 0
BBX 4 7 0 0
BITMAP
20
20
60
A0
70
20
20
ENDCHAR
STARTCHAR LATIN SMALL LETTER L WITH RETROFLEX HOOK
ENCODING 621
SWIDTH 426 0
DWIDTH 4 0
BBX 2 7 2 0
BITMAP
80
80
80
80
80
80
40
ENDCHAR
STARTCHAR LATIN SMALL LETTER LEZH
ENCODING 622
SWIDTH 533 0
DWIDTH 5 0
BBX 5 8 0 -1
BITMAP
80
F8
88
90
B0
88
48
30
ENDCHAR
STARTCHAR LATIN SMALL LETTER TURNED M
ENCODING 623
SWIDTH 533 0
DWIDTH 5 0
BBX 5 5 0 0
BITMAP
A8
A8
A8
A8
78
ENDCHAR
STARTCHAR LATIN SMALL LETTER TURNED M WITH LONG LEG
ENCODING 624
SWIDTH 533 0
DWIDTH 5 0
BBX 5 7 0 -2
BITMAP
A8
A8
A8
A8
58
08
08
ENDCHAR
STARTCHAR LATIN SMALL LETTER M WITH HOOK
ENCODING 625
SWIDTH 533 0
DWIDTH 5 0
BBX 5 7 0 -2
BITMAP
D0
A8
A8
A8
A8
08
10
ENDCHAR
STARTCHAR LATIN SMALL LETTER N WITH LEFT HOOK
ENCODING 626
SWIDTH 533 0
DWIDTH 5 0
BBX 5 7 0 -2
BITMAP
50
68
48
48
48
40
80
ENDCHAR
STARTCHAR LATIN SMALL LETTER N WITH RETROFLEX HOOK
ENCODING 627
SWIDTH 533 0
DWIDTH 5 0
BBX 5 7 0 -2
BITMAP
A0
D0
90
90
90
10
08
ENDCHAR
STARTCHAR LATIN LETTER SMALL CAPITAL N
ENCODING 628
SWIDTH 533 0
DWIDTH 5 0
BBX 5 5 0 0
BITMAP
C8
C8
A8
98
98
ENDCHAR
STARTCHAR LATIN SMALL LETTER BARRED O
ENCODING 629
SWIDTH 533 0
DWIDTH 5 0
BBX 5 5 0 0
BITMAP
70
88
F8
88
70
ENDCHAR
STARTCHAR LATIN LETTER SMALL CAPITAL OE
ENCODING 630
SWIDTH 533 0
DWIDTH 5 0
BBX 5 5 0 0
BITMAP
78
A0
B8
A0
78
ENDCHAR
STARTCHAR LATIN SMALL LETTER CLOSED OMEGA
ENCODING 631
SWIDTH 533 0
DWIDTH 5 0
BBX 5 5 0 0
BITMAP
70
88
A8
A8
D8
ENDCHAR
STARTCHAR LATIN SMALL LETTER PHI
ENCODING 632
SWIDTH 533 0
DWIDTH 5 0
BBX 5 9 0 -2
BITMAP
20
20
70
A8
A8
A8
70
20
20
ENDCHAR
STARTCHAR LATIN SMALL LETTER TURNED R
ENCODING 633
SWIDTH 640 0
DWIDTH 6 0
BBX 5 5 0 0
BITMAP
08
08
08
98
68
ENDCHAR
STARTCHAR LATIN SMALL LETTER TURNED R WITH LONG LEG
ENCODING 634
SWIDTH 640 0
DWIDTH 6 0
BBX 5 7 0 0
BITMAP
08
08
08
08
08
98
68
ENDCHAR
STARTCHAR LATIN SMALL LETTER TURNED R WITH HOOK
ENCODING 635
SWIDTH 640 0
DWIDTH 6 0
BBX 6 6 0 -1
BITMAP
08
08
08
98
68
04
ENDCHAR
STARTCHAR LATIN SMALL LETTER R WITH LONG LEG
ENCODING 636
SWIDTH 640 0
DWIDTH 6 0
BBX 5 7 0 0
BITMAP
B0
C8
80
80
80
80
80
ENDCHAR
STARTCHAR LATIN SMALL LETTER R WITH TAIL
ENCODING 637
SWIDTH 640 0
DWIDTH 6 0
BBX 5 8 0 -1
BITMAP
B0
C8
80
80
80
80
80
40
ENDCHAR
STARTCHAR LATIN SMALL LETTER R WITH FISHHOOK
ENCODING 638
SWIDTH 426 0
DWIDTH 4 0
BBX 4 5 0 0
BITMAP
60
90
80
80
80
ENDCHAR
STARTCHAR LATIN SMALL LETTER REVERSED R WITH FISHHOOK
ENCODING 639
SWIDTH 426 0
DWIDTH 4 0
BBX 4 5 0 0
BITMAP
60
90
10
10
10
ENDCHAR
STARTCHAR LATIN LETTER SMALL CAPITAL R
ENCODING 640
SWIDTH 533 0
DWIDTH 5 0
BBX 5 5 0 0
BITMAP
F0
88
F0
90
88
ENDCHAR
STARTCHAR LATIN LETTER SMALL CAPITAL INVERTED R
ENCODING 641
SWIDTH 533 0
DWIDTH 5 0
BBX 5 5 0 0
BITMAP
88
90
F0
88
F0
ENDCHAR
STARTCHAR LATIN SMALL LETTER S WITH HOOK
ENCODING 642
SWIDTH 533 0
DWIDTH 5 0
BBX 5 7 0 -2
BITMAP
78
80
70
08
F0
80
40
ENDCHAR
STARTCHAR LATIN SMALL LETTER ESH
ENCODING 643
SWIDTH 533 0
DWIDTH 5 0
BBX 5 9 0 -1
BITMAP
18
20
20
20
20
20
20
20
C0
ENDCHAR
STARTCHAR LATIN SMALL LETTER DOTLESS J WITH STROKE AND HOOK
ENCODING 644
SWIDTH 533 0
DWIDTH 5 0
BBX 5 9 0 -1
BITMAP
18
20
20
20
20
70
20
20
C0
ENDCHAR
STARTCHAR LATIN SMALL LETTER SQUAT REVERSED ESH
ENCODING 645
SWIDTH 533 0
DWIDTH 5 0
BBX 5 7 0 -1
BITMAP
C0
20
20
20
20
20
18
ENDCHAR
STARTCHAR LATIN SMALL LETTER ESH WITH CURL
ENCODING 646
SWIDTH 533 0
DWIDTH 5 0
BBX 5 9 0 -1
BITMAP
18
20
20
20
20
20
60
B0
48
ENDCHAR
STARTCHAR LATIN SMALL LETTER TURNED T
ENCODING 647
SWIDTH 426 0
DWIDTH 4 0
BBX 4 7 0 0
BITMAP
C0
20
20
20
F0
20
20
ENDCHAR
STARTCHAR LATIN SMALL LETTER T WITH RETROFLEX HOOK
ENCODING 648
SWIDTH 426 0
DWIDTH 4 0
BBX 4 8 0 -1
BITMAP
40
40
F0
40
40
40
40
30
ENDCHAR
STARTCHAR LATIN SMALL LETTER U BAR
ENCODING 649
SWIDTH 533 0
DWIDTH 5 0
BBX 5 5 0 0
BITMAP
88
F8
88
98
68
ENDCHAR
STARTCHAR LATIN SMALL LETTER UPSILON
ENCODING 650
SWIDTH 533 0
DWIDTH 5 0
BBX 5 5 0 0
BITMAP
88
50
88
88
70
ENDCHAR
STARTCHAR LATIN SMALL LETTER V WITH HOOK
ENCODING 651
SWIDTH 533 0
DWIDTH 5 0
BBX 5 5 0 0
BITMAP
B0
88
88
88
70
ENDCHAR
STARTCHAR LATIN SMALL LETTER TURNED V
ENCODING 652
SWIDTH 533 0
DWIDTH 5 0
BBX 5 5 0 0
BITMAP
20
50
50
88
88
ENDCHAR
STARTCHAR LATIN SMALL LETTER TURNED W
ENCODING 653
SWIDTH 533 0
DWIDTH 5 0
BBX 5 5 0 0
BITMAP
50
A8
A8
A8
88
ENDCHAR
STARTCHAR LATIN SMALL LETTER TURNED Y
ENCODING 654
SWIDTH 533 0
DWIDTH 5 0
BBX 5 7 0 -2
BITMAP
70
80
F0
88
88
88
88
ENDCHAR
STARTCHAR LATIN LETTER SMALL CAPITAL Y
ENCODING 655
SWIDTH 533 0
DWIDTH 5 0
BBX 5 5 0 0
BITMAP
88
50
20
20
20
ENDCHAR
STARTCHAR LATIN SMALL LETTER Z WITH RETROFLEX HOOK
ENCODING 656
SWIDTH 533 0
DWIDTH 5 0
BBX 5 7 0 -2
BITMAP
F8
10
20
40
F8
08
10
ENDCHAR
STARTCHAR LATIN SMALL LETTER Z WITH CURL
ENCODING 657
SWIDTH 533 0
DWIDTH 5 0
BBX 5 6 0 -1
BITMAP
F8
10
30
68
F8
20
ENDCHAR
STARTCHAR LATIN SMALL LETTER EZH
ENCODING 658
SWIDTH 533 0
DWIDTH 5 0
BBX 5 7 0 -2
BITMAP
F8
10
20
10
08
88
70
ENDCHAR
STARTCHAR LATIN SMALL LETTER EZH WITH CURL
ENCODING 659
SWIDTH 533 0
DWIDTH 5 0
BBX 5 7 0 -2
BITMAP
F8
10
20
10
68
98
78
ENDCHAR
STARTCHAR LATIN LETTER GLOTTAL STOP
ENCODING 660
SWIDTH 533 0
DWIDTH 5 0
BBX 5 7 0 1
BITMAP
70
88
08
10
20
20
20
ENDCHAR
STARTCHAR LATIN LETTER PHARYNGEAL VOICED FRICATIVE
ENCODING 661
SWIDTH 533 0
DWIDTH 5 0
BBX 5 7 0 1
BITMAP
70
88
80
40
20
20
20
ENDCHAR
STARTCHAR LATIN LETTER INVERTED GLOTTAL STOP
ENCODING 662
SWIDTH 533 0
DWIDTH 5 0
BBX 5 7 0 1
BITMAP
20
20
20
10
08
88
70
ENDCHAR
STARTCHAR LATIN LETTER STRETCHED C
ENCODING 663
SWIDTH 533 0
DWIDTH 5 0
BBX 5 7 0 -2
BITMAP
70
88
80
80
80
88
70
ENDCHAR
STARTCHAR LATIN LETTER BILABIAL CLICK
ENCODING 664
SWIDTH 533 0
DWIDTH 5 0
BBX 5 5 0 0
BITMAP
70
88
A8
88
70
ENDCHAR
STARTCHAR LATIN LETTER SMALL CAPITAL B
ENCODING 665
SWIDTH 533 0
DWIDTH 5 0
BBX 5 5 0 0
BITMAP
F0
88
F0
88
F0
ENDCHAR
STARTCHAR LATIN SMALL LETTER CLOSED OPEN E
ENCODING 666
SWIDTH 533 0
DWIDTH 5 0
BBX 5 5 0 0
BITMAP
70
88
68
88
70
ENDCHAR
STARTCHAR LATIN LETTER SMALL CAPITAL G WITH HOOK
ENCODING 667
SWIDTH 640 0
DWIDTH 6 0
BBX 6 7 0 0
BITMAP
04
08
78
80
98
88
78
ENDCHAR
STARTCHAR LATIN LETTER SMALL CAPITAL H
ENCODING 668
SWIDTH 533 0
DWIDTH 5 0
BBX 5 5 0 0
BITMAP
88
88
F8
88
88
ENDCHAR
STARTCHAR LATIN SMALL LETTER J WITH CROSSED-TAIL
ENCODING 669
SWIDTH 426 0
DWIDTH 4 0
BBX 4 9 0 -2
BITMAP
20
00
60
20
20
20
70
A0
C0
ENDCHAR
STARTCHAR LATIN SMALL LETTER TURNED K
ENCODING 670
SWIDTH 640 0
DWIDTH 6 0
BBX 5 7 0 0
BITMAP
88
48
38
28
48
08
08
ENDCHAR
STARTCHAR LATIN LETTER SMALL CAPITAL L
ENCODING 671
SWIDTH 426 0
DWIDTH 4 0
BBX 4 5 0 0
BITMAP
80
80
80
80
F0
ENDCHAR
STARTCHAR LATIN SMALL LETTER Q WITH HOOK
ENCODING 672
SWIDTH 640 0
DWIDTH 6 0
BBX 6 9 0 -2
BITMAP
04
08
78
88
88
88
78
08
08
ENDCHAR
STARTCHAR LATIN LETTER GLOTTAL STOP WITH STROKE
ENCODING 673
SWIDTH 533 0
DWIDTH 5 0
BBX 5 7 0 1
BITMAP
70
88
08
10
20
70
20
ENDCHAR
STARTCHAR LATIN LETTER REVERSED GLOTTAL STOP WITH STROKE
ENCODING 674
SWIDTH 533 0
DWIDTH 5 0
BBX 5 7 0 1
BITMAP
70
88
80
40
20
70
20
ENDCHAR
STARTCHAR LATIN SMALL LETTER DZ DIGRAPH
ENCODING 675
SWIDTH 640 0
DWIDTH 6 0
BBX 6 7 0 0
BITMAP
20
20
7C
A4
A8
B0
7C
ENDCHAR
STARTCHAR LATIN SMALL LETTER DEZH DIGRAPH
ENCODING 676
SWIDTH 640 0
DWIDTH 6 0
BBX 6 8 0 -1
BITMAP
20
20
7C
A4
A8
A4
74
08
ENDCHAR
STARTCHAR LATIN SMALL LETTER DZ DIGRAPH WITH CURL
ENCODING 677
SWIDTH 640 0
DWIDTH 6 0
BBX 6 8 0 -1
BITMAP
20
20
7C
A4
A8
B4
7C
10
ENDCHAR
STARTCHAR LATIN SMALL LETTER TS DIGRAPH
ENCODING 678
SWIDTH 640 0
DWIDTH 6 0
BBX 6 7 0 0
BITMAP
40
40
FC
60
58
44
38
ENDCHAR
STARTCHAR LATIN SMALL LETTER TESH DIGRAPH
ENCODING 679
SWIDTH 533 0
DWIDTH 5 0
BBX 5 9 0 -2
BITMAP
48
50
F0
50
50
50
30
10
20
ENDCHAR
STARTCHAR LATIN SMALL LETTER TC DIGRAPH WITH CURL
ENCODING 680
SWIDTH 640 0
DWIDTH 6 0
BBX 6 8 0 -1
BITMAP
40
40
EC
50
58
54
3C
10
ENDCHAR
STARTCHAR LATIN SMALL LETTER FENG DIGRAPH
ENCODING 681
SWIDTH 640 0
DWIDTH 6 0
BBX 6 9 0 -2
BITMAP
20
40
40
F8
54
54
54
08
10
ENDCHAR
STARTCHAR LATIN SMALL LETTER LS DIGRAPH
ENCODING 682
SWIDTH 533 0
DWIDTH 5 0
BBX 5 7 0 0
BITMAP
80
80
B8
C0
B0
88
F0
ENDCHAR
STARTCHAR LATIN SMALL LETTER LZ DIGRAPH
ENCODING 683
SWIDTH 533 0
DWIDTH 5 0
BBX 5 7 0 0
BITMAP
80
80
F8
90
A0
C0
F8
ENDCHAR
STARTCHAR LATIN LETTER BILABIAL PERCUSSIVE
ENCODING 684
SWIDTH 533 0
DWIDTH 5 0
BBX 5 6 0 0
BITMAP
A8
A8
50
A8
A8
50
ENDCHAR
STARTCHAR LATIN LETTER BIDENTAL PERCUSSIVE
ENCODING 685
SWIDTH 533 0
DWIDTH 5 0
BBX 5 5 0 0
BITMAP
F8
88
00
F8
88
ENDCHAR
STARTCHAR LATIN SMALL LETTER TURNED H WITH FISHHOOK
ENCODING 686
SWIDTH 533 0
DWIDTH 5 0
BBX 5 7 0 -2
BITMAP
88
48
48
48
38
08
08
ENDCHAR
STARTCHAR LATIN SMALL LETTER TURNED H WITH FISHHOOK AND TAIL
ENCODING 687
SWIDTH 640 0
DWIDTH 6 0
BBX 6 7 0 -2
BITMAP
88
48
48
48
38
08
04
ENDCHAR
STARTCHAR MODIFIER LETTER LEFT ARROWHEAD
ENCODING 706
SWIDTH 640 0
DWIDTH 6 0
BBX 6 5 0 1
BITMAP
0C
30
C0
30
0C
ENDCHAR
STARTCHAR MODIFIER LETTER RIGHT ARROWHEAD
ENCODING 707
SWIDTH 640 0
DWIDTH 6 0
BBX 6 5 0 1
BITMAP
C0
30
0C
30
C0
ENDCHAR
STARTCHAR MODIFIER LETTER UP ARROWHEAD
ENCODING 708
SWIDTH 640 0
DWIDTH 6 0
BBX 5 6 0 1
BITMAP
88
88
50
50
20
20
ENDCHAR
STARTCHAR MODIFIER LETTER DOWN ARROWHEAD
ENCODING 709
SWIDTH 640 0
DWIDTH 6 0
BBX 5 6 0 1
BITMAP
20
20
50
50
88
88
ENDCHAR
STARTCHAR MODIFIER LETTER CIRCUMFLEX ACCENT
ENCODING 710
SWIDTH 640 0
DWIDTH 6 0
BBX 5 3 0 5
BITMAP
20
50
88
ENDCHAR
STARTCHAR CARON
ENCODING 711
SWIDTH 640 0
DWIDTH 6 0
BBX 5 3 0 6
BITMAP
88
50
20
ENDCHAR
STARTCHAR MODIFIER LETTER VERTICAL LINE
ENCODING 712
SWIDTH 640 0
DWIDTH 6 0
BBX 1 2 2 5
BITMAP
80
80
ENDCHAR
STARTCHAR MODIFIER LETTER MACRON
ENCODING 713
SWIDTH 640 0
DWIDTH 6 0
BBX 2 1 1 6
BITMAP
C0
ENDCHAR
STARTCHAR MODIFIER LETTER ACUTE ACCENT
ENCODING 714
SWIDTH 640 0
DWIDTH 6 0
BBX 2 2 2 5
BITMAP
40
80
ENDCHAR
STARTCHAR MODIFIER LETTER GRAVE ACCENT
ENCODING 715
SWIDTH 640 0
DWIDTH 6 0
BBX 2 2 2 5
BITMAP
80
40
ENDCHAR
STARTCHAR BREVE
ENCODING 728
SWIDTH 640 0
DWIDTH 6 0
BBX 5 2 1 6
BITMAP
88
70
ENDCHAR
STARTCHAR DOT ABOVE
ENCODING 729
SWIDTH 640 0
DWIDTH 6 0
BBX 2 2 2 7
BITMAP
C0
C0
ENDCHAR
STARTCHAR RING ABOVE
ENCODING 730
SWIDTH 640 0
DWIDTH 6 0
BBX 3 3 1 5
BITMAP
40
A0
40
ENDCHAR
STARTCHAR OGONEK
ENCODING 731
SWIDTH 640 0
DWIDTH 6 0
BBX 2 3 2 -2
BITMAP
40
80
40
ENDCHAR
STARTCHAR SMALL TILDE
ENCODING 732
SWIDTH 640 0
DWIDTH 6 0
BBX 5 2 0 6
BITMAP
68
B0
ENDCHAR
STARTCHAR DOUBLE ACUTE ACCENT
ENCODING 733
SWIDTH 640 0
DWIDTH 6 0
BBX 4 3 1 6
BITMAP
50
50
A0
ENDCHAR
STARTCHAR MODIFIER LETTER DOUBLE APOSTROPHE
ENCODING 750
SWIDTH 640 0
DWIDTH 6 0
BBX 5 4 0 3
BITMAP
D8
D8
48
90
ENDCHAR
STARTCHAR COMBINING GREEK KORONIS
ENCODING 835
SWIDTH 640 0
DWIDTH 6 0
BBX 2 4 1 3
BITMAP
C0
C0
40
80
ENDCHAR
STARTCHAR COMBINING DOUBLE BREVE BELOW
ENCODING 860
SWIDTH 533 0
DWIDTH 5 0
BBX 5 2 0 -1
BITMAP
88
70
ENDCHAR
STARTCHAR COMBINING DOUBLE INVERTED BREVE
ENCODING 865
SWIDTH 533 0
DWIDTH 5 0
BBX 5 2 0 7
BITMAP
70
88
ENDCHAR
STARTCHAR GREEK CAPITAL LETTER HETA
ENCODING 880
SWIDTH 426 0
DWIDTH 4 0
BBX 4 7 0 0
BITMAP
80
80
80
F0
80
80
80
ENDCHAR
STARTCHAR GREEK SMALL LETTER HETA
ENCODING 881
SWIDTH 533 0
DWIDTH 5 0
BBX 5 6 0 0
BITMAP
80
40
40
78
40
40
ENDCHAR
STARTCHAR GREEK CAPITAL LETTER ARCHAIC SAMPI
ENCODING 882
SWIDTH 533 0
DWIDTH 5 0
BBX 5 7 0 0
BITMAP
F8
A8
A8
20
20
20
20
ENDCHAR
STARTCHAR GREEK SMALL LETTER ARCHAIC SAMPI
ENCODING 883
SWIDTH 533 0
DWIDTH 5 0
BBX 5 5 0 0
BITMAP
F8
A8
20
20
20
ENDCHAR
STARTCHAR GREEK NUMERAL SIGN
ENCODING 884
SWIDTH 426 0
DWIDTH 4 0
BBX 3 2 1 6
BITMAP
60
C0
ENDCHAR
STARTCHAR GREEK LOWER NUMERAL SIGN
ENCODING 885
SWIDTH 426 0
DWIDTH 4 0
BBX 4 3 0 -1
BITMAP
30
60
C0
ENDCHAR
STARTCHAR GREEK CAPITAL LETTER PAMPHYLIAN DIGAMMA
ENCODING 886
SWIDTH 533 0
DWIDTH 5 0
BBX 5 6 0 0
BITMAP
98
98
A8
A8
C8
C8
ENDCHAR
STARTCHAR GREEK SMALL LETTER PAMPHYLIAN DIGAMMA
ENCODING 887
SWIDTH 640 0
DWIDTH 6 0
BBX 6 6 0 -1
BITMAP
88
98
A8
C8
88
04
ENDCHAR
STARTCHAR GREEK YPOGEGRAMMENI
ENCODING 890
SWIDTH 533 0
DWIDTH 5 0
BBX 5 2 -2 -2
BITMAP
10
18
ENDCHAR
STARTCHAR GREEK SMALL REVERSED LUNATE SIGMA SYMBOL
ENCODING 891
SWIDTH 533 0
DWIDTH 5 0
BBX 5 5 0 0
BITMAP
70
88
08
88
70
ENDCHAR
STARTCHAR GREEK SMALL DOTTED LUNATE SIGMA SYMBOL
ENCODING 892
SWIDTH 533 0
DWIDTH 5 0
BBX 5 5 0 0
BITMAP
70
88
A0
88
70
ENDCHAR
STARTCHAR GREEK SMALL REVERSED DOTTED LUNATE SIGMA SYMBOL
ENCODING 893
SWIDTH 533 0
DWIDTH 5 0
BBX 5 5 0 0
BITMAP
70
88
28
88
70
ENDCHAR
STARTCHAR GREEK QUESTION MARK
ENCODING 894
SWIDTH 320 0
DWIDTH 3 0
BBX 3 8 0 -2
BITMAP
60
60
00
00
60
60
20
40
ENDCHAR
STARTCHAR uni037F
ENCODING 895
SWIDTH 640 0
DWIDTH 6 0
BBX 6 3 0 1
BITMAP
FC
FC
FC
ENDCHAR
STARTCHAR uni0380
ENCODING 896
SWIDTH 640 0
DWIDTH 6 0
BBX 6 3 0 1
BITMAP
A8
54
A8
ENDCHAR
STARTCHAR uni0381
ENCODING 897
SWIDTH 640 0
DWIDTH 6 0
BBX 5 3 0 1
BITMAP
A8
00
A8
ENDCHAR
STARTCHAR GREEK TONOS
ENCODING 900
SWIDTH 426 0
DWIDTH 4 0
BBX 2 3 2 5
BITMAP
40
C0
80
ENDCHAR
STARTCHAR GREEK DIALYTIKA TONOS
ENCODING 901
SWIDTH 640 0
DWIDTH 6 0
BBX 6 3 0 5
BITMAP
10
B4
20
ENDCHAR
STARTCHAR GREEK CAPITAL LETTER ALPHA WITH TONOS
ENCODING 902
SWIDTH 533 0
DWIDTH 5 0
BBX 5 9 0 0
BITMAP
40
80
70
88
88
F8
88
88
88
ENDCHAR
STARTCHAR GREEK ANO TELEIA
ENCODING 903
SWIDTH 426 0
DWIDTH 4 0
BBX 2 2 2 3
BITMAP
C0
C0
ENDCHAR
STARTCHAR GREEK CAPITAL LETTER EPSILON WITH TONOS
ENCODING 904
SWIDTH 533 0
DWIDTH 5 0
BBX 5 9 0 0
BITMAP
20
40
F8
80
80
F0
80
80
F8
ENDCHAR
STARTCHAR GREEK CAPITAL LETTER ETA WITH TONOS
ENCODING 905
SWIDTH 533 0
DWIDTH 5 0
BBX 5 8 0 0
BITMAP
20
48
C8
48
78
48
48
48
ENDCHAR
STARTCHAR GREEK CAPITAL LETTER IOTA WITH TONOS
ENCODING 906
SWIDTH 426 0
DWIDTH 4 0
BBX 4 8 0 0
BITMAP
40
F0
20
20
20
20
20
70
ENDCHAR
STARTCHAR GREEK CAPITAL LETTER OMICRON WITH TONOS
ENCODING 908
SWIDTH 533 0
DWIDTH 5 0
BBX 5 8 0 0
BITMAP
40
B0
48
48
48
48
48
30
ENDCHAR
STARTCHAR GREEK CAPITAL LETTER UPSILON WITH TONOS
ENCODING 910
SWIDTH 533 0
DWIDTH 5 0
BBX 5 7 0 0
BITMAP
40
A8
28
28
10
10
10
ENDCHAR
STARTCHAR GREEK CAPITAL LETTER OMEGA WITH TONOS
ENCODING 911
SWIDTH 533 0
DWIDTH 5 0
BBX 5 8 0 0
BITMAP
40
F0
88
88
88
88
50
D8
ENDCHAR
STARTCHAR GREEK SMALL LETTER IOTA WITH DIALYTIKA AND TONOS
ENCODING 912
SWIDTH 640 0
DWIDTH 6 0
BBX 6 9 0 0
BITMAP
10
B4
20
00
20
20
20
20
20
ENDCHAR
STARTCHAR GREEK CAPITAL LETTER ALPHA
ENCODING 913
SWIDTH 640 0
DWIDTH 6 0
BBX 5 7 0 0
BITMAP
70
88
88
F8
88
88
88
ENDCHAR
STARTCHAR GREEK CAPITAL LETTER BETA
ENCODING 914
SWIDTH 640 0
DWIDTH 6 0
BBX 5 7 0 0
BITMAP
F0
88
88
F0
88
88
F0
ENDCHAR
STARTCHAR GREEK CAPITAL LETTER GAMMA
ENCODING 915
SWIDTH 640 0
DWIDTH 6 0
BBX 5 7 0 0
BITMAP
F8
80
80
80
80
80
80
ENDCHAR
STARTCHAR GREEK CAPITAL LETTER DELTA
ENCODING 916
SWIDTH 533 0
DWIDTH 5 0
BBX 5 7 0 0
BITMAP
20
20
50
50
50
88
F8
ENDCHAR
STARTCHAR GREEK CAPITAL LETTER EPSILON
ENCODING 917
SWIDTH 640 0
DWIDTH 6 0
BBX 5 7 0 0
BITMAP
F8
80
80
F0
80
80
F8
ENDCHAR
STARTCHAR GREEK CAPITAL LETTER ZETA
ENCODING 918
SWIDTH 640 0
DWIDTH 6 0
BBX 5 7 0 0
BITMAP
F8
08
10
20
40
80
F8
ENDCHAR
STARTCHAR GREEK CAPITAL LETTER ETA
ENCODING 919
SWIDTH 640 0
DWIDTH 6 0
BBX 5 7 0 0
BITMAP
88
88
88
F8
88
88
88
ENDCHAR
STARTCHAR GREEK CAPITAL LETTER THETA
ENCODING 920
SWIDTH 640 0
DWIDTH 6 0
BBX 5 7 0 0
BITMAP
70
88
88
F8
88
88
70
ENDCHAR
STARTCHAR GREEK CAPITAL LETTER IOTA
ENCODING 921
SWIDTH 426 0
DWIDTH 4 0
BBX 4 7 0 0
BITMAP
70
20
20
20
20
20
70
ENDCHAR
STARTCHAR GREEK CAPITAL LETTER KAPPA
ENCODING 922
SWIDTH 640 0
DWIDTH 6 0
BBX 5 7 0 0
BITMAP
88
90
A0
C0
A0
90
88
ENDCHAR
STARTCHAR GREEK CAPITAL LETTER LAMDA
ENCODING 923
SWIDTH 533 0
DWIDTH 5 0
BBX 5 7 0 0
BITMAP
20
20
50
50
50
88
88
ENDCHAR
STARTCHAR GREEK CAPITAL LETTER MU
ENCODING 924
SWIDTH 640 0
DWIDTH 6 0
BBX 5 7 0 0
BITMAP
88
D8
A8
88
88
88
88
ENDCHAR
STARTCHAR GREEK CAPITAL LETTER NU
ENCODING 925
SWIDTH 533 0
DWIDTH 5 0
BBX 5 6 0 0
BITMAP
C8
C8
A8
A8
98
98
ENDCHAR
STARTCHAR GREEK CAPITAL LETTER XI
ENCODING 926
SWIDTH 640 0
DWIDTH 6 0
BBX 6 7 0 0
BITMAP
FC
00
00
78
00
00
FC
ENDCHAR
STARTCHAR GREEK CAPITAL LETTER OMICRON
ENCODING 927
SWIDTH 533 0
DWIDTH 5 0
BBX 5 7 0 0
BITMAP
70
88
88
88
88
88
70
ENDCHAR
STARTCHAR GREEK CAPITAL LETTER PI
ENCODING 928
SWIDTH 533 0
DWIDTH 5 0
BBX 5 7 0 0
BITMAP
F8
88
88
88
88
88
88
ENDCHAR
STARTCHAR GREEK CAPITAL LETTER RHO
ENCODING 929
SWIDTH 533 0
DWIDTH 5 0
BBX 5 7 0 0
BITMAP
F0
88
88
F0
80
80
80
ENDCHAR
STARTCHAR GREEK CAPITAL LETTER SIGMA
ENCODING 931
SWIDTH 533 0
DWIDTH 5 0
BBX 5 7 0 0
BITMAP
F8
80
40
20
40
80
F8
ENDCHAR
STARTCHAR GREEK CAPITAL LETTER TAU
ENCODING 932
SWIDTH 533 0
DWIDTH 5 0
BBX 5 7 0 0
BITMAP
F8
20
20
20
20
20
20
ENDCHAR
STARTCHAR GREEK CAPITAL LETTER UPSILON
ENCODING 933
SWIDTH 533 0
DWIDTH 5 0
BBX 5 7 0 0
BITMAP
88
88
88
50
20
20
20
ENDCHAR
STARTCHAR GREEK CAPITAL LETTER PHI
ENCODING 934
SWIDTH 533 0
DWIDTH 5 0
BBX 5 7 0 0
BITMAP
20
70
A8
A8
A8
70
20
ENDCHAR
STARTCHAR GREEK CAPITAL LETTER CHI
ENCODING 935
SWIDTH 533 0
DWIDTH 5 0
BBX 5 7 0 0
BITMAP
88
88
50
20
50
88
88
ENDCHAR
STARTCHAR GREEK CAPITAL LETTER PSI
ENCODING 936
SWIDTH 533 0
DWIDTH 5 0
BBX 5 7 0 0
BITMAP
A8
A8
A8
70
20
20
20
ENDCHAR
STARTCHAR GREEK CAPITAL LETTER OMEGA
ENCODING 937
SWIDTH 640 0
DWIDTH 6 0
BBX 5 7 0 0
BITMAP
70
88
88
88
88
50
D8
ENDCHAR
STARTCHAR GREEK CAPITAL LETTER IOTA WITH DIALYTIKA
ENCODING 938
SWIDTH 426 0
DWIDTH 4 0
BBX 4 9 0 0
BITMAP
50
00
20
20
20
20
20
20
20
ENDCHAR
STARTCHAR GREEK CAPITAL LETTER UPSILON WITH DIALYTIKA
ENCODING 939
SWIDTH 533 0
DWIDTH 5 0
BBX 5 9 0 0
BITMAP
50
00
88
88
88
50
20
20
20
ENDCHAR
STARTCHAR GREEK SMALL LETTER ALPHA WITH TONOS
ENCODING 940
SWIDTH 533 0
DWIDTH 5 0
BBX 5 8 0 0
BITMAP
10
20
00
78
88
88
88
78
ENDCHAR
STARTCHAR GREEK SMALL LETTER EPSILON WITH TONOS
ENCODING 941
SWIDTH 426 0
DWIDTH 4 0
BBX 4 8 0 0
BITMAP
20
40
00
70
80
E0
80
70
ENDCHAR
STARTCHAR GREEK SMALL LETTER ETA WITH TONOS
ENCODING 942
SWIDTH 533 0
DWIDTH 5 0
BBX 5 10 0 -2
BITMAP
20
40
00
B0
C8
88
88
88
08
08
ENDCHAR
STARTCHAR GREEK SMALL LETTER IOTA WITH TONOS
ENCODING 943
SWIDTH 426 0
DWIDTH 4 0
BBX 2 8 2 0
BITMAP
40
80
00
80
80
80
80
80
ENDCHAR
STARTCHAR GREEK SMALL LETTER UPSILON WITH DIALYTIKA AND TONOS
ENCODING 944
SWIDTH 640 0
DWIDTH 6 0
BBX 6 8 0 0
BITMAP
10
B4
20
88
88
88
98
68
ENDCHAR
STARTCHAR GREEK SMALL LETTER ALPHA
ENCODING 945
SWIDTH 533 0
DWIDTH 5 0
BBX 5 5 0 0
BITMAP
78
88
88
88
78
ENDCHAR
STARTCHAR GREEK SMALL LETTER BETA
ENCODING 946
SWIDTH 426 0
DWIDTH 4 0
BBX 4 9 0 -2
BITMAP
60
90
90
A0
90
D0
A0
80
80
ENDCHAR
STARTCHAR GREEK SMALL LETTER GAMMA
ENCODING 947
SWIDTH 533 0
DWIDTH 5 0
BBX 5 7 0 -2
BITMAP
88
88
50
50
20
20
20
ENDCHAR
STARTCHAR GREEK SMALL LETTER DELTA
ENCODING 948
SWIDTH 533 0
DWIDTH 5 0
BBX 5 8 0 0
BITMAP
F8
40
20
70
88
88
88
70
ENDCHAR
STARTCHAR GREEK SMALL LETTER EPSILON
ENCODING 949
SWIDTH 426 0
DWIDTH 4 0
BBX 4 5 0 0
BITMAP
70
80
E0
80
70
ENDCHAR
STARTCHAR GREEK SMALL LETTER ZETA
ENCODING 950
SWIDTH 426 0
DWIDTH 4 0
BBX 4 9 0 -2
BITMAP
F0
20
40
80
80
80
60
10
20
ENDCHAR
STARTCHAR GREEK SMALL LETTER ETA
ENCODING 951
SWIDTH 533 0
DWIDTH 5 0
BBX 5 7 0 -2
BITMAP
B0
C8
88
88
88
08
08
ENDCHAR
STARTCHAR GREEK SMALL LETTER THETA
ENCODING 952
SWIDTH 426 0
DWIDTH 4 0
BBX 4 7 0 0
BITMAP
60
90
90
F0
90
90
60
ENDCHAR
STARTCHAR GREEK SMALL LETTER IOTA
ENCODING 953
SWIDTH 320 0
DWIDTH 3 0
BBX 1 5 2 0
BITMAP
80
80
80
80
80
ENDCHAR
STARTCHAR GREEK SMALL LETTER KAPPA
ENCODING 954
SWIDTH 533 0
DWIDTH 5 0
BBX 5 5 0 0
BITMAP
88
90
E0
90
88
ENDCHAR
STARTCHAR GREEK SMALL LETTER LAMDA
ENCODING 955
SWIDTH 533 0
DWIDTH 5 0
BBX 5 8 0 0
BITMAP
40
40
20
20
50
50
88
88
ENDCHAR
STARTCHAR GREEK SMALL LETTER MU
ENCODING 956
SWIDTH 533 0
DWIDTH 5 0
BBX 5 7 0 -2
BITMAP
90
90
90
90
E8
80
80
ENDCHAR
STARTCHAR GREEK SMALL LETTER NU
ENCODING 957
SWIDTH 533 0
DWIDTH 5 0
BBX 5 5 0 0
BITMAP
88
88
50
50
20
ENDCHAR
STARTCHAR GREEK SMALL LETTER XI
ENCODING 958
SWIDTH 426 0
DWIDTH 4 0
BBX 4 9 0 -2
BITMAP
60
90
80
60
80
80
60
10
20
ENDCHAR
STARTCHAR GREEK SMALL LETTER OMICRON
ENCODING 959
SWIDTH 533 0
DWIDTH 5 0
BBX 5 5 0 0
BITMAP
70
88
88
88
70
ENDCHAR
STARTCHAR GREEK SMALL LETTER PI
ENCODING 960
SWIDTH 640 0
DWIDTH 6 0
BBX 5 5 0 0
BITMAP
F8
50
50
50
50
ENDCHAR
STARTCHAR GREEK SMALL LETTER RHO
ENCODING 961
SWIDTH 533 0
DWIDTH 5 0
BBX 5 7 0 -2
BITMAP
70
88
88
88
F0
80
80
ENDCHAR
STARTCHAR GREEK SMALL LETTER FINAL SIGMA
ENCODING 962
SWIDTH 533 0
DWIDTH 5 0
BBX 5 7 0 -2
BITMAP
78
80
80
80
78
08
30
ENDCHAR
STARTCHAR GREEK SMALL LETTER SIGMA
ENCODING 963
SWIDTH 640 0
DWIDTH 6 0
BBX 6 5 0 0
BITMAP
7C
88
88
88
70
ENDCHAR
STARTCHAR GREEK SMALL LETTER TAU
ENCODING 964
SWIDTH 533 0
DWIDTH 5 0
BBX 5 5 0 0
BITMAP
78
A0
20
20
10
ENDCHAR
STARTCHAR GREEK SMALL LETTER UPSILON
ENCODING 965
SWIDTH 533 0
DWIDTH 5 0
BBX 5 5 0 0
BITMAP
88
88
88
88
78
ENDCHAR
STARTCHAR GREEK SMALL LETTER PHI
ENCODING 966
SWIDTH 533 0
DWIDTH 5 0
BBX 5 7 0 -2
BITMAP
B0
A8
A8
A8
70
20
20
ENDCHAR
STARTCHAR GREEK SMALL LETTER CHI
ENCODING 967
SWIDTH 533 0
DWIDTH 5 0
BBX 5 7 0 -2
BITMAP
88
88
50
20
50
88
88
ENDCHAR
STARTCHAR GREEK SMALL LETTER PSI
ENCODING 968
SWIDTH 533 0
DWIDTH 5 0
BBX 5 7 0 -2
BITMAP
A8
A8
A8
70
20
20
20
ENDCHAR
STARTCHAR GREEK SMALL LETTER OMEGA
ENCODING 969
SWIDTH 533 0
DWIDTH 5 0
BBX 5 5 0 0
BITMAP
50
88
A8
A8
50
ENDCHAR
STARTCHAR GREEK SMALL LETTER IOTA WITH DIALYTIKA
ENCODING 970
SWIDTH 426 0
DWIDTH 4 0
BBX 3 7 1 0
BITMAP
A0
00
C0
40
40
40
40
ENDCHAR
STARTCHAR GREEK SMALL LETTER UPSILON WITH DIALYTIKA
ENCODING 971
SWIDTH 533 0
DWIDTH 5 0
BBX 5 7 0 0
BITMAP
50
00
88
88
88
88
78
ENDCHAR
STARTCHAR GREEK SMALL LETTER OMICRON WITH TONOS
ENCODING 972
SWIDTH 533 0
DWIDTH 5 0
BBX 5 8 0 0
BITMAP
20
40
00
70
88
88
88
70
ENDCHAR
STARTCHAR GREEK SMALL LETTER UPSILON WITH TONOS
ENCODING 973
SWIDTH 533 0
DWIDTH 5 0
BBX 5 8 0 0
BITMAP
20
40
00
88
88
88
88
78
ENDCHAR
STARTCHAR GREEK SMALL LETTER OMEGA WITH TONOS
ENCODING 974
SWIDTH 533 0
DWIDTH 5 0
BBX 5 8 0 0
BITMAP
20
40
00
50
88
A8
D8
88
ENDCHAR
STARTCHAR GREEK CAPITAL KAI SYMBOL
ENCODING 975
SWIDTH 640 0
DWIDTH 6 0
BBX 5 8 0 -1
BITMAP
88
90
A0
C0
A0
90
88
10
ENDCHAR
STARTCHAR GREEK BETA SYMBOL
ENCODING 976
SWIDTH 426 0
DWIDTH 4 0
BBX 4 7 0 0
BITMAP
60
90
A0
E0
90
90
60
ENDCHAR
STARTCHAR GREEK THETA SYMBOL
ENCODING 977
SWIDTH 640 0
DWIDTH 6 0
BBX 6 7 0 0
BITMAP
30
48
48
3C
C8
48
30
ENDCHAR
STARTCHAR GREEK UPSILON WITH HOOK SYMBOL
ENCODING 978
SWIDTH 640 0
DWIDTH 6 0
BBX 6 7 0 0
BITMAP
88
8C
88
50
20
20
20
ENDCHAR
STARTCHAR GREEK UPSILON WITH ACUTE AND HOOK SYMBOL
ENCODING 979
SWIDTH 640 0
DWIDTH 6 0
BBX 6 8 0 0
BITMAP
40
88
8C
88
50
20
20
20
ENDCHAR
STARTCHAR GREEK UPSILON WITH DIAERESIS AND HOOK SYMBOL
ENCODING 980
SWIDTH 640 0
DWIDTH 6 0
BBX 6 9 0 0
BITMAP
50
00
88
8C
88
50
20
20
20
ENDCHAR
STARTCHAR GREEK PHI SYMBOL
ENCODING 981
SWIDTH 533 0
DWIDTH 5 0
BBX 5 9 0 -2
BITMAP
20
20
70
A8
A8
A8
70
20
20
ENDCHAR
STARTCHAR GREEK PI SYMBOL
ENCODING 982
SWIDTH 533 0
DWIDTH 5 0
BBX 5 5 0 0
BITMAP
F8
88
A8
D8
88
ENDCHAR
STARTCHAR GREEK KAI SYMBOL
ENCODING 983
SWIDTH 640 0
DWIDTH 6 0
BBX 6 7 0 -2
BITMAP
88
50
70
50
8C
04
08
ENDCHAR
STARTCHAR GREEK LETTER ARCHAIC KOPPA
ENCODING 984
SWIDTH 533 0
DWIDTH 5 0
BBX 5 9 0 -2
BITMAP
70
88
88
88
88
88
70
20
20
ENDCHAR
STARTCHAR GREEK SMALL LETTER ARCHAIC KOPPA
ENCODING 985
SWIDTH 533 0
DWIDTH 5 0
BBX 5 7 0 -2
BITMAP
70
88
88
88
70
20
20
ENDCHAR
STARTCHAR GREEK LETTER STIGMA
ENCODING 986
SWIDTH 533 0
DWIDTH 5 0
BBX 5 9 0 -2
BITMAP
70
88
80
80
80
80
70
08
30
ENDCHAR
STARTCHAR GREEK SMALL LETTER STIGMA
ENCODING 987
SWIDTH 533 0
DWIDTH 5 0
BBX 5 7 0 -2
BITMAP
70
88
80
80
70
08
30
ENDCHAR
STARTCHAR GREEK LETTER DIGAMMA
ENCODING 988
SWIDTH 640 0
DWIDTH 6 0
BBX 5 7 0 0
BITMAP
F8
80
80
F0
90
80
80
ENDCHAR
STARTCHAR GREEK SMALL LETTER DIGAMMA
ENCODING 989
SWIDTH 426 0
DWIDTH 4 0
BBX 4 7 0 -2
BITMAP
F0
80
E0
A0
80
80
80
ENDCHAR
STARTCHAR GREEK LETTER KOPPA
ENCODING 990
SWIDTH 640 0
DWIDTH 6 0
BBX 6 8 0 -2
BITMAP
80
40
48
58
68
48
08
04
ENDCHAR
STARTCHAR GREEK SMALL LETTER KOPPA
ENCODING 991
SWIDTH 426 0
DWIDTH 4 0
BBX 4 7 0 -1
BITMAP
20
40
80
F0
10
20
40
ENDCHAR
STARTCHAR GREEK LETTER SAMPI
ENCODING 992
SWIDTH 426 0
DWIDTH 4 0
BBX 4 9 0 -2
BITMAP
80
40
20
60
90
30
50
10
10
ENDCHAR
STARTCHAR GREEK SMALL LETTER SAMPI
ENCODING 993
SWIDTH 426 0
DWIDTH 4 0
BBX 4 9 0 -2
BITMAP
80
40
20
60
90
30
50
10
10
ENDCHAR
STARTCHAR COPTIC CAPITAL LETTER SHEI
ENCODING 994
SWIDTH 533 0
DWIDTH 5 0
BBX 5 9 0 -2
BITMAP
A8
A8
A8
A8
A8
A8
58
08
F0
ENDCHAR
STARTCHAR COPTIC SMALL LETTER SHEI
ENCODING 995
SWIDTH 533 0
DWIDTH 5 0
BBX 5 7 0 -2
BITMAP
A8
A8
A8
A8
58
08
F0
ENDCHAR
STARTCHAR COPTIC CAPITAL LETTER FEI
ENCODING 996
SWIDTH 533 0
DWIDTH 5 0
BBX 5 7 0 0
BITMAP
68
88
88
78
08
08
08
ENDCHAR
STARTCHAR COPTIC SMALL LETTER FEI
ENCODING 997
SWIDTH 426 0
DWIDTH 4 0
BBX 4 6 0 0
BITMAP
50
90
90
70
10
10
ENDCHAR
STARTCHAR COPTIC CAPITAL LETTER KHEI
ENCODING 998
SWIDTH 533 0
DWIDTH 5 0
BBX 5 9 0 -2
BITMAP
80
80
80
F0
88
88
88
08
F0
ENDCHAR
STARTCHAR COPTIC SMALL LETTER KHEI
ENCODING 999
SWIDTH 533 0
DWIDTH 5 0
BBX 5 7 0 -1
BITMAP
10
70
A8
48
08
70
80
ENDCHAR
STARTCHAR COPTIC CAPITAL LETTER HORI
ENCODING 1000
SWIDTH 533 0
DWIDTH 5 0
BBX 5 7 0 0
BITMAP
70
88
08
70
80
88
70
ENDCHAR
STARTCHAR COPTIC SMALL LETTER HORI
ENCODING 1001
SWIDTH 533 0
DWIDTH 5 0
BBX 5 7 0 0
BITMAP
70
88
08
70
80
80
78
ENDCHAR
STARTCHAR COPTIC CAPITAL LETTER GANGIA
ENCODING 1002
SWIDTH 533 0
DWIDTH 5 0
BBX 5 7 0 0
BITMAP
50
A8
20
50
50
88
F8
ENDCHAR
STARTCHAR COPTIC SMALL LETTER GANGIA
ENCODING 1003
SWIDTH 533 0
DWIDTH 5 0
BBX 5 5 0 0
BITMAP
50
A8
20
50
70
ENDCHAR
STARTCHAR COPTIC CAPITAL LETTER SHIMA
ENCODING 1004
SWIDTH 533 0
DWIDTH 5 0
BBX 5 8 0 0
BITMAP
78
80
F0
88
88
88
88
70
ENDCHAR
STARTCHAR COPTIC SMALL LETTER SHIMA
ENCODING 1005
SWIDTH 533 0
DWIDTH 5 0
BBX 5 7 0 0
BITMAP
70
80
B0
88
88
88
70
ENDCHAR
STARTCHAR COPTIC CAPITAL LETTER DEI
ENCODING 1006
SWIDTH 533 0
DWIDTH 5 0
BBX 5 7 0 0
BITMAP
20
70
A8
20
20
20
20
ENDCHAR
STARTCHAR COPTIC SMALL LETTER DEI
ENCODING 1007
SWIDTH 533 0
DWIDTH 5 0
BBX 5 7 0 0
BITMAP
30
20
F8
A0
20
20
60
ENDCHAR
STARTCHAR GREEK KAPPA SYMBOL
ENCODING 1008
SWIDTH 533 0
DWIDTH 5 0
BBX 5 5 0 0
BITMAP
C8
50
70
50
98
ENDCHAR
STARTCHAR GREEK RHO SYMBOL
ENCODING 1009
SWIDTH 533 0
DWIDTH 5 0
BBX 5 8 0 -3
BITMAP
70
88
88
88
F0
80
70
08
ENDCHAR
STARTCHAR GREEK LUNATE SIGMA SYMBOL
ENCODING 1010
SWIDTH 533 0
DWIDTH 5 0
BBX 5 5 0 0
BITMAP
78
80
80
80
78
ENDCHAR
STARTCHAR GREEK LETTER YOT
ENCODING 1011
SWIDTH 320 0
DWIDTH 3 0
BBX 3 9 0 -2
BITMAP
20
00
20
20
20
20
20
20
C0
ENDCHAR
STARTCHAR GREEK CAPITAL THETA SYMBOL
ENCODING 1012
SWIDTH 533 0
DWIDTH 5 0
BBX 5 7 0 0
BITMAP
70
88
88
F8
88
88
70
ENDCHAR
STARTCHAR GREEK LUNATE EPSILON SYMBOL
ENCODING 1013
SWIDTH 426 0
DWIDTH 4 0
BBX 4 5 0 0
BITMAP
70
80
E0
80
70
ENDCHAR
STARTCHAR GREEK REVERSED LUNATE EPSILON SYMBOL
ENCODING 1014
SWIDTH 426 0
DWIDTH 4 0
BBX 4 5 0 0
BITMAP
E0
10
70
10
E0
ENDCHAR
STARTCHAR GREEK CAPITAL LETTER SHO
ENCODING 1015
SWIDTH 533 0
DWIDTH 5 0
BBX 5 7 0 0
BITMAP
80
F0
88
88
88
F0
80
ENDCHAR
STARTCHAR GREEK SMALL LETTER SHO
ENCODING 1016
SWIDTH 533 0
DWIDTH 5 0
BBX 5 9 0 -2
BITMAP
80
80
F0
88
88
88
F0
80
80
ENDCHAR
STARTCHAR GREEK CAPITAL LUNATE SIGMA SYMBOL
ENCODING 1017
SWIDTH 533 0
DWIDTH 5 0
BBX 5 7 0 0
BITMAP
78
80
80
80
80
80
78
ENDCHAR
STARTCHAR GREEK CAPITAL LETTER SAN
ENCODING 1018
SWIDTH 533 0
DWIDTH 5 0
BBX 5 7 0 0
BITMAP
88
D8
A8
88
88
88
88
ENDCHAR
STARTCHAR GREEK SMALL LETTER SAN
ENCODING 1019
SWIDTH 533 0
DWIDTH 5 0
BBX 5 6 0 -2
BITMAP
88
D8
A8
A8
80
80
ENDCHAR
STARTCHAR GREEK RHO WITH STROKE SYMBOL
ENCODING 1020
SWIDTH 533 0
DWIDTH 5 0
BBX 5 8 0 -3
BITMAP
70
88
88
88
F0
80
C0
80
ENDCHAR
STARTCHAR GREEK CAPITAL REVERSED LUNATE SIGMA SYMBOL
ENCODING 1021
SWIDTH 533 0
DWIDTH 5 0
BBX 5 7 0 0
BITMAP
70
88
08
08
08
88
70
ENDCHAR
STARTCHAR GREEK CAPITAL DOTTED LUNATE SIGMA SYMBOL
ENCODING 1022
SWIDTH 533 0
DWIDTH 5 0
BBX 5 7 0 0
BITMAP
78
80
80
A0
80
80
78
ENDCHAR
STARTCHAR GREEK CAPITAL REVERSED DOTTED LUNATE SIGMA SYMBOL
ENCODING 1023
SWIDTH 533 0
DWIDTH 5 0
BBX 5 7 0 0
BITMAP
F0
08
08
28
08
08
F0
ENDCHAR
STARTCHAR CYRILLIC CAPITAL LETTER IO
ENCODING 1025
SWIDTH 640 0
DWIDTH 6 0
BBX 5 9 0 0
BITMAP
50
00
F8
80
80
F0
80
80
F8
ENDCHAR
STARTCHAR CYRILLIC CAPITAL LETTER DJE
ENCODING 1026
SWIDTH 640 0
DWIDTH 6 0
BBX 5 8 0 -1
BITMAP
F0
40
70
48
48
48
48
10
ENDCHAR
STARTCHAR CYRILLIC CAPITAL LETTER GJE
ENCODING 1027
SWIDTH 640 0
DWIDTH 6 0
BBX 4 9 1 0
BITMAP
20
40
F0
80
80
80
80
80
80
ENDCHAR
STARTCHAR CYRILLIC CAPITAL LETTER UKRAINIAN IE
ENCODING 1028
SWIDTH 640 0
DWIDTH 6 0
BBX 5 7 0 0
BITMAP
70
88
80
E0
80
88
70
ENDCHAR
STARTCHAR CYRILLIC CAPITAL LETTER DZE
ENCODING 1029
SWIDTH 640 0
DWIDTH 6 0
BBX 5 7 0 0
BITMAP
78
80
80
70
08
08
F0
ENDCHAR
STARTCHAR CYRILLIC CAPITAL LETTER BYELORUSSIAN-UKRAINIAN I
ENCODING 1030
SWIDTH 640 0
DWIDTH 6 0
BBX 1 7 2 0
BITMAP
80
80
80
80
80
80
80
ENDCHAR
STARTCHAR CYRILLIC CAPITAL LETTER YI
ENCODING 1031
SWIDTH 640 0
DWIDTH 6 0
BBX 3 9 1 0
BITMAP
A0
00
40
40
40
40
40
40
40
ENDCHAR
STARTCHAR CYRILLIC CAPITAL LETTER JE
ENCODING 1032
SWIDTH 640 0
DWIDTH 6 0
BBX 5 7 0 0
BITMAP
08
08
08
08
88
88
70
ENDCHAR
STARTCHAR CYRILLIC CAPITAL LETTER LJE
ENCODING 1033
SWIDTH 640 0
DWIDTH 6 0
BBX 6 7 0 0
BITMAP
30
50
50
58
54
54
98
ENDCHAR
STARTCHAR CYRILLIC CAPITAL LETTER NJE
ENCODING 1034
SWIDTH 640 0
DWIDTH 6 0
BBX 5 7 0 0
BITMAP
A0
A0
A0
F0
A8
A8
B0
ENDCHAR
STARTCHAR CYRILLIC CAPITAL LETTER TSHE
ENCODING 1035
SWIDTH 640 0
DWIDTH 6 0
BBX 5 7 0 0
BITMAP
F0
40
70
48
48
48
48
ENDCHAR
STARTCHAR CYRILLIC CAPITAL LETTER KJE
ENCODING 1036
SWIDTH 640 0
DWIDTH 6 0
BBX 5 9 0 0
BITMAP
10
20
88
90
A0
C0
A0
90
88
ENDCHAR
STARTCHAR CYRILLIC CAPITAL LETTER SHORT U
ENCODING 1038
SWIDTH 640 0
DWIDTH 6 0
BBX 5 9 0 0
BITMAP
50
20
88
88
88
78
08
88
70
ENDCHAR
STARTCHAR CYRILLIC CAPITAL LETTER DZHE
ENCODING 1039
SWIDTH 640 0
DWIDTH 6 0
BBX 5 9 0 -2
BITMAP
88
88
88
88
88
88
F8
20
20
ENDCHAR
STARTCHAR CYRILLIC CAPITAL LETTER A
ENCODING 1040
SWIDTH 640 0
DWIDTH 6 0
BBX 5 7 0 0
BITMAP
70
88
88
F8
88
88
88
ENDCHAR
STARTCHAR CYRILLIC CAPITAL LETTER BE
ENCODING 1041
SWIDTH 640 0
DWIDTH 6 0
BBX 5 7 0 0
BITMAP
F0
80
80
F0
88
88
F0
ENDCHAR
STARTCHAR CYRILLIC CAPITAL LETTER VE
ENCODING 1042
SWIDTH 640 0
DWIDTH 6 0
BBX 5 7 0 0
BITMAP
F0
88
88
F0
88
88
F0
ENDCHAR
STARTCHAR CYRILLIC CAPITAL LETTER GHE
ENCODING 1043
SWIDTH 640 0
DWIDTH 6 0
BBX 4 7 1 0
BITMAP
F0
80
80
80
80
80
80
ENDCHAR
STARTCHAR CYRILLIC CAPITAL LETTER DE
ENCODING 1044
SWIDTH 640 0
DWIDTH 6 0
BBX 6 9 0 -2
BITMAP
38
48
48
48
48
48
FC
84
84
ENDCHAR
STARTCHAR CYRILLIC CAPITAL LETTER IE
ENCODING 1045
SWIDTH 640 0
DWIDTH 6 0
BBX 5 7 0 0
BITMAP
F8
80
80
F0
80
80
F8
ENDCHAR
STARTCHAR CYRILLIC CAPITAL LETTER ZHE
ENCODING 1046
SWIDTH 640 0
DWIDTH 6 0
BBX 5 7 0 0
BITMAP
A8
A8
A8
70
A8
A8
A8
ENDCHAR
STARTCHAR CYRILLIC CAPITAL LETTER ZE
ENCODING 1047
SWIDTH 640 0
DWIDTH 6 0
BBX 5 7 0 0
BITMAP
70
88
08
30
08
88
70
ENDCHAR
STARTCHAR CYRILLIC CAPITAL LETTER I
ENCODING 1048
SWIDTH 640 0
DWIDTH 6 0
BBX 5 7 0 0
BITMAP
88
88
98
A8
C8
88
88
ENDCHAR
STARTCHAR CYRILLIC CAPITAL LETTER SHORT I
ENCODING 1049
SWIDTH 640 0
DWIDTH 6 0
BBX 5 9 0 0
BITMAP
50
20
88
88
98
A8
C8
88
88
ENDCHAR
STARTCHAR CYRILLIC CAPITAL LETTER KA
ENCODING 1050
SWIDTH 640 0
DWIDTH 6 0
BBX 5 7 0 0
BITMAP
88
90
A0
C0
A0
90
88
ENDCHAR
STARTCHAR CYRILLIC CAPITAL LETTER EL
ENCODING 1051
SWIDTH 640 0
DWIDTH 6 0
BBX 5 7 0 0
BITMAP
38
48
48
48
48
48
88
ENDCHAR
STARTCHAR CYRILLIC CAPITAL LETTER EM
ENCODING 1052
SWIDTH 640 0
DWIDTH 6 0
BBX 5 7 0 0
BITMAP
88
D8
A8
88
88
88
88
ENDCHAR
STARTCHAR CYRILLIC CAPITAL LETTER EN
ENCODING 1053
SWIDTH 640 0
DWIDTH 6 0
BBX 5 7 0 0
BITMAP
88
88
88
F8
88
88
88
ENDCHAR
STARTCHAR CYRILLIC CAPITAL LETTER O
ENCODING 1054
SWIDTH 640 0
DWIDTH 6 0
BBX 5 7 0 0
BITMAP
70
88
88
88
88
88
70
ENDCHAR
STARTCHAR CYRILLIC CAPITAL LETTER PE
ENCODING 1055
SWIDTH 640 0
DWIDTH 6 0
BBX 5 7 0 0
BITMAP
F8
88
88
88
88
88
88
ENDCHAR
STARTCHAR CYRILLIC CAPITAL LETTER ER
ENCODING 1056
SWIDTH 640 0
DWIDTH 6 0
BBX 5 7 0 0
BITMAP
F0
88
88
F0
80
80
80
ENDCHAR
STARTCHAR CYRILLIC CAPITAL LETTER ES
ENCODING 1057
SWIDTH 640 0
DWIDTH 6 0
BBX 5 7 0 0
BITMAP
78
80
80
80
80
80
78
ENDCHAR
STARTCHAR CYRILLIC CAPITAL LETTER TE
ENCODING 1058
SWIDTH 640 0
DWIDTH 6 0
BBX 5 7 0 0
BITMAP
F8
20
20
20
20
20
20
ENDCHAR
STARTCHAR CYRILLIC CAPITAL LETTER U
ENCODING 1059
SWIDTH 640 0
DWIDTH 6 0
BBX 5 7 0 0
BITMAP
88
88
88
78
08
88
70
ENDCHAR
STARTCHAR CYRILLIC CAPITAL LETTER EF
ENCODING 1060
SWIDTH 640 0
DWIDTH 6 0
BBX 5 7 0 0
BITMAP
20
70
A8
A8
A8
70
20
ENDCHAR
STARTCHAR CYRILLIC CAPITAL LETTER HA
ENCODING 1061
SWIDTH 640 0
DWIDTH 6 0
BBX 5 7 0 0
BITMAP
88
50
20
20
20
50
88
ENDCHAR
STARTCHAR CYRILLIC CAPITAL LETTER TSE
ENCODING 1062
SWIDTH 640 0
DWIDTH 6 0
BBX 6 9 0 -2
BITMAP
88
88
88
88
88
88
FC
04
04
ENDCHAR
STARTCHAR CYRILLIC CAPITAL LETTER CHE
ENCODING 1063
SWIDTH 640 0
DWIDTH 6 0
BBX 5 7 0 0
BITMAP
88
88
88
78
08
08
08
ENDCHAR
STARTCHAR CYRILLIC CAPITAL LETTER SHA
ENCODING 1064
SWIDTH 640 0
DWIDTH 6 0
BBX 5 7 0 0
BITMAP
A8
A8
A8
A8
A8
A8
F8
ENDCHAR
STARTCHAR CYRILLIC CAPITAL LETTER SHCHA
ENCODING 1065
SWIDTH 640 0
DWIDTH 6 0
BBX 6 9 0 -2
BITMAP
A8
A8
A8
A8
A8
A8
FC
04
04
ENDCHAR
STARTCHAR CYRILLIC CAPITAL LETTER HARD SIGN
ENCODING 1066
SWIDTH 640 0
DWIDTH 6 0
BBX 5 7 0 0
BITMAP
C0
40
40
70
48
48
70
ENDCHAR
STARTCHAR CYRILLIC CAPITAL LETTER YERU
ENCODING 1067
SWIDTH 640 0
DWIDTH 6 0
BBX 5 7 0 0
BITMAP
88
88
88
E8
98
98
E8
ENDCHAR
STARTCHAR CYRILLIC CAPITAL LETTER SOFT SIGN
ENCODING 1068
SWIDTH 640 0
DWIDTH 6 0
BBX 5 7 0 0
BITMAP
80
80
80
F0
88
88
F0
ENDCHAR
STARTCHAR CYRILLIC CAPITAL LETTER E
ENCODING 1069
SWIDTH 640 0
DWIDTH 6 0
BBX 5 7 0 0
BITMAP
70
88
08
78
08
88
70
ENDCHAR
STARTCHAR CYRILLIC CAPITAL LETTER YU
ENCODING 1070
SWIDTH 640 0
DWIDTH 6 0
BBX 5 7 0 0
BITMAP
90
A8
A8
E8
A8
A8
90
ENDCHAR
STARTCHAR CYRILLIC CAPITAL LETTER YA
ENCODING 1071
SWIDTH 640 0
DWIDTH 6 0
BBX 5 7 0 0
BITMAP
38
48
48
38
28
48
88
ENDCHAR
STARTCHAR CYRILLIC SMALL LETTER A
ENCODING 1072
SWIDTH 640 0
DWIDTH 6 0
BBX 5 5 0 0
BITMAP
78
88
88
98
68
ENDCHAR
STARTCHAR CYRILLIC SMALL LETTER BE
ENCODING 1073
SWIDTH 640 0
DWIDTH 6 0
BBX 5 8 0 0
BITMAP
08
70
80
F0
88
88
88
70
ENDCHAR
STARTCHAR CYRILLIC SMALL LETTER VE
ENCODING 1074
SWIDTH 640 0
DWIDTH 6 0
BBX 5 5 0 0
BITMAP
F0
88
F0
88
F0
ENDCHAR
STARTCHAR CYRILLIC SMALL LETTER GHE
ENCODING 1075
SWIDTH 640 0
DWIDTH 6 0
BBX 4 5 1 0
BITMAP
F0
80
80
80
80
ENDCHAR
STARTCHAR CYRILLIC SMALL LETTER DE
ENCODING 1076
SWIDTH 640 0
DWIDTH 6 0
BBX 6 7 0 -2
BITMAP
38
48
48
48
FC
84
84
ENDCHAR
STARTCHAR CYRILLIC SMALL LETTER IE
ENCODING 1077
SWIDTH 640 0
DWIDTH 6 0
BBX 5 5 0 0
BITMAP
70
88
F8
80
78
ENDCHAR
STARTCHAR CYRILLIC SMALL LETTER ZHE
ENCODING 1078
SWIDTH 640 0
DWIDTH 6 0
BBX 5 5 0 0
BITMAP
A8
A8
70
A8
A8
ENDCHAR
STARTCHAR CYRILLIC SMALL LETTER ZE
ENCODING 1079
SWIDTH 640 0
DWIDTH 6 0
BBX 5 5 0 0
BITMAP
70
88
30
88
70
ENDCHAR
STARTCHAR CYRILLIC SMALL LETTER I
ENCODING 1080
SWIDTH 640 0
DWIDTH 6 0
BBX 5 5 0 0
BITMAP
88
98
A8
C8
88
ENDCHAR
STARTCHAR CYRILLIC SMALL LETTER SHORT I
ENCODING 1081
SWIDTH 640 0
DWIDTH 6 0
BBX 5 7 0 0
BITMAP
50
20
88
98
A8
C8
88
ENDCHAR
STARTCHAR CYRILLIC SMALL LETTER KA
ENCODING 1082
SWIDTH 640 0
DWIDTH 6 0
BBX 5 5 0 0
BITMAP
88
90
E0
90
88
ENDCHAR
STARTCHAR CYRILLIC SMALL LETTER EL
ENCODING 1083
SWIDTH 640 0
DWIDTH 6 0
BBX 5 5 0 0
BITMAP
38
48
48
48
88
ENDCHAR
STARTCHAR CYRILLIC SMALL LETTER EM
ENCODING 1084
SWIDTH 640 0
DWIDTH 6 0
BBX 5 5 0 0
BITMAP
88
D8
A8
88
88
ENDCHAR
STARTCHAR CYRILLIC SMALL LETTER EN
ENCODING 1085
SWIDTH 640 0
DWIDTH 6 0
BBX 5 5 0 0
BITMAP
88
88
F8
88
88
ENDCHAR
STARTCHAR CYRILLIC SMALL LETTER O
ENCODING 1086
SWIDTH 640 0
DWIDTH 6 0
BBX 5 5 0 0
BITMAP
70
88
88
88
70
ENDCHAR
STARTCHAR CYRILLIC SMALL LETTER PE
ENCODING 1087
SWIDTH 640 0
DWIDTH 6 0
BBX 5 5 0 0
BITMAP
F8
88
88
88
88
ENDCHAR
STARTCHAR CYRILLIC SMALL LETTER ER
ENCODING 1088
SWIDTH 640 0
DWIDTH 6 0
BBX 5 7 0 -2
BITMAP
F0
88
88
88
F0
80
80
ENDCHAR
STARTCHAR CYRILLIC SMALL LETTER ES
ENCODING 1089
SWIDTH 640 0
DWIDTH 6 0
BBX 5 5 0 0
BITMAP
70
88
80
88
70
ENDCHAR
STARTCHAR CYRILLIC SMALL LETTER TE
ENCODING 1090
SWIDTH 640 0
DWIDTH 6 0
BBX 5 5 0 0
BITMAP
F8
20
20
20
20
ENDCHAR
STARTCHAR CYRILLIC SMALL LETTER U
ENCODING 1091
SWIDTH 640 0
DWIDTH 6 0
BBX 5 7 0 -2
BITMAP
88
88
88
88
78
08
70
ENDCHAR
STARTCHAR CYRILLIC SMALL LETTER EF
ENCODING 1092
SWIDTH 640 0
DWIDTH 6 0
BBX 5 9 0 -2
BITMAP
20
20
70
A8
A8
A8
70
20
20
ENDCHAR
STARTCHAR CYRILLIC SMALL LETTER HA
ENCODING 1093
SWIDTH 640 0
DWIDTH 6 0
BBX 5 5 0 0
BITMAP
88
50
20
50
88
ENDCHAR
STARTCHAR CYRILLIC SMALL LETTER TSE
ENCODING 1094
SWIDTH 640 0
DWIDTH 6 0
BBX 6 7 0 -2
BITMAP
88
88
88
88
FC
04
04
ENDCHAR
STARTCHAR CYRILLIC SMALL LETTER CHE
ENCODING 1095
SWIDTH 640 0
DWIDTH 6 0
BBX 5 5 0 0
BITMAP
88
88
78
08
08
ENDCHAR
STARTCHAR CYRILLIC SMALL LETTER SHA
ENCODING 1096
SWIDTH 640 0
DWIDTH 6 0
BBX 5 5 0 0
BITMAP
A8
A8
A8
A8
F8
ENDCHAR
STARTCHAR CYRILLIC SMALL LETTER SHCHA
ENCODING 1097
SWIDTH 640 0
DWIDTH 6 0
BBX 6 7 0 -2
BITMAP
A8
A8
A8
A8
FC
04
04
ENDCHAR
STARTCHAR CYRILLIC SMALL LETTER HARD SIGN
ENCODING 1098
SWIDTH 640 0
DWIDTH 6 0
BBX 5 5 0 0
BITMAP
C0
40
70
48
70
ENDCHAR
STARTCHAR CYRILLIC SMALL LETTER YERU
ENCODING 1099
SWIDTH 640 0
DWIDTH 6 0
BBX 5 5 0 0
BITMAP
88
88
E8
98
E8
ENDCHAR
STARTCHAR CYRILLIC SMALL LETTER SOFT SIGN
ENCODING 1100
SWIDTH 640 0
DWIDTH 6 0
BBX 5 5 0 0
BITMAP
80
80
F0
88
F0
ENDCHAR
STARTCHAR CYRILLIC SMALL LETTER E
ENCODING 1101
SWIDTH 640 0
DWIDTH 6 0
BBX 5 5 0 0
BITMAP
F0
08
78
08
F0
ENDCHAR
STARTCHAR CYRILLIC SMALL LETTER YU
ENCODING 1102
SWIDTH 640 0
DWIDTH 6 0
BBX 5 5 0 0
BITMAP
90
A8
E8
A8
90
ENDCHAR
STARTCHAR CYRILLIC SMALL LETTER YA
ENCODING 1103
SWIDTH 640 0
DWIDTH 6 0
BBX 5 5 0 0
BITMAP
78
88
78
48
88
ENDCHAR
STARTCHAR CYRILLIC SMALL LETTER IO
ENCODING 1105
SWIDTH 640 0
DWIDTH 6 0
BBX 5 7 0 0
BITMAP
50
00
70
88
F8
80
78
ENDCHAR
STARTCHAR CYRILLIC SMALL LETTER DJE
ENCODING 1106
SWIDTH 640 0
DWIDTH 6 0
BBX 5 8 0 -1
BITMAP
40
40
F0
40
70
48
48
10
ENDCHAR
STARTCHAR CYRILLIC SMALL LETTER GJE
ENCODING 1107
SWIDTH 640 0
DWIDTH 6 0
BBX 4 8 1 0
BITMAP
20
40
00
F0
80
80
80
80
ENDCHAR
STARTCHAR CYRILLIC SMALL LETTER UKRAINIAN IE
ENCODING 1108
SWIDTH 640 0
DWIDTH 6 0
BBX 5 5 0 0
BITMAP
70
88
E0
80
78
ENDCHAR
STARTCHAR CYRILLIC SMALL LETTER DZE
ENCODING 1109
SWIDTH 640 0
DWIDTH 6 0
BBX 5 5 0 0
BITMAP
78
80
70
08
F0
ENDCHAR
STARTCHAR CYRILLIC SMALL LETTER BYELORUSSIAN-UKRAINIAN I
ENCODING 1110
SWIDTH 640 0
DWIDTH 6 0
BBX 1 7 2 0
BITMAP
80
00
80
80
80
80
80
ENDCHAR
STARTCHAR CYRILLIC SMALL LETTER YI
ENCODING 1111
SWIDTH 640 0
DWIDTH 6 0
BBX 3 7 1 0
BITMAP
A0
00
40
40
40
40
40
ENDCHAR
STARTCHAR CYRILLIC SMALL LETTER JE
ENCODING 1112
SWIDTH 640 0
DWIDTH 6 0
BBX 3 9 0 -2
BITMAP
20
00
20
20
20
20
20
20
C0
ENDCHAR
STARTCHAR CYRILLIC SMALL LETTER LJE
ENCODING 1113
SWIDTH 640 0
DWIDTH 6 0
BBX 6 5 0 0
BITMAP
30
50
58
54
98
ENDCHAR
STARTCHAR CYRILLIC SMALL LETTER NJE
ENCODING 1114
SWIDTH 640 0
DWIDTH 6 0
BBX 5 5 0 0
BITMAP
A0
A0
F0
A8
B0
ENDCHAR
STARTCHAR CYRILLIC SMALL LETTER TSHE
ENCODING 1115
SWIDTH 640 0
DWIDTH 6 0
BBX 5 7 0 0
BITMAP
40
40
F0
40
70
48
48
ENDCHAR
STARTCHAR CYRILLIC SMALL LETTER KJE
ENCODING 1116
SWIDTH 640 0
DWIDTH 6 0
BBX 5 8 0 0
BITMAP
10
20
00
88
90
E0
90
88
ENDCHAR
STARTCHAR CYRILLIC SMALL LETTER SHORT U
ENCODING 1118
SWIDTH 640 0
DWIDTH 6 0
BBX 5 9 0 -2
BITMAP
50
20
88
88
88
88
78
08
70
ENDCHAR
STARTCHAR CYRILLIC SMALL LETTER DZHE
ENCODING 1119
SWIDTH 640 0
DWIDTH 6 0
BBX 5 7 0 -2
BITMAP
88
88
88
88
F8
20
20
ENDCHAR
STARTCHAR CYRILLIC CAPITAL LETTER GHE WITH UPTURN
ENCODING 1168
SWIDTH 640 0
DWIDTH 6 0
BBX 4 9 1 0
BITMAP
10
10
F0
80
80
80
80
80
80
ENDCHAR
STARTCHAR CYRILLIC SMALL LETTER GHE WITH UPTURN
ENCODING 1169
SWIDTH 640 0
DWIDTH 6 0
BBX 4 7 1 0
BITMAP
10
10
F0
80
80
80
80
ENDCHAR
STARTCHAR NKO COMMA
ENCODING 2040
SWIDTH 640 0
DWIDTH 6 0
BBX 6 4 0 -2
BITMAP
FC
FC
FC
FC
ENDCHAR
STARTCHAR NKO EXCLAMATION MARK
ENCODING 2041
SWIDTH 640 0
DWIDTH 6 0
BBX 6 4 0 -2
BITMAP
54
A8
54
A8
ENDCHAR
STARTCHAR NKO LAJANYALAN
ENCODING 2042
SWIDTH 640 0
DWIDTH 6 0
BBX 5 9 0 -2
BITMAP
A8
00
A8
00
A8
00
A8
00
A8
ENDCHAR
STARTCHAR KANNADA LETTER TTHA
ENCODING 3232
SWIDTH 640 0
DWIDTH 6 0
BBX 6 7 0 0
BITMAP
18
04
F8
44
54
44
38
ENDCHAR
STARTCHAR HYPHEN
ENCODING 8208
SWIDTH 640 0
DWIDTH 6 0
BBX 3 1 1 3
BITMAP
E0
ENDCHAR
STARTCHAR NON-BREAKING HYPHEN
ENCODING 8209
SWIDTH 640 0
DWIDTH 6 0
BBX 3 1 1 3
BITMAP
E0
ENDCHAR
STARTCHAR FIGURE DASH
ENCODING 8210
SWIDTH 640 0
DWIDTH 6 0
BBX 4 1 1 3
BITMAP
F0
ENDCHAR
STARTCHAR EN DASH
ENCODING 8211
SWIDTH 640 0
DWIDTH 6 0
BBX 4 1 1 3
BITMAP
F0
ENDCHAR
STARTCHAR EM DASH
ENCODING 8212
SWIDTH 640 0
DWIDTH 6 0
BBX 6 1 0 3
BITMAP
FC
ENDCHAR
STARTCHAR HORIZONTAL BAR
ENCODING 8213
SWIDTH 640 0
DWIDTH 6 0
BBX 7 1 0 3
BITMAP
FE
ENDCHAR
STARTCHAR DOUBLE LOW LINE
ENCODING 8215
SWIDTH 640 0
DWIDTH 6 0
BBX 5 1 0 0
BITMAP
F8
ENDCHAR
STARTCHAR LEFT SINGLE QUOTATION MARK
ENCODING 8216
SWIDTH 640 0
DWIDTH 6 0
BBX 2 3 2 4
BITMAP
40
80
C0
ENDCHAR
STARTCHAR RIGHT SINGLE QUOTATION MARK
ENCODING 8217
SWIDTH 640 0
DWIDTH 6 0
BBX 2 3 2 4
BITMAP
C0
40
80
ENDCHAR
STARTCHAR SINGLE LOW-9 QUOTATION MARK
ENCODING 8218
SWIDTH 640 0
DWIDTH 6 0
BBX 2 4 2 -2
BITMAP
C0
C0
40
80
ENDCHAR
STARTCHAR SINGLE HIGH-REVERSED-9 QUOTATION MARK
ENCODING 8219
SWIDTH 640 0
DWIDTH 6 0
BBX 2 3 2 4
BITMAP
C0
80
40
ENDCHAR
STARTCHAR LEFT DOUBLE QUOTATION MARK
ENCODING 8220
SWIDTH 640 0
DWIDTH 6 0
BBX 4 3 1 4
BITMAP
50
A0
F0
ENDCHAR
STARTCHAR RIGHT DOUBLE QUOTATION MARK
ENCODING 8221
SWIDTH 640 0
DWIDTH 6 0
BBX 4 3 1 4
BITMAP
F0
50
A0
ENDCHAR
STARTCHAR DOUBLE LOW-9 QUOTATION MARK
ENCODING 8222
SWIDTH 640 0
DWIDTH 6 0
BBX 4 3 1 -1
BITMAP
F0
50
A0
ENDCHAR
STARTCHAR DOUBLE HIGH-REVERSED-9 QUOTATION MARK
ENCODING 8223
SWIDTH 640 0
DWIDTH 6 0
BBX 4 3 1 4
BITMAP
F0
A0
50
ENDCHAR
STARTCHAR DAGGER
ENCODING 8224
SWIDTH 640 0
DWIDTH 6 0
BBX 3 6 1 1
BITMAP
40
E0
40
40
40
40
ENDCHAR
STARTCHAR DOUBLE DAGGER
ENCODING 8225
SWIDTH 640 0
DWIDTH 6 0
BBX 3 9 1 -2
BITMAP
40
40
E0
40
40
40
E0
40
40
ENDCHAR
STARTCHAR BULLET
ENCODING 8226
SWIDTH 640 0
DWIDTH 6 0
BBX 5 5 0 1
BITMAP
70
F8
F8
F8
70
ENDCHAR
STARTCHAR TRIANGULAR BULLET
ENCODING 8227
SWIDTH 640 0
DWIDTH 6 0
BBX 6 6 0 0
BITMAP
C0
F0
FC
FC
F0
C0
ENDCHAR
STARTCHAR ONE DOT LEADER
ENCODING 8228
SWIDTH 640 0
DWIDTH 6 0
BBX 1 1 2 0
BITMAP
80
ENDCHAR
STARTCHAR TWO DOT LEADER
ENCODING 8229
SWIDTH 640 0
DWIDTH 6 0
BBX 3 1 1 0
BITMAP
A0
ENDCHAR
STARTCHAR HORIZONTAL ELLIPSIS
ENCODING 8230
SWIDTH 640 0
DWIDTH 6 0
BBX 5 1 0 0
BITMAP
A8
ENDCHAR
STARTCHAR HYPHENATION POINT
ENCODING 8231
SWIDTH 640 0
DWIDTH 6 0
BBX 1 1 2 2
BITMAP
80
ENDCHAR
STARTCHAR PER MILLE SIGN
ENCODING 8240
SWIDTH 640 0
DWIDTH 6 0
BBX 7 7 -1 0
BITMAP
48
A8
50
20
54
AA
94
ENDCHAR
STARTCHAR PER TEN THOUSAND SIGN
ENCODING 8241
SWIDTH 640 0
DWIDTH 6 0
BBX 9 7 -2 0
BITMAP
4800
A800
5000
2000
5500
AA80
9500
ENDCHAR
STARTCHAR SINGLE LEFT-POINTING ANGLE QUOTATION MARK
ENCODING 8249
SWIDTH 640 0
DWIDTH 6 0
BBX 2 4 1 1
BITMAP
40
80
80
40
ENDCHAR
STARTCHAR SINGLE RIGHT-POINTING ANGLE QUOTATION MARK
ENCODING 8250
SWIDTH 640 0
DWIDTH 6 0
BBX 2 4 2 1
BITMAP
80
40
40
80
ENDCHAR
STARTCHAR UNDERTIE
ENCODING 8255
SWIDTH 533 0
DWIDTH 5 0
BBX 5 2 0 0
BITMAP
88
70
ENDCHAR
STARTCHAR FRACTION SLASH
ENCODING 8260
SWIDTH 640 0
DWIDTH 6 0
BBX 5 9 0 -1
BITMAP
08
08
10
10
20
40
40
80
80
ENDCHAR
STARTCHAR REVERSED PILCROW SIGN
ENCODING 8267
SWIDTH 640 0
DWIDTH 6 0
BBX 6 8 0 0
BITMAP
F8
5C
5C
5C
78
50
50
D0
ENDCHAR
STARTCHAR EURO SIGN
ENCODING 8364
SWIDTH 640 0
DWIDTH 6 0
BBX 5 7 0 0
BITMAP
30
48
E0
40
E0
48
30
ENDCHAR
STARTCHAR NUMERO SIGN
ENCODING 8470
SWIDTH 640 0
DWIDTH 6 0
BBX 7 7 -1 0
BITMAP
90
90
D4
FA
B4
90
9E
ENDCHAR
STARTCHAR TRADE MARK SIGN
ENCODING 8482
SWIDTH 640 0
DWIDTH 6 0
BBX 6 3 0 4
BITMAP
F4
5C
5C
ENDCHAR
STARTCHAR SCRIPT SMALL E
ENCODING 8495
SWIDTH 533 0
DWIDTH 5 0
BBX 5 5 0 0
BITMAP
60
90
E0
88
70
ENDCHAR
STARTCHAR SCRIPT CAPITAL M
ENCODING 8499
SWIDTH 640 0
DWIDTH 6 0
BBX 6 7 0 0
BITMAP
28
28
78
78
68
A8
8C
ENDCHAR
STARTCHAR SCRIPT SMALL O
ENCODING 8500
SWIDTH 640 0
DWIDTH 6 0
BBX 6 5 0 0
BITMAP
60
94
98
90
60
ENDCHAR
STARTCHAR ROMAN NUMERAL FIFTY
ENCODING 8556
SWIDTH 533 0
DWIDTH 5 0
BBX 4 7 1 0
BITMAP
80
80
80
80
80
80
F0
ENDCHAR
STARTCHAR LEFTWARDS ARROW
ENCODING 8592
SWIDTH 640 0
DWIDTH 6 0
BBX 7 5 -1 1
BITMAP
20
40
FE
40
20
ENDCHAR
STARTCHAR UPWARDS ARROW
ENCODING 8593
SWIDTH 533 0
DWIDTH 5 0
BBX 5 7 0 0
BITMAP
20
70
A8
20
20
20
20
ENDCHAR
STARTCHAR RIGHTWARDS ARROW
ENCODING 8594
SWIDTH 640 0
DWIDTH 6 0
BBX 7 5 -1 1
BITMAP
08
04
FE
04
08
ENDCHAR
STARTCHAR DOWNWARDS ARROW
ENCODING 8595
SWIDTH 640 0
DWIDTH 6 0
BBX 5 7 0 0
BITMAP
20
20
20
20
A8
70
20
ENDCHAR
STARTCHAR LEFT RIGHT ARROW
ENCODING 8596
SWIDTH 640 0
DWIDTH 6 0
BBX 6 3 0 2
BITMAP
48
FC
48
ENDCHAR
STARTCHAR UP DOWN ARROW
ENCODING 8597
SWIDTH 533 0
DWIDTH 5 0
BBX 5 9 0 -2
BITMAP
20
70
A8
20
20
20
A8
70
20
ENDCHAR
STARTCHAR NORTH WEST ARROW
ENCODING 8598
SWIDTH 533 0
DWIDTH 5 0
BBX 5 5 0 0
BITMAP
E0
C0
A0
10
08
ENDCHAR
STARTCHAR NORTH EAST ARROW
ENCODING 8599
SWIDTH 533 0
DWIDTH 5 0
BBX 5 5 0 0
BITMAP
38
18
28
40
80
ENDCHAR
STARTCHAR SOUTH EAST ARROW
ENCODING 8600
SWIDTH 533 0
DWIDTH 5 0
BBX 5 5 0 0
BITMAP
80
40
28
18
38
ENDCHAR
STARTCHAR SOUTH WEST ARROW
ENCODING 8601
SWIDTH 533 0
DWIDTH 5 0
BBX 5 5 0 0
BITMAP
08
10
A0
C0
E0
ENDCHAR
STARTCHAR UPWARDS ARROW WITH TIP LEFTWARDS
ENCODING 8624
SWIDTH 640 0
DWIDTH 6 0
BBX 6 9 0 0
BITMAP
20
40
FC
44
24
04
04
04
04
ENDCHAR
STARTCHAR UPWARDS ARROW WITH TIP RIGHTWARDS
ENCODING 8625
SWIDTH 640 0
DWIDTH 6 0
BBX 6 9 0 0
BITMAP
10
08
FC
88
90
80
80
80
80
ENDCHAR
STARTCHAR DOWNWARDS ARROW WITH TIP LEFTWARDS
ENCODING 8626
SWIDTH 640 0
DWIDTH 6 0
BBX 6 9 0 0
BITMAP
04
04
04
04
24
44
FC
40
20
ENDCHAR
STARTCHAR DOWNWARDS ARROW WITH TIP RIGHTWARDS
ENCODING 8627
SWIDTH 640 0
DWIDTH 6 0
BBX 6 9 0 -1
BITMAP
80
80
80
80
90
88
FC
08
10
ENDCHAR
STARTCHAR RIGHTWARDS ARROW WITH CORNER DOWNWARDS
ENCODING 8628
SWIDTH 640 0
DWIDTH 6 0
BBX 5 6 0 0
BITMAP
E0
20
20
A8
70
20
ENDCHAR
STARTCHAR DOWNWARDS ARROW WITH CORNER LEFTWARDS
ENCODING 8629
SWIDTH 640 0
DWIDTH 6 0
BBX 6 7 0 0
BITMAP
04
04
24
44
FC
40
20
ENDCHAR
STARTCHAR ANTICLOCKWISE TOP SEMICIRCLE ARROW
ENCODING 8630
SWIDTH 640 0
DWIDTH 6 0
BBX 6 6 -1 0
BITMAP
18
24
20
A8
70
20
ENDCHAR
STARTCHAR CLOCKWISE TOP SEMICIRCLE ARROW
ENCODING 8631
SWIDTH 640 0
DWIDTH 6 0
BBX 6 6 -1 0
BITMAP
60
90
10
54
38
10
ENDCHAR
STARTCHAR NORTH WEST ARROW TO CORNER
ENCODING 8689
SWIDTH 640 0
DWIDTH 6 0
BBX 6 6 0 0
BITMAP
FC
80
B8
B0
A8
84
ENDCHAR
STARTCHAR SOUTH EAST ARROW TO CORNER
ENCODING 8690
SWIDTH 640 0
DWIDTH 6 0
BBX 6 6 0 0
BITMAP
84
54
34
74
04
FC
ENDCHAR
STARTCHAR DOWNWARDS ARROW LEFTWARDS OF UPWARDS ARROW
ENCODING 8693
SWIDTH 640 0
DWIDTH 6 0
BBX 6 7 0 0
BITMAP
48
E8
48
48
48
5C
48
ENDCHAR
STARTCHAR THREE RIGHTWARDS ARROWS
ENCODING 8694
SWIDTH 640 0
DWIDTH 6 0
BBX 6 11 0 -2
BITMAP
08
FC
08
00
08
FC
08
00
08
FC
08
ENDCHAR
STARTCHAR LEFTWARDS ARROW WITH VERTICAL STROKE
ENCODING 8695
SWIDTH 640 0
DWIDTH 6 0
BBX 6 3 0 2
BITMAP
50
FC
50
ENDCHAR
STARTCHAR RIGHTWARDS ARROW WITH VERTICAL STROKE
ENCODING 8696
SWIDTH 640 0
DWIDTH 6 0
BBX 6 3 0 2
BITMAP
28
FC
28
ENDCHAR
STARTCHAR LEFTWARDS OPEN-HEADED ARROW
ENCODING 8701
SWIDTH 640 0
DWIDTH 6 0
BBX 6 3 0 2
BITMAP
40
BC
40
ENDCHAR
STARTCHAR RIGHTWARDS OPEN-HEADED ARROW
ENCODING 8702
SWIDTH 640 0
DWIDTH 6 0
BBX 6 3 0 2
BITMAP
08
F4
08
ENDCHAR
STARTCHAR LEFT RIGHT OPEN-HEADED ARROW
ENCODING 8703
SWIDTH 640 0
DWIDTH 6 0
BBX 6 3 0 2
BITMAP
48
B4
48
ENDCHAR
STARTCHAR FOR ALL
ENCODING 8704
SWIDTH 640 0
DWIDTH 6 0
BBX 5 7 0 0
BITMAP
88
88
F8
50
50
20
20
ENDCHAR
STARTCHAR COMPLEMENT
ENCODING 8705
SWIDTH 640 0
DWIDTH 6 0
BBX 5 7 0 0
BITMAP
70
88
88
80
88
88
70
ENDCHAR
STARTCHAR PARTIAL DIFFERENTIAL
ENCODING 8706
SWIDTH 640 0
DWIDTH 6 0
BBX 4 7 1 0
BITMAP
40
20
30
50
90
90
60
ENDCHAR
STARTCHAR THERE EXISTS
ENCODING 8707
SWIDTH 640 0
DWIDTH 6 0
BBX 5 7 0 0
BITMAP
F8
08
08
78
08
08
F8
ENDCHAR
STARTCHAR THERE DOES NOT EXIST
ENCODING 8708
SWIDTH 640 0
DWIDTH 6 0
BBX 5 11 0 -2
BITMAP
08
08
F8
18
18
78
28
28
F8
40
40
ENDCHAR
STARTCHAR EMPTY SET
ENCODING 8709
SWIDTH 640 0
DWIDTH 6 0
BBX 7 7 -1 0
BITMAP
3A
44
4C
54
64
44
B8
ENDCHAR
STARTCHAR INCREMENT
ENCODING 8710
SWIDTH 640 0
DWIDTH 6 0
BBX 5 6 0 0
BITMAP
20
20
50
50
88
F8
ENDCHAR
STARTCHAR NABLA
ENCODING 8711
SWIDTH 640 0
DWIDTH 6 0
BBX 5 6 0 0
BITMAP
F8
88
50
50
20
20
ENDCHAR
STARTCHAR ELEMENT OF
ENCODING 8712
SWIDTH 640 0
DWIDTH 6 0
BBX 5 7 0 0
BITMAP
38
40
80
F0
80
40
38
ENDCHAR
STARTCHAR NOT AN ELEMENT OF
ENCODING 8713
SWIDTH 640 0
DWIDTH 6 0
BBX 5 11 0 -2
BITMAP
08
08
38
50
90
F0
A0
60
78
40
40
ENDCHAR
STARTCHAR SMALL ELEMENT OF
ENCODING 8714
SWIDTH 640 0
DWIDTH 6 0
BBX 5 5 0 0
BITMAP
78
80
F0
80
78
ENDCHAR
STARTCHAR CONTAINS AS MEMBER
ENCODING 8715
SWIDTH 640 0
DWIDTH 6 0
BBX 5 7 0 0
BITMAP
E0
10
08
78
08
10
E0
ENDCHAR
STARTCHAR DOES NOT CONTAIN AS MEMBER
ENCODING 8716
SWIDTH 640 0
DWIDTH 6 0
BBX 5 11 0 -2
BITMAP
80
80
E0
50
48
78
28
30
F0
10
10
ENDCHAR
STARTCHAR SMALL CONTAINS AS MEMBER
ENCODING 8717
SWIDTH 640 0
DWIDTH 6 0
BBX 5 5 0 0
BITMAP
F0
08
78
08
F0
ENDCHAR
STARTCHAR N-ARY PRODUCT
ENCODING 8719
SWIDTH 640 0
DWIDTH 6 0
BBX 6 7 0 0
BITMAP
FC
48
48
48
48
48
48
ENDCHAR
STARTCHAR N-ARY COPRODUCT
ENCODING 8720
SWIDTH 640 0
DWIDTH 6 0
BBX 6 7 0 0
BITMAP
48
48
48
48
48
48
FC
ENDCHAR
STARTCHAR N-ARY SUMMATION
ENCODING 8721
SWIDTH 640 0
DWIDTH 6 0
BBX 5 7 0 0
BITMAP
F8
48
20
10
20
48
F8
ENDCHAR
STARTCHAR MINUS SIGN
ENCODING 8722
SWIDTH 640 0
DWIDTH 6 0
BBX 5 1 0 2
BITMAP
F8
ENDCHAR
STARTCHAR MINUS-OR-PLUS SIGN
ENCODING 8723
SWIDTH 640 0
DWIDTH 6 0
BBX 5 7 0 0
BITMAP
F8
00
20
20
F8
20
20
ENDCHAR
STARTCHAR DOT PLUS
ENCODING 8724
SWIDTH 640 0
DWIDTH 6 0
BBX 5 9 0 0
BITMAP
20
70
20
00
20
20
F8
20
20
ENDCHAR
STARTCHAR SQUARE ROOT
ENCODING 8730
SWIDTH 640 0
DWIDTH 6 0
BBX 7 8 -1 0
BITMAP
02
02
04
04
E8
28
10
10
ENDCHAR
STARTCHAR CUBE ROOT
ENCODING 8731
SWIDTH 640 0
DWIDTH 6 0
BBX 7 9 -1 0
BITMAP
30
12
22
14
34
C8
28
10
10
ENDCHAR
STARTCHAR FOURTH ROOT
ENCODING 8732
SWIDTH 640 0
DWIDTH 6 0
BBX 7 9 -1 0
BITMAP
10
32
72
14
14
E8
28
10
10
ENDCHAR
STARTCHAR PROPORTIONAL TO
ENCODING 8733
SWIDTH 640 0
DWIDTH 6 0
BBX 4 3 0 2
BITMAP
D0
A0
D0
ENDCHAR
STARTCHAR INFINITY
ENCODING 8734
SWIDTH 640 0
DWIDTH 6 0
BBX 5 3 0 2
BITMAP
D8
A8
D8
ENDCHAR
STARTCHAR DIVIDES
ENCODING 8739
SWIDTH 640 0
DWIDTH 6 0
BBX 1 7 2 0
BITMAP
80
80
80
80
80
80
80
ENDCHAR
STARTCHAR INTEGRAL
ENCODING 8747
SWIDTH 640 0
DWIDTH 6 0
BBX 5 11 0 -2
BITMAP
18
20
20
20
20
20
20
20
20
20
C0
ENDCHAR
STARTCHAR ALMOST EQUAL TO
ENCODING 8776
SWIDTH 640 0
DWIDTH 6 0
BBX 5 5 0 1
BITMAP
08
70
88
70
80
ENDCHAR
STARTCHAR RING IN EQUAL TO
ENCODING 8790
SWIDTH 640 0
DWIDTH 6 0
BBX 5 3 0 2
BITMAP
F8
50
F8
ENDCHAR
STARTCHAR NOT EQUAL TO
ENCODING 8800
SWIDTH 640 0
DWIDTH 6 0
BBX 5 5 0 1
BITMAP
10
F8
20
F8
40
ENDCHAR
STARTCHAR LESS-THAN OR EQUAL TO
ENCODING 8804
SWIDTH 640 0
DWIDTH 6 0
BBX 4 7 1 0
BITMAP
20
40
80
40
20
00
F0
ENDCHAR
STARTCHAR GREATER-THAN OR EQUAL TO
ENCODING 8805
SWIDTH 640 0
DWIDTH 6 0
BBX 4 7 1 0
BITMAP
40
20
10
20
40
00
F0
ENDCHAR
STARTCHAR LESS-THAN OVER EQUAL TO
ENCODING 8806
SWIDTH 640 0
DWIDTH 6 0
BBX 4 9 1 -2
BITMAP
20
40
80
40
20
00
F0
00
F0
ENDCHAR
STARTCHAR GREATER-THAN OVER EQUAL TO
ENCODING 8807
SWIDTH 640 0
DWIDTH 6 0
BBX 4 9 1 -2
BITMAP
40
20
10
20
40
00
F0
00
F0
ENDCHAR
STARTCHAR CIRCLED PLUS
ENCODING 8853
SWIDTH 533 0
DWIDTH 5 0
BBX 5 5 0 1
BITMAP
70
A8
F8
A8
70
ENDCHAR
STARTCHAR CIRCLED MINUS
ENCODING 8854
SWIDTH 640 0
DWIDTH 6 0
BBX 5 5 0 1
BITMAP
70
88
F8
88
70
ENDCHAR
STARTCHAR CIRCLED TIMES
ENCODING 8855
SWIDTH 640 0
DWIDTH 6 0
BBX 5 5 0 1
BITMAP
70
D8
A8
D8
70
ENDCHAR
STARTCHAR CIRCLED DIVISION SLASH
ENCODING 8856
SWIDTH 640 0
DWIDTH 6 0
BBX 5 5 0 1
BITMAP
70
98
A8
C8
70
ENDCHAR
STARTCHAR CIRCLED DOT OPERATOR
ENCODING 8857
SWIDTH 640 0
DWIDTH 6 0
BBX 5 5 0 1
BITMAP
70
88
A8
88
70
ENDCHAR
STARTCHAR ARC
ENCODING 8978
SWIDTH 640 0
DWIDTH 6 0
BBX 5 2 0 3
BITMAP
70
88
ENDCHAR
STARTCHAR FROWN
ENCODING 8994
SWIDTH 640 0
DWIDTH 6 0
BBX 6 2 0 2
BITMAP
78
84
ENDCHAR
STARTCHAR BLACK RIGHT-POINTING DOUBLE TRIANGLE
ENCODING 9193
SWIDTH 640 0
DWIDTH 6 0
BBX 6 5 0 1
BITMAP
90
D8
FC
D8
90
ENDCHAR
STARTCHAR BLACK LEFT-POINTING DOUBLE TRIANGLE
ENCODING 9194
SWIDTH 640 0
DWIDTH 6 0
BBX 6 5 0 1
BITMAP
24
6C
FC
6C
24
ENDCHAR
STARTCHAR BLACK UP-POINTING DOUBLE TRIANGLE
ENCODING 9195
SWIDTH 640 0
DWIDTH 6 0
BBX 5 6 0 0
BITMAP
20
70
F8
20
70
F8
ENDCHAR
STARTCHAR BLACK DOWN-POINTING DOUBLE TRIANGLE
ENCODING 9196
SWIDTH 640 0
DWIDTH 6 0
BBX 5 6 0 0
BITMAP
F8
70
20
F8
70
20
ENDCHAR
STARTCHAR BLACK RIGHT-POINTING DOUBLE TRIANGLE WITH VERTICAL BAR
ENCODING 9197
SWIDTH 640 0
DWIDTH 6 0
BBX 7 5 -1 1
BITMAP
92
DA
FE
DA
92
ENDCHAR
STARTCHAR BLACK LEFT-POINTING DOUBLE TRIANGLE WITH VERTICAL BAR
ENCODING 9198
SWIDTH 640 0
DWIDTH 6 0
BBX 7 5 -1 1
BITMAP
92
B6
FE
B6
92
ENDCHAR
STARTCHAR BLACK RIGHT-POINTING TRIANGLE WITH DOUBLE VERTICAL BAR
ENCODING 9199
SWIDTH 640 0
DWIDTH 6 0
BBX 6 5 0 1
BITMAP
94
D4
F4
D4
94
ENDCHAR
STARTCHAR QUADRANT LOWER LEFT
ENCODING 9622
SWIDTH 640 0
DWIDTH 6 0
BBX 3 3 0 0
BITMAP
E0
E0
E0
ENDCHAR
STARTCHAR QUADRANT LOWER RIGHT
ENCODING 9623
SWIDTH 640 0
DWIDTH 6 0
BBX 3 3 3 0
BITMAP
E0
E0
E0
ENDCHAR
STARTCHAR QUADRANT UPPER LEFT
ENCODING 9624
SWIDTH 640 0
DWIDTH 6 0
BBX 3 3 0 3
BITMAP
E0
E0
E0
ENDCHAR
STARTCHAR QUADRANT UPPER LEFT AND LOWER LEFT AND LOWER RIGHT
ENCODING 9625
SWIDTH 640 0
DWIDTH 6 0
BBX 6 6 0 0
BITMAP
E0
E0
E0
FC
FC
FC
ENDCHAR
STARTCHAR QUADRANT UPPER LEFT AND LOWER RIGHT
ENCODING 9626
SWIDTH 640 0
DWIDTH 6 0
BBX 6 6 0 0
BITMAP
E0
E0
E0
1C
1C
1C
ENDCHAR
STARTCHAR QUADRANT UPPER LEFT AND UPPER RIGHT AND LOWER LEFT
ENCODING 9627
SWIDTH 640 0
DWIDTH 6 0
BBX 6 6 0 0
BITMAP
FC
FC
FC
E0
E0
E0
ENDCHAR
STARTCHAR QUADRANT UPPER LEFT AND UPPER RIGHT AND LOWER RIGHT
ENCODING 9628
SWIDTH 640 0
DWIDTH 6 0
BBX 6 6 0 0
BITMAP
FC
FC
FC
1C
1C
1C
ENDCHAR
STARTCHAR QUADRANT UPPER RIGHT
ENCODING 9629
SWIDTH 640 0
DWIDTH 6 0
BBX 3 3 3 3
BITMAP
E0
E0
E0
ENDCHAR
STARTCHAR QUADRANT UPPER RIGHT AND LOWER LEFT
ENCODING 9630
SWIDTH 640 0
DWIDTH 6 0
BBX 6 6 0 0
BITMAP
1C
1C
1C
E0
E0
E0
ENDCHAR
STARTCHAR QUADRANT UPPER RIGHT AND LOWER LEFT AND LOWER RIGHT
ENCODING 9631
SWIDTH 640 0
DWIDTH 6 0
BBX 6 6 0 0
BITMAP
1C
1C
1C
FC
FC
FC
ENDCHAR
STARTCHAR BLACK SQUARE
ENCODING 9632
SWIDTH 640 0
DWIDTH 6 0
BBX 6 6 0 0
BITMAP
FC
FC
FC
FC
FC
FC
ENDCHAR
STARTCHAR WHITE SQUARE
ENCODING 9633
SWIDTH 640 0
DWIDTH 6 0
BBX 6 6 0 0
BITMAP
FC
84
84
84
84
FC
ENDCHAR
STARTCHAR WHITE SQUARE WITH ROUNDED CORNERS
ENCODING 9634
SWIDTH 640 0
DWIDTH 6 0
BBX 6 6 0 0
BITMAP
78
84
84
84
84
78
ENDCHAR
STARTCHAR WHITE SQUARE CONTAINING BLACK SMALL SQUARE
ENCODING 9635
SWIDTH 640 0
DWIDTH 6 0
BBX 5 5 0 0
BITMAP
F8
88
A8
88
F8
ENDCHAR
STARTCHAR SQUARE WITH HORIZONTAL FILL
ENCODING 9636
SWIDTH 640 0
DWIDTH 6 0
BBX 5 5 0 0
BITMAP
F8
88
F8
88
F8
ENDCHAR
STARTCHAR SQUARE WITH VERTICAL FILL
ENCODING 9637
SWIDTH 640 0
DWIDTH 6 0
BBX 5 5 0 0
BITMAP
F8
A8
A8
A8
F8
ENDCHAR
STARTCHAR SQUARE WITH ORTHOGONAL CROSSHATCH FILL
ENCODING 9638
SWIDTH 640 0
DWIDTH 6 0
BBX 5 5 0 0
BITMAP
F8
A8
F8
A8
F8
ENDCHAR
STARTCHAR SQUARE WITH UPPER LEFT TO LOWER RIGHT FILL
ENCODING 9639
SWIDTH 640 0
DWIDTH 6 0
BBX 5 5 0 0
BITMAP
F8
C8
A8
98
F8
ENDCHAR
STARTCHAR SQUARE WITH UPPER RIGHT TO LOWER LEFT FILL
ENCODING 9640
SWIDTH 640 0
DWIDTH 6 0
BBX 5 5 0 0
BITMAP
F8
98
A8
C8
F8
ENDCHAR
STARTCHAR SQUARE WITH DIAGONAL CROSSHATCH FILL
ENCODING 9641
SWIDTH 640 0
DWIDTH 6 0
BBX 5 5 0 0
BITMAP
F8
A8
D8
A8
F8
ENDCHAR
STARTCHAR BLACK SMALL SQUARE
ENCODING 9642
SWIDTH 640 0
DWIDTH 6 0
BBX 5 5 0 0
BITMAP
F8
F8
F8
F8
F8
ENDCHAR
STARTCHAR WHITE SMALL SQUARE
ENCODING 9643
SWIDTH 640 0
DWIDTH 6 0
BBX 5 5 0 0
BITMAP
F8
88
88
88
F8
ENDCHAR
STARTCHAR BLACK RECTANGLE
ENCODING 9644
SWIDTH 640 0
DWIDTH 6 0
BBX 5 3 0 0
BITMAP
F8
F8
F8
ENDCHAR
STARTCHAR WHITE RECTANGLE
ENCODING 9645
SWIDTH 640 0
DWIDTH 6 0
BBX 5 3 0 0
BITMAP
F8
88
F8
ENDCHAR
STARTCHAR BLACK VERTICAL RECTANGLE
ENCODING 9646
SWIDTH 640 0
DWIDTH 6 0
BBX 4 7 0 0
BITMAP
F0
F0
F0
F0
F0
F0
F0
ENDCHAR
STARTCHAR WHITE VERTICAL RECTANGLE
ENCODING 9647
SWIDTH 640 0
DWIDTH 6 0
BBX 4 7 0 0
BITMAP
F0
90
90
90
90
90
F0
ENDCHAR
STARTCHAR BLACK PARALLELOGRAM
ENCODING 9648
SWIDTH 640 0
DWIDTH 6 0
BBX 6 3 0 0
BITMAP
7C
FC
F8
ENDCHAR
STARTCHAR WHITE PARALLELOGRAM
ENCODING 9649
SWIDTH 640 0
DWIDTH 6 0
BBX 6 3 0 0
BITMAP
7C
84
F8
ENDCHAR
STARTCHAR BLACK UP-POINTING TRIANGLE
ENCODING 9650
SWIDTH 640 0
DWIDTH 6 0
BBX 6 6 0 0
BITMAP
30
30
78
78
FC
FC
ENDCHAR
STARTCHAR WHITE UP-POINTING TRIANGLE
ENCODING 9651
SWIDTH 640 0
DWIDTH 6 0
BBX 6 6 0 0
BITMAP
30
30
48
48
84
FC
ENDCHAR
STARTCHAR BLACK UP-POINTING SMALL TRIANGLE
ENCODING 9652
SWIDTH 640 0
DWIDTH 6 0
BBX 5 6 0 0
BITMAP
20
20
70
70
F8
F8
ENDCHAR
STARTCHAR WHITE UP-POINTING SMALL TRIANGLE
ENCODING 9653
SWIDTH 640 0
DWIDTH 6 0
BBX 5 6 0 0
BITMAP
20
20
50
50
88
F8
ENDCHAR
STARTCHAR BLACK RIGHT-POINTING TRIANGLE
ENCODING 9654
SWIDTH 640 0
DWIDTH 6 0
BBX 6 6 0 0
BITMAP
C0
F0
FC
FC
F0
C0
ENDCHAR
STARTCHAR WHITE RIGHT-POINTING TRIANGLE
ENCODING 9655
SWIDTH 640 0
DWIDTH 6 0
BBX 6 6 0 0
BITMAP
C0
B0
8C
8C
B0
C0
ENDCHAR
STARTCHAR BLACK RIGHT-POINTING SMALL TRIANGLE
ENCODING 9656
SWIDTH 640 0
DWIDTH 6 0
BBX 6 5 0 0
BITMAP
C0
F0
FC
F0
C0
ENDCHAR
STARTCHAR WHITE RIGHT-POINTING SMALL TRIANGLE
ENCODING 9657
SWIDTH 640 0
DWIDTH 6 0
BBX 6 5 0 0
BITMAP
C0
B0
8C
B0
C0
ENDCHAR
STARTCHAR BLACK RIGHT-POINTING POINTER
ENCODING 9658
SWIDTH 640 0
DWIDTH 6 0
BBX 7 5 -1 0
BITMAP
C0
F8
FE
F8
C0
ENDCHAR
STARTCHAR WHITE RIGHT-POINTING POINTER
ENCODING 9659
SWIDTH 640 0
DWIDTH 6 0
BBX 7 5 -1 0
BITMAP
C0
B8
86
B8
C0
ENDCHAR
STARTCHAR BLACK DOWN-POINTING TRIANGLE
ENCODING 9660
SWIDTH 640 0
DWIDTH 6 0
BBX 6 6 0 0
BITMAP
FC
FC
78
78
30
30
ENDCHAR
STARTCHAR WHITE DOWN-POINTING TRIANGLE
ENCODING 9661
SWIDTH 640 0
DWIDTH 6 0
BBX 6 6 0 0
BITMAP
FC
84
48
48
30
30
ENDCHAR
STARTCHAR BLACK DOWN-POINTING SMALL TRIANGLE
ENCODING 9662
SWIDTH 640 0
DWIDTH 6 0
BBX 5 6 0 0
BITMAP
F8
F8
70
70
20
20
ENDCHAR
STARTCHAR WHITE DOWN-POINTING SMALL TRIANGLE
ENCODING 9663
SWIDTH 640 0
DWIDTH 6 0
BBX 5 6 0 0
BITMAP
F8
88
50
50
20
20
ENDCHAR
STARTCHAR BLACK LEFT-POINTING TRIANGLE
ENCODING 9664
SWIDTH 640 0
DWIDTH 6 0
BBX 6 6 0 0
BITMAP
0C
3C
FC
FC
3C
0C
ENDCHAR
STARTCHAR WHITE LEFT-POINTING TRIANGLE
ENCODING 9665
SWIDTH 640 0
DWIDTH 6 0
BBX 6 6 0 0
BITMAP
0C
34
C4
C4
34
0C
ENDCHAR
STARTCHAR BLACK LEFT-POINTING SMALL TRIANGLE
ENCODING 9666
SWIDTH 640 0
DWIDTH 6 0
BBX 6 5 0 0
BITMAP
0C
3C
FC
3C
0C
ENDCHAR
STARTCHAR WHITE LEFT-POINTING SMALL TRIANGLE
ENCODING 9667
SWIDTH 640 0
DWIDTH 6 0
BBX 6 5 0 0
BITMAP
0C
34
C4
34
0C
ENDCHAR
STARTCHAR BLACK LEFT-POINTING POINTER
ENCODING 9668
SWIDTH 640 0
DWIDTH 6 0
BBX 7 5 -1 0
BITMAP
06
3E
FE
3E
06
ENDCHAR
STARTCHAR WHITE LEFT-POINTING POINTER
ENCODING 9669
SWIDTH 640 0
DWIDTH 6 0
BBX 7 5 -1 0
BITMAP
06
3A
C2
3A
06
ENDCHAR
STARTCHAR BLACK DIAMOND
ENCODING 9670
SWIDTH 640 0
DWIDTH 6 0
BBX 5 5 0 1
BITMAP
20
70
F8
70
20
ENDCHAR
STARTCHAR WHITE DIAMOND
ENCODING 9671
SWIDTH 640 0
DWIDTH 6 0
BBX 5 5 0 1
BITMAP
20
50
88
50
20
ENDCHAR
STARTCHAR WHITE DIAMOND CONTAINING BLACK SMALL DIAMOND
ENCODING 9672
SWIDTH 640 0
DWIDTH 6 0
BBX 5 5 0 1
BITMAP
20
50
A8
50
20
ENDCHAR
STARTCHAR FISHEYE
ENCODING 9673
SWIDTH 640 0
DWIDTH 6 0
BBX 5 5 0 1
BITMAP
70
88
A8
88
70
ENDCHAR
STARTCHAR LOZENGE
ENCODING 9674
SWIDTH 640 0
DWIDTH 6 0
BBX 5 7 0 0
BITMAP
20
50
50
88
50
50
20
ENDCHAR
STARTCHAR WHITE CIRCLE
ENCODING 9675
SWIDTH 640 0
DWIDTH 6 0
BBX 5 5 0 1
BITMAP
70
88
88
88
70
ENDCHAR
STARTCHAR DOTTED CIRCLE
ENCODING 9676
SWIDTH 640 0
DWIDTH 6 0
BBX 5 5 0 1
BITMAP
50
88
00
88
50
ENDCHAR
STARTCHAR CIRCLE WITH VERTICAL FILL
ENCODING 9677
SWIDTH 640 0
DWIDTH 6 0
BBX 5 5 0 0
BITMAP
70
A8
A8
A8
70
ENDCHAR
STARTCHAR BULLSEYE
ENCODING 9678
SWIDTH 533 0
DWIDTH 5 0
BBX 5 5 0 0
BITMAP
70
88
A8
88
70
ENDCHAR
STARTCHAR BLACK CIRCLE
ENCODING 9679
SWIDTH 640 0
DWIDTH 6 0
BBX 4 4 1 2
BITMAP
60
F0
F0
60
ENDCHAR
STARTCHAR CIRCLE WITH LEFT HALF BLACK
ENCODING 9680
SWIDTH 640 0
DWIDTH 6 0
BBX 4 4 1 2
BITMAP
60
D0
D0
60
ENDCHAR
STARTCHAR CIRCLE WITH RIGHT HALF BLACK
ENCODING 9681
SWIDTH 640 0
DWIDTH 6 0
BBX 4 4 1 2
BITMAP
60
B0
B0
60
ENDCHAR
STARTCHAR CIRCLE WITH LOWER HALF BLACK
ENCODING 9682
SWIDTH 640 0
DWIDTH 6 0
BBX 4 4 1 2
BITMAP
60
F0
90
60
ENDCHAR
STARTCHAR CIRCLE WITH UPPER HALF BLACK
ENCODING 9683
SWIDTH 640 0
DWIDTH 6 0
BBX 4 4 1 2
BITMAP
60
90
F0
60
ENDCHAR
STARTCHAR CIRCLE WITH UPPER RIGHT QUADRANT BLACK
ENCODING 9684
SWIDTH 640 0
DWIDTH 6 0
BBX 4 4 1 2
BITMAP
60
B0
90
60
ENDCHAR
STARTCHAR CIRCLE WITH ALL BUT UPPER LEFT QUADRANT BLACK
ENCODING 9685
SWIDTH 640 0
DWIDTH 6 0
BBX 4 4 1 2
BITMAP
60
B0
F0
60
ENDCHAR
STARTCHAR LEFT HALF BLACK CIRCLE
ENCODING 9686
SWIDTH 640 0
DWIDTH 6 0
BBX 2 4 1 2
BITMAP
40
C0
C0
40
ENDCHAR
STARTCHAR RIGHT HALF BLACK CIRCLE
ENCODING 9687
SWIDTH 640 0
DWIDTH 6 0
BBX 2 4 3 2
BITMAP
80
C0
C0
80
ENDCHAR
STARTCHAR INVERSE BULLET
ENCODING 9688
SWIDTH 640 0
DWIDTH 6 0
BBX 6 11 0 -2
BITMAP
FC
FC
FC
FC
CC
84
84
CC
FC
FC
FC
ENDCHAR
STARTCHAR INVERSE WHITE CIRCLE
ENCODING 9689
SWIDTH 640 0
DWIDTH 6 0
BBX 7 7 -1 0
BITMAP
FE
C6
BA
BA
BA
C6
FE
ENDCHAR
STARTCHAR UPPER HALF INVERSE WHITE CIRCLE
ENCODING 9690
SWIDTH 640 0
DWIDTH 6 0
BBX 7 4 -1 3
BITMAP
FE
C6
BA
BA
ENDCHAR
STARTCHAR LOWER HALF INVERSE WHITE CIRCLE
ENCODING 9691
SWIDTH 640 0
DWIDTH 6 0
BBX 7 4 -1 0
BITMAP
BA
BA
C6
FE
ENDCHAR
STARTCHAR UPPER LEFT QUADRANT CIRCULAR ARC
ENCODING 9692
SWIDTH 640 0
DWIDTH 6 0
BBX 3 3 0 3
BITMAP
60
80
80
ENDCHAR
STARTCHAR UPPER RIGHT QUADRANT CIRCULAR ARC
ENCODING 9693
SWIDTH 640 0
DWIDTH 6 0
BBX 3 3 2 3
BITMAP
C0
20
20
ENDCHAR
STARTCHAR LOWER RIGHT QUADRANT CIRCULAR ARC
ENCODING 9694
SWIDTH 640 0
DWIDTH 6 0
BBX 3 3 2 1
BITMAP
20
20
C0
ENDCHAR
STARTCHAR LOWER LEFT QUADRANT CIRCULAR ARC
ENCODING 9695
SWIDTH 640 0
DWIDTH 6 0
BBX 3 3 0 1
BITMAP
80
80
60
ENDCHAR
STARTCHAR UPPER HALF CIRCLE
ENCODING 9696
SWIDTH 640 0
DWIDTH 6 0
BBX 5 3 0 3
BITMAP
70
88
88
ENDCHAR
STARTCHAR LOWER HALF CIRCLE
ENCODING 9697
SWIDTH 640 0
DWIDTH 6 0
BBX 6 3 0 1
BITMAP
84
44
38
ENDCHAR
STARTCHAR BLACK LOWER RIGHT TRIANGLE
ENCODING 9698
SWIDTH 640 0
DWIDTH 6 0
BBX 6 6 0 0
BITMAP
04
0C
1C
3C
7C
FC
ENDCHAR
STARTCHAR BLACK LOWER LEFT TRIANGLE
ENCODING 9699
SWIDTH 640 0
DWIDTH 6 0
BBX 6 6 0 0
BITMAP
80
C0
E0
F0
F8
FC
ENDCHAR
STARTCHAR BLACK UPPER LEFT TRIANGLE
ENCODING 9700
SWIDTH 640 0
DWIDTH 6 0
BBX 6 6 0 0
BITMAP
FC
F8
F0
E0
C0
80
ENDCHAR
STARTCHAR BLACK UPPER RIGHT TRIANGLE
ENCODING 9701
SWIDTH 640 0
DWIDTH 6 0
BBX 6 6 0 0
BITMAP
FC
7C
3C
1C
0C
04
ENDCHAR
STARTCHAR WHITE BULLET
ENCODING 9702
SWIDTH 640 0
DWIDTH 6 0
BBX 5 5 0 1
BITMAP
70
88
88
88
70
ENDCHAR
STARTCHAR SQUARE WITH LEFT HALF BLACK
ENCODING 9703
SWIDTH 640 0
DWIDTH 6 0
BBX 5 5 0 0
BITMAP
F8
C8
C8
C8
F8
ENDCHAR
STARTCHAR SQUARE WITH RIGHT HALF BLACK
ENCODING 9704
SWIDTH 640 0
DWIDTH 6 0
BBX 5 5 0 0
BITMAP
F8
98
98
98
F8
ENDCHAR
STARTCHAR SQUARE WITH UPPER LEFT DIAGONAL HALF BLACK
ENCODING 9705
SWIDTH 640 0
DWIDTH 6 0
BBX 5 5 0 0
BITMAP
F8
E8
C8
88
F8
ENDCHAR
STARTCHAR SQUARE WITH LOWER RIGHT DIAGONAL HALF BLACK
ENCODING 9706
SWIDTH 640 0
DWIDTH 6 0
BBX 5 5 0 0
BITMAP
F8
88
98
B8
F8
ENDCHAR
STARTCHAR WHITE SQUARE WITH VERTICAL BISECTING LINE
ENCODING 9707
SWIDTH 640 0
DWIDTH 6 0
BBX 5 5 0 0
BITMAP
F8
A8
A8
A8
F8
ENDCHAR
STARTCHAR WHITE UP-POINTING TRIANGLE WITH DOT
ENCODING 9708
SWIDTH 640 0
DWIDTH 6 0
BBX 5 7 0 0
BITMAP
20
20
50
50
A8
88
F8
ENDCHAR
STARTCHAR UP-POINTING TRIANGLE WITH LEFT HALF BLACK
ENCODING 9709
SWIDTH 640 0
DWIDTH 6 0
BBX 5 6 0 0
BITMAP
20
20
70
70
E8
F8
ENDCHAR
STARTCHAR UP-POINTING TRIANGLE WITH RIGHT HALF BLACK
ENCODING 9710
SWIDTH 640 0
DWIDTH 6 0
BBX 5 6 0 0
BITMAP
20
20
70
70
B8
F8
ENDCHAR
STARTCHAR LARGE CIRCLE
ENCODING 9711
SWIDTH 640 0
DWIDTH 6 0
BBX 5 5 0 0
BITMAP
70
88
88
88
70
ENDCHAR
STARTCHAR WHITE SQUARE WITH UPPER LEFT QUADRANT
ENCODING 9712
SWIDTH 640 0
DWIDTH 6 0
BBX 5 5 0 0
BITMAP
F8
A8
E8
88
F8
ENDCHAR
STARTCHAR WHITE SQUARE WITH LOWER LEFT QUADRANT
ENCODING 9713
SWIDTH 640 0
DWIDTH 6 0
BBX 5 5 0 0
BITMAP
F8
88
E8
A8
F8
ENDCHAR
STARTCHAR WHITE SQUARE WITH LOWER RIGHT QUADRANT
ENCODING 9714
SWIDTH 640 0
DWIDTH 6 0
BBX 5 5 0 0
BITMAP
F8
88
B8
A8
F8
ENDCHAR
STARTCHAR WHITE SQUARE WITH UPPER RIGHT QUADRANT
ENCODING 9715
SWIDTH 640 0
DWIDTH 6 0
BBX 5 5 0 0
BITMAP
F8
A8
B8
88
F8
ENDCHAR
STARTCHAR WHITE CIRCLE WITH UPPER LEFT QUADRANT
ENCODING 9716
SWIDTH 640 0
DWIDTH 6 0
BBX 5 5 0 0
BITMAP
70
A8
E8
88
70
ENDCHAR
STARTCHAR WHITE CIRCLE WITH LOWER LEFT QUADRANT
ENCODING 9717
SWIDTH 640 0
DWIDTH 6 0
BBX 5 5 0 0
BITMAP
70
88
E8
A8
70
ENDCHAR
STARTCHAR WHITE CIRCLE WITH LOWER RIGHT QUADRANT
ENCODING 9718
SWIDTH 640 0
DWIDTH 6 0
BBX 5 5 0 0
BITMAP
70
88
B8
A8
70
ENDCHAR
STARTCHAR WHITE CIRCLE WITH UPPER RIGHT QUADRANT
ENCODING 9719
SWIDTH 640 0
DWIDTH 6 0
BBX 5 5 0 0
BITMAP
70
A8
B8
88
70
ENDCHAR
STARTCHAR UPPER LEFT TRIANGLE
ENCODING 9720
SWIDTH 640 0
DWIDTH 6 0
BBX 4 4 0 3
BITMAP
F0
A0
C0
80
ENDCHAR
STARTCHAR UPPER RIGHT TRIANGLE
ENCODING 9721
SWIDTH 640 0
DWIDTH 6 0
BBX 4 4 2 3
BITMAP
F0
50
30
10
ENDCHAR
STARTCHAR LOWER LEFT TRIANGLE
ENCODING 9722
SWIDTH 640 0
DWIDTH 6 0
BBX 4 4 0 0
BITMAP
80
C0
A0
F0
ENDCHAR
STARTCHAR WHITE MEDIUM SQUARE
ENCODING 9723
SWIDTH 640 0
DWIDTH 6 0
BBX 6 6 0 0
BITMAP
FC
84
84
84
84
FC
ENDCHAR
STARTCHAR BLACK MEDIUM SQUARE
ENCODING 9724
SWIDTH 640 0
DWIDTH 6 0
BBX 6 6 0 0
BITMAP
FC
FC
FC
FC
FC
FC
ENDCHAR
STARTCHAR WHITE MEDIUM SMALL SQUARE
ENCODING 9725
SWIDTH 640 0
DWIDTH 6 0
BBX 5 5 0 1
BITMAP
F8
88
88
88
F8
ENDCHAR
STARTCHAR BLACK MEDIUM SMALL SQUARE
ENCODING 9726
SWIDTH 640 0
DWIDTH 6 0
BBX 5 5 0 1
BITMAP
F8
F8
F8
F8
F8
ENDCHAR
STARTCHAR LOWER RIGHT TRIANGLE
ENCODING 9727
SWIDTH 640 0
DWIDTH 6 0
BBX 4 4 2 0
BITMAP
10
30
50
F0
ENDCHAR
STARTCHAR BLACK SUN WITH RAYS
ENCODING 9728
SWIDTH 640 0
DWIDTH 6 0
BBX 5 7 0 -2
BITMAP
20
88
70
F8
70
88
20
ENDCHAR
STARTCHAR CLOUD
ENCODING 9729
SWIDTH 640 0
DWIDTH 6 0
BBX 6 3 0 1
BITMAP
28
7C
FC
ENDCHAR
STARTCHAR UMBRELLA
ENCODING 9730
SWIDTH 640 0
DWIDTH 6 0
BBX 5 6 0 0
BITMAP
70
F8
20
20
20
40
ENDCHAR
STARTCHAR COMET
ENCODING 9732
SWIDTH 640 0
DWIDTH 6 0
BBX 6 7 0 0
BITMAP
20
28
48
10
44
A8
40
ENDCHAR
STARTCHAR BLACK STAR
ENCODING 9733
SWIDTH 640 0
DWIDTH 6 0
BBX 5 5 0 1
BITMAP
20
20
F8
70
88
ENDCHAR
STARTCHAR WHITE STAR
ENCODING 9734
SWIDTH 640 0
DWIDTH 6 0
BBX 5 5 0 2
BITMAP
20
20
D8
70
88
ENDCHAR
STARTCHAR LIGHTNING
ENCODING 9735
SWIDTH 640 0
DWIDTH 6 0
BBX 4 7 0 0
BITMAP
10
20
40
80
50
30
70
ENDCHAR
STARTCHAR THUNDERSTORM
ENCODING 9736
SWIDTH 640 0
DWIDTH 6 0
BBX 5 7 0 0
BITMAP
F8
88
90
A0
A8
98
B8
ENDCHAR
STARTCHAR SUN
ENCODING 9737
SWIDTH 640 0
DWIDTH 6 0
BBX 5 5 0 0
BITMAP
70
88
A8
88
70
ENDCHAR
STARTCHAR WHITE SHOGI PIECE
ENCODING 9750
SWIDTH 640 0
DWIDTH 6 0
BBX 5 7 0 0
BITMAP
20
50
88
88
88
88
F8
ENDCHAR
STARTCHAR BLACK SHOGI PIECE
ENCODING 9751
SWIDTH 640 0
DWIDTH 6 0
BBX 5 7 0 0
BITMAP
20
70
F8
F8
F8
F8
F8
ENDCHAR
STARTCHAR BLACK SPADE SUIT
ENCODING 9824
SWIDTH 640 0
DWIDTH 6 0
BBX 5 8 0 -1
BITMAP
20
20
70
F8
F8
70
20
70
ENDCHAR
STARTCHAR WHITE HEART SUIT
ENCODING 9825
SWIDTH 640 0
DWIDTH 6 0
BBX 5 5 0 0
BITMAP
50
A8
88
50
20
ENDCHAR
STARTCHAR WHITE DIAMOND SUIT
ENCODING 9826
SWIDTH 640 0
DWIDTH 6 0
BBX 5 6 0 0
BITMAP
20
50
88
88
50
20
ENDCHAR
STARTCHAR BLACK CLUB SUIT
ENCODING 9827
SWIDTH 640 0
DWIDTH 6 0
BBX 5 8 0 -1
BITMAP
70
70
20
F8
F8
F8
20
70
ENDCHAR
STARTCHAR WHITE SPADE SUIT
ENCODING 9828
SWIDTH 640 0
DWIDTH 6 0
BBX 5 8 0 -1
BITMAP
20
20
50
88
88
70
20
70
ENDCHAR
STARTCHAR BLACK HEART SUIT
ENCODING 9829
SWIDTH 853 0
DWIDTH 8 0
BBX 7 6 0 0
BITMAP
6C
FE
FE
7C
38
10
ENDCHAR
STARTCHAR BLACK DIAMOND SUIT
ENCODING 9830
SWIDTH 640 0
DWIDTH 6 0
BBX 5 9 0 -2
BITMAP
20
20
70
70
F8
70
70
20
20
ENDCHAR
STARTCHAR WHITE CLUB SUIT
ENCODING 9831
SWIDTH 640 0
DWIDTH 6 0
BBX 5 8 0 -1
BITMAP
70
50
20
F8
A8
F8
20
70
ENDCHAR
STARTCHAR QUARTER NOTE
ENCODING 9833
SWIDTH 640 0
DWIDTH 6 0
BBX 3 7 0 0
BITMAP
20
20
20
20
20
E0
E0
ENDCHAR
STARTCHAR EIGHTH NOTE
ENCODING 9834
SWIDTH 640 0
DWIDTH 6 0
BBX 5 7 0 0
BITMAP
30
28
28
20
20
E0
E0
ENDCHAR
STARTCHAR BEAMED EIGHTH NOTES
ENCODING 9835
SWIDTH 640 0
DWIDTH 6 0
BBX 7 7 0 0
BITMAP
3E
3E
22
22
22
EE
EE
ENDCHAR
STARTCHAR BEAMED SIXTEENTH NOTES
ENCODING 9836
SWIDTH 640 0
DWIDTH 6 0
BBX 7 7 0 0
BITMAP
3E
3E
22
3E
22
EE
EE
ENDCHAR
STARTCHAR MUSIC FLAT SIGN
ENCODING 9837
SWIDTH 640 0
DWIDTH 6 0
BBX 3 7 0 0
BITMAP
80
80
80
80
E0
A0
C0
ENDCHAR
STARTCHAR MUSIC NATURAL SIGN
ENCODING 9838
SWIDTH 640 0
DWIDTH 6 0
BBX 4 8 0 -1
BITMAP
80
90
B0
D0
B0
D0
90
10
ENDCHAR
STARTCHAR MUSIC SHARP SIGN
ENCODING 9839
SWIDTH 640 0
DWIDTH 6 0
BBX 5 8 0 -1
BITMAP
10
58
70
D0
58
70
D0
40
ENDCHAR
STARTCHAR CHECK MARK
ENCODING 10003
SWIDTH 533 0
DWIDTH 5 0
BBX 5 7 0 0
BITMAP
08
10
10
A0
A0
40
40
ENDCHAR
STARTCHAR HEAVY CHECK MARK
ENCODING 10004
SWIDTH 640 0
DWIDTH 6 0
BBX 6 7 0 0
BITMAP
04
0C
08
D8
50
70
20
ENDCHAR
STARTCHAR MULTIPLICATION X
ENCODING 10005
SWIDTH 533 0
DWIDTH 5 0
BBX 5 5 0 0
BITMAP
88
50
20
50
88
ENDCHAR
STARTCHAR HEAVY MULTIPLICATION X
ENCODING 10006
SWIDTH 533 0
DWIDTH 5 0
BBX 5 5 0 0
BITMAP
D8
50
20
50
D8
ENDCHAR
STARTCHAR BALLOT X
ENCODING 10007
SWIDTH 533 0
DWIDTH 5 0
BBX 5 7 0 0
BITMAP
08
48
50
20
50
90
80
ENDCHAR
STARTCHAR HEAVY BALLOT X
ENCODING 10008
SWIDTH 533 0
DWIDTH 5 0
BBX 5 7 0 0
BITMAP
08
58
70
20
70
D0
80
ENDCHAR
STARTCHAR HEAVY GREEK CROSS
ENCODING 10010
SWIDTH 640 0
DWIDTH 6 0
BBX 6 6 0 0
BITMAP
30
30
FC
FC
30
30
ENDCHAR
STARTCHAR OPEN CENTRE CROSS
ENCODING 10011
SWIDTH 640 0
DWIDTH 6 0
BBX 5 5 0 1
BITMAP
20
20
D8
20
20
ENDCHAR
STARTCHAR HEAVY OPEN CENTRE CROSS
ENCODING 10012
SWIDTH 640 0
DWIDTH 6 0
BBX 6 6 0 0
BITMAP
30
30
CC
CC
30
30
ENDCHAR
STARTCHAR LATIN CROSS
ENCODING 10013
SWIDTH 533 0
DWIDTH 5 0
BBX 5 6 0 0
BITMAP
20
20
F8
20
20
20
ENDCHAR
STARTCHAR SHADOWED WHITE LATIN CROSS
ENCODING 10014
SWIDTH 640 0
DWIDTH 6 0
BBX 6 7 0 0
BITMAP
30
30
FC
FC
30
30
30
ENDCHAR
STARTCHAR CIRCLED WHITE STAR
ENCODING 10026
SWIDTH 640 0
DWIDTH 6 0
BBX 7 8 -1 -1
BITMAP
7C
EE
EE
82
C6
BA
FE
7C
ENDCHAR
STARTCHAR OPEN CENTRE BLACK STAR
ENCODING 10027
SWIDTH 640 0
DWIDTH 6 0
BBX 5 5 0 2
BITMAP
20
20
D8
70
88
ENDCHAR
STARTCHAR EIGHT SPOKED ASTERISK
ENCODING 10035
SWIDTH 640 0
DWIDTH 6 0
BBX 5 7 0 -1
BITMAP
20
A8
70
F8
70
A8
20
ENDCHAR
STARTCHAR SIX POINTED BLACK STAR
ENCODING 10038
SWIDTH 640 0
DWIDTH 6 0
BBX 5 6 0 0
BITMAP
20
A8
70
70
A8
20
ENDCHAR
STARTCHAR LOWER RIGHT DROP-SHADOWED WHITE SQUARE
ENCODING 10063
SWIDTH 640 0
DWIDTH 6 0
BBX 6 6 0 1
BITMAP
F8
8C
8C
8C
FC
7C
ENDCHAR
STARTCHAR UPPER RIGHT DROP-SHADOWED WHITE SQUARE
ENCODING 10064
SWIDTH 640 0
DWIDTH 6 0
BBX 6 6 0 1
BITMAP
7C
FC
8C
8C
8C
F8
ENDCHAR
STARTCHAR LOWER RIGHT SHADOWED WHITE SQUARE
ENCODING 10065
SWIDTH 640 0
DWIDTH 6 0
BBX 6 6 0 1
BITMAP
F8
8C
8C
8C
FC
7C
ENDCHAR
STARTCHAR UPPER RIGHT SHADOWED WHITE SQUARE
ENCODING 10066
SWIDTH 640 0
DWIDTH 6 0
BBX 6 6 0 1
BITMAP
7C
FC
8C
8C
8C
F8
ENDCHAR
STARTCHAR HEAVY SINGLE TURNED COMMA QUOTATION MARK ORNAMENT
ENCODING 10075
SWIDTH 640 0
DWIDTH 6 0
BBX 2 4 2 3
BITMAP
40
80
C0
C0
ENDCHAR
STARTCHAR HEAVY SINGLE COMMA QUOTATION MARK ORNAMENT
ENCODING 10076
SWIDTH 640 0
DWIDTH 6 0
BBX 2 4 2 4
BITMAP
C0
C0
40
80
ENDCHAR
STARTCHAR HEAVY DOUBLE TURNED COMMA QUOTATION MARK ORNAMENT
ENCODING 10077
SWIDTH 640 0
DWIDTH 6 0
BBX 5 4 0 3
BITMAP
48
90
D8
D8
ENDCHAR
STARTCHAR HEAVY DOUBLE COMMA QUOTATION MARK ORNAMENT
ENCODING 10078
SWIDTH 640 0
DWIDTH 6 0
BBX 5 4 0 4
BITMAP
D8
D8
48
90
ENDCHAR
STARTCHAR HEAVY LOW SINGLE COMMA QUOTATION MARK ORNAMENT
ENCODING 10079
SWIDTH 640 0
DWIDTH 6 0
BBX 2 4 0 -2
BITMAP
C0
C0
40
80
ENDCHAR
STARTCHAR HEAVY LOW DOUBLE COMMA QUOTATION MARK ORNAMENT
ENCODING 10080
SWIDTH 640 0
DWIDTH 6 0
BBX 5 4 0 -2
BITMAP
D8
D8
48
90
ENDCHAR
STARTCHAR HEAVY BLACK HEART
ENCODING 10084
SWIDTH 853 0
DWIDTH 8 0
BBX 7 6 0 0
BITMAP
6C
FE
FE
7C
38
10
ENDCHAR
STARTCHAR ROTATED HEAVY BLACK HEART BULLET
ENCODING 10085
SWIDTH 640 0
DWIDTH 6 0
BBX 5 5 0 1
BITMAP
60
F0
78
F0
60
ENDCHAR
STARTCHAR FLORAL HEART
ENCODING 10086
SWIDTH 640 0
DWIDTH 6 0
BBX 8 9 -1 0
BITMAP
12
69
99
96
28
7C
7C
38
10
ENDCHAR
STARTCHAR MEDIUM LEFT-POINTING ANGLE BRACKET ORNAMENT
ENCODING 10092
SWIDTH 640 0
DWIDTH 6 0
BBX 5 7 0 0
BITMAP
18
30
60
C0
60
30
18
ENDCHAR
STARTCHAR MEDIUM RIGHT-POINTING ANGLE BRACKET ORNAMENT
ENCODING 10093
SWIDTH 640 0
DWIDTH 6 0
BBX 5 7 0 0
BITMAP
C0
60
30
18
30
60
C0
ENDCHAR
STARTCHAR HEAVY LEFT-POINTING ANGLE QUOTATION MARK ORNAMENT
ENCODING 10094
SWIDTH 640 0
DWIDTH 6 0
BBX 6 8 0 -1
BITMAP
1C
38
70
E0
E0
70
38
1C
ENDCHAR
STARTCHAR HEAVY RIGHT-POINTING ANGLE QUOTATION MARK ORNAMENT
ENCODING 10095
SWIDTH 640 0
DWIDTH 6 0
BBX 6 8 0 -1
BITMAP
E0
70
38
1C
1C
38
70
E0
ENDCHAR
STARTCHAR HEAVY LEFT-POINTING ANGLE BRACKET ORNAMENT
ENCODING 10096
SWIDTH 640 0
DWIDTH 6 0
BBX 6 8 0 -1
BITMAP
3C
78
F0
E0
E0
F0
78
3C
ENDCHAR
STARTCHAR HEAVY RIGHT-POINTING ANGLE BRACKET ORNAMENT
ENCODING 10097
SWIDTH 640 0
DWIDTH 6 0
BBX 6 8 0 -1
BITMAP
F0
78
3C
1C
1C
3C
78
F0
ENDCHAR
STARTCHAR DINGBAT NEGATIVE CIRCLED SANS-SERIF DIGIT ONE
ENCODING 10122
SWIDTH 640 0
DWIDTH 6 0
BBX 6 8 0 -1
BITMAP
78
CC
EC
EC
EC
EC
C4
78
ENDCHAR
STARTCHAR DINGBAT NEGATIVE CIRCLED SANS-SERIF DIGIT TWO
ENCODING 10123
SWIDTH 640 0
DWIDTH 6 0
BBX 6 8 0 -1
BITMAP
78
CC
B4
F4
EC
DC
84
78
ENDCHAR
STARTCHAR DINGBAT NEGATIVE CIRCLED SANS-SERIF DIGIT THREE
ENCODING 10124
SWIDTH 640 0
DWIDTH 6 0
BBX 6 8 0 -1
BITMAP
78
8C
F4
CC
F4
F4
8C
78
ENDCHAR
STARTCHAR DINGBAT NEGATIVE CIRCLED SANS-SERIF DIGIT FOUR
ENCODING 10125
SWIDTH 640 0
DWIDTH 6 0
BBX 6 8 0 -1
BITMAP
78
E4
D4
B4
84
F4
F4
78
ENDCHAR
STARTCHAR DINGBAT NEGATIVE CIRCLED SANS-SERIF DIGIT FIVE
ENCODING 10126
SWIDTH 640 0
DWIDTH 6 0
BBX 6 8 0 -1
BITMAP
78
84
BC
8C
F4
F4
8C
78
ENDCHAR
STARTCHAR DINGBAT NEGATIVE CIRCLED SANS-SERIF DIGIT SIX
ENCODING 10127
SWIDTH 640 0
DWIDTH 6 0
BBX 6 8 0 -1
BITMAP
78
CC
BC
8C
B4
B4
CC
78
ENDCHAR
STARTCHAR DINGBAT NEGATIVE CIRCLED SANS-SERIF DIGIT SEVEN
ENCODING 10128
SWIDTH 640 0
DWIDTH 6 0
BBX 6 8 0 -1
BITMAP
78
84
F4
EC
EC
DC
DC
78
ENDCHAR
STARTCHAR DINGBAT NEGATIVE CIRCLED SANS-SERIF DIGIT EIGHT
ENCODING 10129
SWIDTH 640 0
DWIDTH 6 0
BBX 6 8 0 -1
BITMAP
78
CC
B4
CC
B4
B4
CC
78
ENDCHAR
STARTCHAR DINGBAT NEGATIVE CIRCLED SANS-SERIF DIGIT NINE
ENCODING 10130
SWIDTH 640 0
DWIDTH 6 0
BBX 6 8 0 -1
BITMAP
78
CC
B4
B4
C4
F4
CC
78
ENDCHAR
STARTCHAR DINGBAT NEGATIVE CIRCLED SANS-SERIF NUMBER TEN
ENCODING 10131
SWIDTH 640 0
DWIDTH 6 0
BBX 7 8 0 -1
BITMAP
7C
B6
AA
AA
AA
AA
B6
7C
ENDCHAR
STARTCHAR HEAVY WIDE-HEADED RIGHTWARDS ARROW
ENCODING 10132
SWIDTH 640 0
DWIDTH 6 0
BBX 5 5 0 0
BITMAP
20
10
F8
10
20
ENDCHAR
STARTCHAR HEAVY PLUS SIGN
ENCODING 10133
SWIDTH 640 0
DWIDTH 6 0
BBX 6 6 0 0
BITMAP
30
30
FC
FC
30
30
ENDCHAR
STARTCHAR HEAVY MINUS SIGN
ENCODING 10134
SWIDTH 640 0
DWIDTH 6 0
BBX 6 2 0 2
BITMAP
FC
FC
ENDCHAR
STARTCHAR HEAVY DIVISION SIGN
ENCODING 10135
SWIDTH 640 0
DWIDTH 6 0
BBX 6 6 0 0
BITMAP
30
00
FC
FC
00
30
ENDCHAR
STARTCHAR HEAVY SOUTH EAST ARROW
ENCODING 10136
SWIDTH 640 0
DWIDTH 6 0
BBX 5 5 0 0
BITMAP
80
40
28
18
38
ENDCHAR
STARTCHAR HEAVY RIGHTWARDS ARROW
ENCODING 10137
SWIDTH 640 0
DWIDTH 6 0
BBX 5 3 0 1
BITMAP
10
F8
10
ENDCHAR
STARTCHAR HEAVY NORTH EAST ARROW
ENCODING 10138
SWIDTH 640 0
DWIDTH 6 0
BBX 5 5 0 0
BITMAP
38
18
28
40
80
ENDCHAR
STARTCHAR DRAFTING POINT RIGHTWARDS ARROW
ENCODING 10139
SWIDTH 640 0
DWIDTH 6 0
BBX 8 5 -2 0
BITMAP
10
0C
FF
0C
10
ENDCHAR
STARTCHAR WHITE MEDIUM STAR
ENCODING 11088
SWIDTH 640 0
DWIDTH 6 0
BBX 5 6 0 0
BITMAP
20
20
F8
50
70
88
ENDCHAR
STARTCHAR uni2B5F
ENCODING 11103
SWIDTH 640 0
DWIDTH 6 0
BBX 5 9 0 0
BITMAP
A8
00
A8
00
A8
00
A8
00
A8
ENDCHAR
STARTCHAR uni2B60
ENCODING 11104
SWIDTH 640 0
DWIDTH 6 0
BBX 6 9 0 -1
BITMAP
C0
C8
DC
C8
C8
D0
E0
C0
C0
ENDCHAR
STARTCHAR uni2B61
ENCODING 11105
SWIDTH 640 0
DWIDTH 6 0
BBX 4 7 1 0
BITMAP
C0
C0
F0
00
D0
F0
B0
ENDCHAR
STARTCHAR uni2B62
ENCODING 11106
SWIDTH 640 0
DWIDTH 6 0
BBX 5 8 0 -1
BITMAP
78
80
98
98
80
98
90
60
ENDCHAR
STARTCHAR uni2B63
ENCODING 11107
SWIDTH 640 0
DWIDTH 6 0
BBX 6 8 0 -1
BITMAP
F8
04
98
90
90
90
90
60
ENDCHAR
STARTCHAR uni2B64
ENCODING 11108
SWIDTH 640 0
DWIDTH 6 0
BBX 6 7 0 0
BITMAP
30
48
48
FC
CC
FC
78
ENDCHAR
STARTCHAR uni2B65
ENCODING 11109
SWIDTH 640 0
DWIDTH 6 0
BBX 7 7 0 0
BITMAP
D6
82
38
BA
38
82
D6
ENDCHAR
STARTCHAR uni2B66
ENCODING 11110
SWIDTH 640 0
DWIDTH 6 0
BBX 7 7 0 0
BITMAP
AA
00
FE
FE
FE
00
AA
ENDCHAR
STARTCHAR uni2B67
ENCODING 11111
SWIDTH 746 0
DWIDTH 7 0
BBX 7 7 0 0
BITMAP
7C
EE
EE
E2
FE
FE
7C
ENDCHAR
STARTCHAR uni2B68
ENCODING 11112
SWIDTH 640 0
DWIDTH 6 0
BBX 8 7 0 0
BITMAP
FE
82
BB
BB
BB
82
FE
ENDCHAR
STARTCHAR uni2B69
ENCODING 11113
SWIDTH 640 0
DWIDTH 6 0
BBX 8 7 0 0
BITMAP
FE
82
83
83
83
82
FE
ENDCHAR
STARTCHAR uni2B6A
ENCODING 11114
SWIDTH 640 0
DWIDTH 6 0
BBX 8 7 0 0
BITMAP
FE
82
A3
A3
A3
82
FE
ENDCHAR
STARTCHAR uni2B6B
ENCODING 11115
SWIDTH 640 0
DWIDTH 6 0
BBX 8 7 0 0
BITMAP
FE
82
B3
B3
B3
82
FE
ENDCHAR
STARTCHAR uni2B6C
ENCODING 11116
SWIDTH 640 0
DWIDTH 6 0
BBX 5 7 0 -1
BITMAP
F8
00
20
20
F8
20
20
ENDCHAR
STARTCHAR uni2B6D
ENCODING 11117
SWIDTH 640 0
DWIDTH 6 0
BBX 7 7 0 0
BITMAP
FE
AA
D6
BA
FE
FE
FE
ENDCHAR
STARTCHAR uni2B6E
ENCODING 11118
SWIDTH 640 0
DWIDTH 6 0
BBX 7 7 0 0
BITMAP
FE
BA
D6
EE
FE
FE
FE
ENDCHAR
STARTCHAR uni2B6F
ENCODING 11119
SWIDTH 640 0
DWIDTH 6 0
BBX 5 3 0 1
BITMAP
A8
50
A8
ENDCHAR
STARTCHAR uni2B70
ENCODING 11120
SWIDTH 640 0
DWIDTH 6 0
BBX 5 3 0 1
BITMAP
A8
00
A8
ENDCHAR
STARTCHAR uni2B71
ENCODING 11121
SWIDTH 640 0
DWIDTH 6 0
BBX 5 3 0 1
BITMAP
F8
F8
F8
ENDCHAR
STARTCHAR uni2B80
ENCODING 11136
SWIDTH 640 0
DWIDTH 6 0
BBX 6 11 0 -2
BITMAP
80
C0
E0
F0
F8
FC
F8
F0
E0
C0
80
ENDCHAR
STARTCHAR uni2B81
ENCODING 11137
SWIDTH 640 0
DWIDTH 6 0
BBX 6 11 0 -2
BITMAP
80
40
20
10
08
04
08
10
20
40
80
ENDCHAR
STARTCHAR uni2B82
ENCODING 11138
SWIDTH 640 0
DWIDTH 6 0
BBX 6 11 0 -2
BITMAP
04
0C
1C
3C
7C
FC
7C
3C
1C
0C
04
ENDCHAR
STARTCHAR uni2B83
ENCODING 11139
SWIDTH 640 0
DWIDTH 6 0
BBX 6 11 0 -2
BITMAP
04
08
10
20
40
80
40
20
10
08
04
ENDCHAR
STARTCHAR char11150
ENCODING 11150
SWIDTH 853 0
DWIDTH 8 0
BBX 7 10 1 -1
BITMAP
38
FE
D6
D6
82
82
C6
EE
EE
FE
ENDCHAR
STARTCHAR char11151
ENCODING 11151
SWIDTH 853 0
DWIDTH 8 0
BBX 7 10 1 -1
BITMAP
38
FE
82
BA
BA
BA
BA
BA
82
FE
ENDCHAR
STARTCHAR char11152
ENCODING 11152
SWIDTH 853 0
DWIDTH 8 0
BBX 7 10 1 -1
BITMAP
38
FE
82
82
82
82
82
82
82
FE
ENDCHAR
STARTCHAR char11153
ENCODING 11153
SWIDTH 853 0
DWIDTH 8 0
BBX 7 10 1 -1
BITMAP
38
FE
82
82
82
BA
BA
BA
82
FE
ENDCHAR
STARTCHAR char11154
ENCODING 11154
SWIDTH 853 0
DWIDTH 8 0
BBX 7 10 1 -1
BITMAP
38
FE
F6
EE
CE
82
E6
EE
DE
FE
ENDCHAR
STARTCHAR char11155
ENCODING 11155
SWIDTH 746 0
DWIDTH 7 0
BBX 5 9 2 -1
BITMAP
80
C0
E0
F0
F8
F0
E0
C0
80
ENDCHAR
STARTCHAR char11156
ENCODING 11156
SWIDTH 853 0
DWIDTH 8 0
BBX 6 8 2 0
BITMAP
CC
CC
CC
CC
CC
CC
CC
CC
ENDCHAR
STARTCHAR char11157
ENCODING 11157
SWIDTH 853 0
DWIDTH 8 0
BBX 7 8 1 0
BITMAP
7E
7E
42
42
42
42
C6
C6
ENDCHAR
STARTCHAR char11158
ENCODING 11158
SWIDTH 853 0
DWIDTH 8 0
BBX 7 8 1 0
BITMAP
38
6C
EE
EE
E2
FE
7C
38
ENDCHAR
STARTCHAR char11159
ENCODING 11159
SWIDTH 746 0
DWIDTH 7 0
BBX 7 10 1 -1
BITMAP
10
10
38
38
38
6C
6C
EE
C6
82
ENDCHAR
STARTCHAR char11160
ENCODING 11160
SWIDTH 853 0
DWIDTH 8 0
BBX 8 8 0 0
BITMAP
F7
F7
F7
F0
F7
F7
F7
F7
ENDCHAR
STARTCHAR char11161
ENCODING 11161
SWIDTH 853 0
DWIDTH 8 0
BBX 8 8 0 0
BITMAP
EF
EF
EF
0F
EF
EF
EF
EF
ENDCHAR
STARTCHAR char11162
ENCODING 11162
SWIDTH 853 0
DWIDTH 8 0
BBX 8 8 0 0
BITMAP
FF
FF
FF
FF
00
F7
F7
F7
ENDCHAR
STARTCHAR char11163
ENCODING 11163
SWIDTH 746 0
DWIDTH 7 0
BBX 8 8 0 0
BITMAP
FC
FD
FD
FD
FD
FD
01
3F
ENDCHAR
STARTCHAR char11164
ENCODING 11164
SWIDTH 853 0
DWIDTH 8 0
BBX 8 9 0 0
BITMAP
3C
42
81
81
81
A5
E7
66
24
ENDCHAR
STARTCHAR char11165
ENCODING 11165
SWIDTH 746 0
DWIDTH 7 0
BBX 7 9 0 -1
BITMAP
08
98
58
A8
D0
E8
34
1A
08
ENDCHAR
STARTCHAR char11166
ENCODING 11166
SWIDTH 960 0
DWIDTH 9 0
BBX 8 9 0 -1
BITMAP
09
1A
38
F8
FB
F8
38
1A
09
ENDCHAR
STARTCHAR char11167
ENCODING 11167
SWIDTH 640 0
DWIDTH 6 0
BBX 5 9 0 -1
BITMAP
08
18
38
F8
F8
F8
38
18
08
ENDCHAR
STARTCHAR char11168
ENCODING 11168
SWIDTH 853 0
DWIDTH 8 0
BBX 7 6 1 0
BITMAP
6C
FE
FE
7C
38
10
ENDCHAR
STARTCHAR WAVE DASH
ENCODING 12316
SWIDTH 640 0
DWIDTH 6 0
BBX 6 2 0 3
BITMAP
64
98
ENDCHAR
STARTCHAR REVERSED DOUBLE PRIME QUOTATION MARK
ENCODING 12317
SWIDTH 640 0
DWIDTH 6 0
BBX 4 3 1 4
BITMAP
A0
A0
50
ENDCHAR
STARTCHAR DOUBLE PRIME QUOTATION MARK
ENCODING 12318
SWIDTH 640 0
DWIDTH 6 0
BBX 4 3 0 4
BITMAP
50
50
A0
ENDCHAR
STARTCHAR LOW DOUBLE PRIME QUOTATION MARK
ENCODING 12319
SWIDTH 640 0
DWIDTH 6 0
BBX 4 2 1 0
BITMAP
50
A0
ENDCHAR
STARTCHAR <Private Use, Last>
ENCODING 63743
SWIDTH 640 0
DWIDTH 6 0
BBX 6 7 0 0
BITMAP
CC
CC
00
00
84
B4
CC
ENDCHAR
STARTCHAR LATIN SMALL LIGATURE FI
ENCODING 64257
SWIDTH 640 0
DWIDTH 6 0
BBX 5 7 0 0
BITMAP
30
40
F8
48
48
48
48
ENDCHAR
STARTCHAR LATIN SMALL LIGATURE FL
ENCODING 64258
SWIDTH 640 0
DWIDTH 6 0
BBX 5 7 0 0
BITMAP
38
48
E8
48
48
48
48
ENDCHAR
STARTCHAR FULLWIDTH LEFT SQUARE BRACKET
ENCODING 65339
SWIDTH 640 0
DWIDTH 6 0
BBX 2 9 2 -1
BITMAP
C0
80
80
80
80
80
80
80
C0
ENDCHAR
STARTCHAR FULLWIDTH REVERSE SOLIDUS
ENCODING 65340
SWIDTH 640 0
DWIDTH 6 0
BBX 6 6 0 0
BITMAP
80
40
20
10
08
04
ENDCHAR
STARTCHAR FULLWIDTH RIGHT SQUARE BRACKET
ENCODING 65341
SWIDTH 640 0
DWIDTH 6 0
BBX 2 9 2 -1
BITMAP
C0
40
40
40
40
40
40
40
C0
ENDCHAR
STARTCHAR FULLWIDTH CIRCUMFLEX ACCENT
ENCODING 65342
SWIDTH 640 0
DWIDTH 6 0
BBX 5 3 1 5
BITMAP
20
50
88
ENDCHAR
STARTCHAR FULLWIDTH TILDE
ENCODING 65374
SWIDTH 640 0
DWIDTH 6 0
BBX 9 2 -2 3
BITMAP
7080
8F00
ENDCHAR
STARTCHAR HALFWIDTH LEFT CORNER BRACKET
ENCODING 65378
SWIDTH 640 0
DWIDTH 6 0
BBX 3 6 0 1
BITMAP
E0
80
80
80
80
80
ENDCHAR
STARTCHAR HALFWIDTH RIGHT CORNER BRACKET
ENCODING 65379
SWIDTH 640 0
DWIDTH 6 0
BBX 3 6 0 0
BITMAP
20
20
20
20
20
E0
ENDCHAR
STARTCHAR HALFWIDTH KATAKANA LETTER NO
ENCODING 65417
SWIDTH 640 0
DWIDTH 6 0
BBX 3 8 0 0
BITMAP
20
20
20
40
40
40
80
80
ENDCHAR
STARTCHAR HALFWIDTH KATAKANA VOICED SOUND MARK
ENCODING 65438
SWIDTH 640 0
DWIDTH 6 0
BBX 3 2 1 5
BITMAP
A0
A0
ENDCHAR
STARTCHAR HALFWIDTH KATAKANA SEMI-VOICED SOUND MARK
ENCODING 65439
SWIDTH 640 0
DWIDTH 6 0
BBX 3 3 1 4
BITMAP
40
A0
40
ENDCHAR
STARTCHAR HALFWIDTH HANGUL LETTER AE
ENCODING 65475
SWIDTH 0 0
DWIDTH 0 0
BBX 0 0 0 0
BITMAP
ENDCHAR
ENDFONT
